<?xml version="1.0" encoding="utf-8"?>
<!-- Generator: Adobe Illustrator 15.0.2, SVG Export Plug-In . SVG Version: 6.00 Build 0)  -->
<svg version="1.2" baseProfile="tiny" id="Layer_1" xmlns="http://www.w3.org/2000/svg" xmlns:xlink="http://www.w3.org/1999/xlink"
	 x="0px" y="0px" width="32px" height="32px" viewBox="0 0 32 32" overflow="inherit" xml:space="preserve">
<g>
	<polygon points="16.48,6.675 16.152,7.786 17.979,8.326 19.605,10.062 20.45,9.271 18.607,7.304 	"/>
	<polygon points="16.07,18.113 16.575,20.08 14.438,19.219 14.292,21.604 11.992,20.08 11.48,20.852 15.119,23.262 15.283,20.559 
		17.927,21.623 16.967,17.883 	"/>
	<path d="M31.32,19.127l0.326-0.328l-0.567-0.568l0.052-0.067l-0.583-1.752L28.2,13.665l-1.798-2.448L22.221,5.85l-0.695-0.404
		l0.365-0.213l-0.231-0.399l-0.595,0.344l-0.19-0.11l0.235-0.135l-0.231-0.4l-0.464,0.269l-0.585-0.341l-3.806-0.08l-2.168-0.284
		L8.902,1.056L8.689,0.834L6.889,0l-1.39,1.042L5.154,1.728L4.846,1.801l-1.25,2.048L4.014,6.46l0.42,0.125
		c0.176,0.053,0.332,0.1,0.471,0.141L4.881,7.769l0.891-0.793c0.261,0.328,0.879,1.168,1.43,1.933l1.666,3.188l-0.163,0.618
		l-0.461-0.057L5.479,10.73l-0.543-0.455L4.95,9.691L4.605,9.998L3.412,8.995L1.206,8.761l-0.853,2.217l0.353,1.254l-0.087,0.059
		l0.256,0.385L0.989,12.6l3.709,3.925l0.271,2.673L1.066,32l5.125-4.168l1.211,3.441l3.619-3.474l1.854,3.443l2.961-3.457l2.5,3.448
		l2.312-3.444l3.151,3.46l1.665-3.441l4.465,4.064l-0.971-6.076l-1.236-6.627h2.541l0.285,0.312l0.327-0.312l-0.301-0.295
		l0.219-0.279L31.32,19.127z M26.893,17.803l-5.322-1.76l-0.438,1.327l5.154,1.725l1.305,6.962l0.341,2.12l-2.902-2.645L23.447,28.8
		l-2.963-3.25l-2.188,3.265l-2.364-3.263l-2.789,3.257l-1.76-3.271L8.001,28.78L6.85,25.508l-3.127,2.543l2.655-8.719l-0.346-3.42
		l-4.056-4.291l-0.162-0.578L2.12,10.25l0.726,0.076l1.766,1.483l3.121,2.18l2.006,0.251l0.609-2.313L8.389,8.174L8.36,8.134
		c-0.004-0.006-0.402-0.56-0.805-1.105c-0.857-1.163-1-1.357-1.338-1.379C6.078,5.615,5.674,5.5,5.249,5.375L5.05,4.131l0.68-1.114
		l1.485-0.351l1.062,0.455l0.552-0.485l4.553,2.793l2.537,0.334l3.522,0.073l1.85,1.077l4,5.132l1.807,2.46l2.221,2.581l0.244,0.715
		h-2.67V17.803z"/>
	<circle cx="9.307" cy="6.311" r="0.347"/>
	<circle cx="10.463" cy="7.545" r="0.347"/>
	<circle cx="9.885" cy="9.01" r="0.347"/>
</g>
</svg>
