<?xml version="1.0" standalone="no"?>
<!DOCTYPE svg PUBLIC "-//W3C//DTD SVG 1.1//EN" "http://www.w3.org/Graphics/SVG/1.1/DTD/svg11.dtd" >
<svg>
<metadata>
Created by FontForge 20110222 at Tue Feb 21 08:50:32 2012
 By www-data
(c) 2009, 2012 JVEnaguas Productions, Inc. Some Rights Reserved.
</metadata>
<defs>
<font id="ThatsFontFolksItalic" horiz-adv-x="795" >
  <font-face 
    font-family="That's Font Folks!"
    font-weight="400"
    font-style="italic"
    font-stretch="normal"
    units-per-em="2048"
    panose-1="3 5 5 0 4 6 6 1 1 4"
    ascent="1638"
    descent="-410"
    x-height="811"
    cap-height="1590"
    bbox="-398 -1095 2671 2151"
    underline-thickness="150"
    underline-position="-142"
    unicode-range="U+0020-2122"
  />
    <missing-glyph />
    <glyph glyph-name="space" unicode=" " horiz-adv-x="359" 
 />
    <glyph glyph-name="exclam" unicode="!" horiz-adv-x="411" 
d="M266 164q30 -30 30 -72q0 -43 -30 -72.5t-72 -29.5t-72 29.5t-30 72.5q0 42 30 72t72 30t72 -30zM204 439q170 1016 191 1065.5t63 62.5q13 4 26 4q24 0 43 -17q27 -25 27 -68q0 -44 -131.5 -587t-153.5 -555q-14 -8 -27 -8q-10 0 -19 4q-23 8 -29 31q-2 6 -2 14
q0 21 12 54z" />
    <glyph glyph-name="quotedbl" unicode="&#x22;" horiz-adv-x="603" 
d="M313 1313l-6 50q57 18 72 52q-47 23 -53 67q-1 10 -1 20q0 30 15 50q19 25 43 34q20 8 48 8h10q35 -2 57.5 -29t27.5 -75q1 -11 1 -20q0 -36 -15 -64q-19 -36 -62 -65q-43 -28 -131 -28h-6zM613 1313l-6 50q57 18 72 52q-47 23 -53 67q-1 10 -1 20q0 30 15 50
q19 25 43 34q20 8 48 8h10q35 -2 57.5 -29t27.5 -75q1 -11 1 -20q0 -36 -15 -64q-19 -36 -62 -65q-43 -28 -131 -28h-6z" />
    <glyph glyph-name="numbersign" unicode="#" horiz-adv-x="1106" 
d="M1104 1420q25 0 36 -16.5t11 -32.5q0 -17 -108 -336h118q55 -11 55 -57q0 -47 -55 -58h-156l-77 -260h138q55 -11 55 -57q0 -47 -55 -58h-186q-107 -385 -130 -400t-47 -15t-40 17q-13 12 -13 31q0 5 1 12q5 26 98 355h-204q-129 -362 -142.5 -391t-45.5 -29
q-33 0 -49 17q-13 12 -13 30q0 7 2 14q5 27 112 359h-123q-55 11 -55 58q0 46 55 57h166l87 260h-178q-55 11 -55 58q0 46 55 57h216q119 358 138 374t44 16t36 -16.5t11 -49.5l-108 -324h224q119 353 138 369t44 16zM660 920l-77 -260h214l77 260h-214z" />
    <glyph glyph-name="dollar" unicode="$" horiz-adv-x="1202" 
d="M865 1655q26 0 53 -28q11 -12 11 -45q0 -45 -20 -126q148 -50 208 -162t60 -145t-18 -51q-17 -17 -55 -17h-4q-42 1 -76.5 96t-146.5 139v-3l-133 -516q373 -52 373 -367v-4q0 -334 -542 -334h-10q-65 -302 -116 -302t-69 18t-18 36t58 263q-134 22 -311 212
q-10 26 -10 45q0 29 22 44q18 12 38 12q19 0 39 -12q191 -163 256 -163l121 472q-333 73 -333 350v8q0 404 480 404q20 0 40 -1q35 145 55.5 161t47.5 16zM382 1090v-9q0 -217 232 -241l121 495q-25 1 -48 1q-305 0 -305 -246zM710 677l-110 -447q389 10 391 207v2
q0 194 -281 238z" />
    <glyph glyph-name="percent" unicode="%" horiz-adv-x="1900" 
d="M988 818q461 722 485 746.5t45 28.5q5 1 11 1q15 0 30 -7q17 -9 17 -43v-16q-5 -48 -467 -763.5t-484 -741.5t-49 -29h-8q-23 0 -43 15q-15 11 -15 30q0 10 5 22q12 35 473 757zM656 1576h13q178 0 233 -104q49 -95 49 -251v-42q-8 -185 -76.5 -355.5t-188.5 -235.5
q-83 -46 -183 -46q-45 0 -93 10q-156 29 -189 202q-13 66 -13 137q0 112 32 235q52 199 171.5 324.5t244.5 125.5zM369 1060q-24 -105 -24 -182q0 -194 154 -204q219 17 290 387q20 102 20 177q0 194 -133 199q-222 -5 -307 -377zM1576 1037h13q178 0 233 -104
q49 -95 49 -251v-42q-8 -185 -76.5 -355.5t-188.5 -235.5q-83 -46 -183 -46q-45 0 -93 10q-156 29 -189 202q-13 66 -13 137q0 112 32 235q52 199 171.5 324.5t244.5 125.5zM1289 521q-24 -105 -24 -182q0 -194 154 -204q219 17 290 387q20 102 20 177q0 194 -133 199
q-222 -5 -307 -377z" />
    <glyph glyph-name="ampersand" unicode="&#x26;" horiz-adv-x="999" 
d="M644 881h1q48 0 48 -81v-3l-78 -406q80 9 165.5 64.5t113.5 60.5h6q24 0 47 -30q9 -13 9 -28q0 -24 -25 -52q-167 -116 -358 -144l-29 -181q-28 -76 -77 -76h-4q-45 3 -45 59q0 9 1 20l34 186h-25q-313 0 -313 175q0 18 4 38q36 220 241 223q151 -8 172 -122l43 221
q18 75 69 76zM239 470q-1 -5 -1 -10q0 -73 175 -73q28 0 60 2q-9 130 -47 169q-28 27 -69 27q-18 0 -37 -5q-68 -16 -81 -110z" />
    <glyph glyph-name="quotesingle" unicode="'" horiz-adv-x="397" 
d="M313 1313l-6 50q57 18 72 52q-47 23 -53 67q-1 10 -1 20q0 30 15 50q19 25 43 34q20 8 48 8h10q35 -2 57.5 -29t27.5 -75q1 -11 1 -20q0 -36 -15 -64q-19 -36 -62 -65q-43 -28 -131 -28h-6z" />
    <glyph glyph-name="parenleft" unicode="(" horiz-adv-x="697" 
d="M397.5 1405.5q81.5 114.5 193 196t144.5 95.5q29 13 49 13h4q21 -2 30 -37q3 -10 3 -18q0 -22 -17 -35q-23 -19 -127.5 -100.5t-180.5 -195.5t-113.5 -201t-70.5 -206t-48 -230q-6 -48 -6 -104q0 -74 11 -163q20 -157 65.5 -266.5t95 -190.5t55.5 -100q6 -18 6 -32v-2
q-1 -15 -16 -29.5t-31 -15.5q-2 -1 -5 -1q-14 0 -28 8q-18 8 -82 108t-128 247.5t-75 294.5q-4 42 -4 88q0 114 21 253q28 194 100.5 351.5t154 272z" />
    <glyph glyph-name="parenright" unicode=")" horiz-adv-x="693" 
d="M465 87.5q-82 -114.5 -193 -196t-144 -95.5q-30 -13 -50 -13q-2 0 -4 1q-21 1 -29 46q-3 12 -3 23q0 27 17 41q22 18 127 89.5t180.5 185.5t113.5 201t71 206t48 230q6 47 6 103q0 75 -11 165q-20 156 -66 265.5t-95 190.5t-55 100q-6 16 -6 30v4q1 15 15.5 29.5
t30.5 16.5h5q14 0 29 -7q18 -9 82 -109t127.5 -247.5t75.5 -293.5q4 -43 4 -90q0 -114 -21 -252q-29 -195 -101 -352t-154 -271.5z" />
    <glyph glyph-name="plus" unicode="+" horiz-adv-x="1010" 
d="M564 830q66 313 80.5 330t25.5 23q10 5 28 5h3q20 -1 32 -15q11 -13 11 -35v-5q-2 -26 -58 -309h211q72 -6 73 -52v-4q0 -44 -25 -57q-25 -14 -93 -14h-9l-191 1q-76 -350 -97 -362.5t-42 -14.5q-4 -1 -8 -1q-17 0 -29 11q-16 12 -16 42h-1q0 32 72 331q-71 -2 -122 -2
q-101 0 -121 7q-30 10 -34 39q-1 6 -1 11q0 22 12 38q14 21 37 28q17 5 166 5h96z" />
    <glyph glyph-name="comma" unicode="," horiz-adv-x="359" 
d="M113 -87l-6 50q57 18 72 52q-47 23 -53 67q-1 10 -1 20q0 30 15 50q19 25 43 34q20 8 48 8h10q35 -2 57.5 -29t27.5 -75q1 -11 1 -20q0 -36 -15 -64q-19 -36 -62 -65q-43 -28 -131 -28h-6z" />
    <glyph glyph-name="hyphen" unicode="-" horiz-adv-x="1003" 
d="M897 824q72 -6 73 -52v-4q0 -44 -25 -57q-25 -14 -93 -14h-9q-525 2 -555 12t-34 39q-1 6 -1 11q0 22 12 38q14 21 37 28q11 3 141 3q149 0 454 -4z" />
    <glyph glyph-name="hyphen" unicode="&#xad;" horiz-adv-x="1003" 
d="M897 824q72 -6 73 -52v-4q0 -44 -25 -57q-25 -14 -93 -14h-9q-525 2 -555 12t-34 39q-1 6 -1 11q0 22 12 38q14 21 37 28q11 3 141 3q149 0 454 -4z" />
    <glyph glyph-name="period" unicode="." horiz-adv-x="359" 
d="M266 164q30 -30 30 -72q0 -43 -30 -72.5t-72 -29.5t-72 29.5t-30 72.5q0 42 30 72t72 30t72 -30z" />
    <glyph glyph-name="slash" unicode="/" horiz-adv-x="405" 
d="M173 775.5q457 1015.5 476 1070.5t69 59h4q43 0 43 -62v-9q-4 -74 -446 -1061t-462.5 -1049t-45.5 -92q-21 -25 -53 -25q-8 0 -16 1q-36 6 -36 57q0 11 2 23q8 72 465 1087.5z" />
    <glyph glyph-name="zero" unicode="0" horiz-adv-x="1116" 
d="M1236 1362q21 -75 21 -177q0 -151 -46 -362q-77 -356 -182.5 -523.5t-234 -232.5t-231.5 -68q-5 -1 -9 -1q-99 0 -195 69q-102 72 -137 188q-22 73 -22 168q0 58 8 124q21 176 117 420.5t177 357.5t159 172.5t170 78.5q40 8 87 8q62 0 135 -14q130 -24 183 -208z
M820.5 283.5q148.5 129.5 229.5 457.5q71 286 71 460q0 26 -2 50q-12 181 -147 190q-17 1 -33 1q-113 0 -185 -53q-82 -60 -164 -196.5t-148.5 -313t-91.5 -339.5q-8 -46 -8 -88q0 -109 48 -192q62 -112 164 -112q5 0 10 1q108 5 256.5 134.5z" />
    <glyph glyph-name="one" unicode="1" horiz-adv-x="671" 
d="M417 1303q-6 -2 -12 -2q-14 0 -27 6q-19 8 -30 26q-8 12 -8 26q0 5 1 10q4 19 22.5 39t97.5 79t98 74.5t49 15.5q29 0 50 -13t22 -41v-4q0 -27 -12 -68q-14 -44 -157.5 -702.5t-156 -688t-31.5 -48.5t-41 -22q-8 -1 -15 -1q-14 0 -27 4q-20 5 -32 27q-7 12 -7 28
q0 13 4 29q10 34 293 1271q-61 -42 -81 -45z" />
    <glyph glyph-name="two" unicode="2" horiz-adv-x="1412" 
d="M748.5 1319q-75.5 -100 -89.5 -152.5t-27.5 -82t-45.5 -36.5q-12 -3 -23 -3q-18 0 -32 8q-23 13 -27 54q-1 5 -1 12q0 41 26 118q30 89 106.5 184t214.5 126q95 22 182 22q37 0 73 -4q118 -14 201 -77.5t100 -161.5q7 -42 7 -92q0 -66 -12 -146q-23 -140 -166.5 -377.5
t-484.5 -513.5q157 -58 222 -65q25 -3 48 -3q34 0 62 7q46 10 89 47t76 39h3q31 0 44 -33q6 -17 6 -31q0 -17 -8 -32q-16 -29 -55.5 -61.5t-101.5 -54.5q-56 -20 -111 -20h-15q-63 3 -129.5 16.5t-250.5 97.5q-121 -76 -189 -93q-57 -15 -104 -15q-9 0 -18 1
q-54 3 -86.5 26.5t-39.5 63.5q-3 14 -3 31q0 28 9 63q12 54 61 96q45 38 140 38h17q108 -4 193 -70q192 146 301 259t217 295.5t129 302.5q9 53 9 96q0 54 -14 93q-26 69 -103 109q-61 32 -151 32q-24 0 -49 -2q-124 -11 -199.5 -111zM487 169q-64 20 -98 20h-3
q-34 -1 -42 -19q-5 -11 -5 -20q0 -7 3 -13q7 -15 46 -15q38 0 99 47z" />
    <glyph glyph-name="three" unicode="3" horiz-adv-x="1342" 
d="M705.5 1363.5q-54.5 -44.5 -71 -57.5t-40.5 -13q-25 0 -39 15t-17 38v7q0 19 15 39q17 22 96.5 89.5t203.5 86.5q46 6 93 6q79 0 160 -19q130 -31 186 -129q49 -86 49 -186q0 -15 -1 -29q-8 -118 -63.5 -221.5t-201.5 -200.5q71 -175 71 -299v-8q-3 -126 -27.5 -210.5
t-118.5 -158.5t-193.5 -100t-195.5 -29q-18 -1 -35 -1q-74 0 -129 12q-69 15 -128.5 62t-90.5 109q-27 52 -27 83q0 5 1 10q5 31 30 49q12 9 27 9q13 0 29 -8q31 -16 71 -86.5t99 -85.5q54 -15 130 -15h10q81 1 149.5 18.5t126.5 67t98 115.5t40 144q0 77 -10 134.5
t-42 111.5q-76 -39 -148 -46q-14 -2 -27 -2q-59 0 -114 27q-68 33 -75 75q-1 8 -1 17q0 34 21 71q27 46 94 65q53 15 96 15h19q49 -5 158 -50q139 76 185.5 160.5t49.5 167.5v16q0 71 -24 121q-27 54 -123 79q-50 13 -103 13q-49 0 -100 -11q-108 -23 -162.5 -67.5zM863 811
q-41 13 -70 13q-16 0 -27 -3q-24 -8 -24 -19q0 -5 5 -11t20 -6q29 0 96 26z" />
    <glyph glyph-name="four" unicode="4" horiz-adv-x="1308" 
d="M1050 1363l-624 -558h485zM871 656h-138q-486 0 -505 13q-23 15 -31 45q-3 8 -3 17q0 21 15 45q21 32 444.5 406.5t461.5 389.5q31 11 61 11h15q38 -4 44 -38q3 -20 3 -39q0 -14 -2 -27q-4 -32 -183 -677q87 -3 108.5 -5t40.5 -34q11 -19 11 -37q0 -13 -5 -25
q-13 -30 -44 -37.5t-145 -7.5l-135 -610q-27 -58 -62 -59q-4 -1 -8 -1q-30 0 -47 11q-20 12 -28 38q-1 1 -1 4q0 55 133 617z" />
    <glyph glyph-name="five" unicode="5" horiz-adv-x="1220" 
d="M1320 1574q40 -1 58 -21q12 -14 12 -33q0 -9 -3 -20q-9 -32 -31 -40.5t-53.5 -11t-577.5 -2.5l-132 -432q130 27 231 27q27 0 52 -2q117 -9 176 -50t103.5 -117.5t55.5 -182.5q2 -27 2 -55q0 -82 -23 -170q-31 -118 -102 -238.5t-168.5 -174t-231.5 -59.5q-39 -2 -75 -2
q-91 0 -168 11q-108 15 -151.5 59.5t-61.5 104t-19 129.5v5q0 66 28 97q28 30 60 30h3q33 -1 37.5 -42.5t8 -94t22.5 -93.5t91 -63q57 -18 126 -18q19 0 39 1q92 6 154 22.5t116.5 69t79 96.5t53.5 119t41 139q7 40 7 75q0 22 -3 42q-7 53 -38.5 110.5t-80.5 90.5
q-44 29 -123 29h-17q-92 -4 -173.5 -14.5t-113.5 -18.5q-14 -3 -27 -3q-18 0 -33 6q-28 11 -33 35v4q0 37 76 304q80 283 90.5 303.5t26 34.5t690.5 14z" />
    <glyph glyph-name="six" unicode="6" horiz-adv-x="1201" 
d="M535 915q185 70 317 70q65 0 118 -16q159 -52 207 -207q27 -92 27 -192q0 -71 -13 -146q-34 -183 -116.5 -266.5t-184 -116t-206.5 -33.5h-6q-102 0 -189 39q-89 40 -136 123t-56 309q-1 12 -1 25q0 219 156 537q165 335 375 429.5t296 98.5h33q59 0 84 -10
q29 -13 29 -32v-2q-2 -20 -23 -42.5t-117 -32.5t-271.5 -102.5t-322.5 -432.5zM496 790q-77 -176 -77 -293q0 -7 1 -13q4 -120 24 -196.5t71 -107.5t117 -42q32 -5 69 -5q41 0 89 6q92 12 137.5 52.5t82 104t53 132.5t18.5 147v8q0 73 -31 138q-33 69 -116 108
q-66 30 -142 30q-20 0 -40 -2q-99 -10 -256 -67z" />
    <glyph glyph-name="seven" unicode="7" horiz-adv-x="1004" 
d="M951 1424q-622 3 -649.5 6.5t-37.5 23.5q-6 11 -6 28q0 13 3 29q8 37 52.5 48t249 13t361.5 2t189 -41q19 -25 19 -50q0 -16 -8 -32q-21 -42 -347.5 -711.5t-349.5 -715t-58 -46.5q-2 -1 -3 -1q-33 0 -56 29q-15 18 -15 41q0 15 6 31q15 42 650 1346z" />
    <glyph glyph-name="eight" unicode="8" horiz-adv-x="1248" 
d="M791 816q252 -199 288 -316q28 -91 28 -157q0 -19 -2 -36q-11 -76 -43 -131t-101 -100t-209 -64q-79 -11 -151 -11q-54 0 -103 7q-115 14 -188.5 58.5t-96.5 103.5q-20 49 -20 100q0 9 1 18q4 60 48 150.5t365 386.5q-119 174 -119 295q0 11 2 23q12 126 54.5 207
t134.5 137t195 66q39 3 78 3q64 0 128 -9q103 -16 188 -74.5t108 -111.5q8 -18 8 -35q0 -32 -29 -60q-45 -42 -564 -450zM693 734q-286 -267 -325 -347q-27 -55 -27 -100q0 -21 6 -39q17 -59 101 -92q59 -23 150 -23q39 0 83 4q149 14 211.5 48.5t79.5 95.5q5 20 5 43
q0 51 -24 122q-35 104 -260 288zM1232 1328q-56 53 -97 71t-116 30q-44 6 -88 6q-32 0 -64 -3q-76 -9 -149 -57t-92 -193q-3 -24 -3 -48q0 -120 79 -233z" />
    <glyph glyph-name="nine" unicode="9" horiz-adv-x="1201" 
d="M1025 654q-176 -67 -306 -67q-67 0 -121 18q-161 51 -209 209q-28 92 -28 194q0 71 14 148q34 183 117.5 267.5t185 117t208.5 33.5h5q103 0 192 -39q90 -40 138 -124.5t57 -311.5v-24q0 -220 -156 -540q-166 -337 -377.5 -432.5t-298.5 -98.5q-15 -1 -28 -1
q-65 0 -91 13q-32 13 -32 35q0 1 1 2q1 22 23.5 46t119 34t270.5 102t316 419zM1070 792q75 172 75 288v14q-5 119 -24.5 194.5t-69 105.5t-114.5 41q-31 5 -68 5q-41 0 -88 -6q-91 -12 -136 -51.5t-81 -102.5t-52 -131.5t-18 -145.5q-1 -5 -1 -11q0 -71 31 -133
q32 -67 114 -105q64 -30 139 -30q20 0 41 2q98 10 252 66z" />
    <glyph glyph-name="colon" unicode=":" horiz-adv-x="359" 
d="M266 164q30 -30 30 -72q0 -43 -30 -72.5t-72 -29.5t-72 29.5t-30 72.5q0 42 30 72t72 30t72 -30zM416 820q-30 -30 -72 -30q-43 0 -72.5 30t-29.5 72t29.5 72t72.5 30q42 0 72 -30t30 -72t-30 -72z" />
    <glyph glyph-name="semicolon" unicode=";" horiz-adv-x="359" 
d="M416 964q30 -30 30 -72q0 -43 -30 -72.5t-72 -29.5t-72 29.5t-30 72.5q0 42 30 72t72 30t72 -30zM93 -87l-6 50q57 18 72 52q-47 23 -53 67q-1 10 -1 20q0 30 15 50q19 25 43 34q20 8 48 8h10q35 -2 57.5 -29t27.5 -75q1 -11 1 -20q0 -36 -15 -64q-19 -36 -62 -65
q-43 -28 -131 -28h-6z" />
    <glyph glyph-name="less" unicode="&#x3c;" horiz-adv-x="606" 
d="M122 772q-10 21 -10 39q0 3 1 7q2 21 25 45t204 163t211 162q26 19 52 19h7q28 -3 40 -14t13 -34v-4q0 -21 -13 -42q-15 -23 -201.5 -165.5t-186.5 -146.5q0 -5 97 -154.5t102 -174.5q1 -8 1 -15q0 -17 -7 -31q-10 -22 -33 -30q-10 -4 -20 -4q-15 0 -30 7
q-28 11 -134 179t-118 194z" />
    <glyph glyph-name="equal" unicode="=" horiz-adv-x="898" 
d="M827 624q72 -6 73 -52v-4q0 -44 -25 -57q-25 -14 -93 -14h-9q-525 2 -555 12t-34 39q-1 6 -1 11q0 22 12 38q14 21 37 28q11 3 141 3q149 0 454 -4zM927 1024q72 -6 73 -52v-4q0 -44 -25 -57q-25 -14 -93 -14h-9q-525 2 -555 12t-34 39q-1 6 -1 11q0 22 12 38
q14 21 37 28q11 3 141 3q149 0 454 -4z" />
    <glyph glyph-name="greater" unicode="&#x3e;" horiz-adv-x="593" 
d="M655 828q10 -22 10 -41v-6q-2 -21 -25 -45t-204.5 -163t-211.5 -161q-26 -20 -51 -20h-7q-28 3 -40.5 14t-13.5 35v2q0 22 14 44q15 22 201 164.5t186 147.5q0 4 -96.5 153.5t-100.5 174.5q-2 8 -2 15q0 17 7 32q10 21 33 30q9 3 20 3q14 0 30 -6q27 -12 133 -180
t118 -193z" />
    <glyph glyph-name="question" unicode="?" 
d="M266 164q30 -30 30 -72q0 -43 -30 -72.5t-72 -29.5t-72 29.5t-30 72.5q0 42 30 72t72 30t72 -30zM365 721.5q64 95.5 156 179t153 130t81 97t25 121.5v14q0 62 -37 108q-42 50 -110 66q-52 11 -94 11q-14 0 -26 -1q-52 -5 -102.5 -19.5t-73.5 -17.5q-5 -1 -9 -1
q-19 0 -36 11q-22 13 -23 45q-1 1 -1 2q0 31 36 56q37 25 109 37q49 8 114 8q30 0 63 -1q104 -6 160 -34.5t91.5 -77.5t51.5 -129q10 -50 10 -99q0 -29 -3 -58q-10 -77 -48 -131t-127.5 -130t-174 -160.5t-149.5 -197t-82.5 -146t-44.5 -53.5q-11 -9 -21 -9q-16 0 -31 19
q-9 9 -9 29q0 39 36 119q52 117 116 212.5z" />
    <glyph glyph-name="at" unicode="@" horiz-adv-x="1252" 
d="M651 215q151 0 233 33t122 52q27 12 50 12q10 0 19 -2q30 -8 32 -39v-6q0 -27 -13 -41q-15 -16 -122.5 -68t-234.5 -66q-35 -5 -70 -5q-90 0 -175 28q-118 37 -205.5 135.5t-119.5 207.5q-19 65 -19 169q0 67 8 152q21 212 111 361.5t195 223t235 93.5q98 15 189 15
q29 0 58 -1q116 -7 223.5 -64.5t146 -146t50.5 -208.5q5 -48 5 -97q0 -76 -11 -156q-19 -132 -71 -227.5t-113 -139.5t-122 -52q-18 -3 -35 -3q-42 0 -78 15q-52 21 -93 89q-83 -75 -155 -82q-19 -2 -37 -2q-50 0 -91 15q-56 21 -90 66.5t-41 115.5q-3 26 -3 57q0 50 7 111
q12 98 63 197.5t128 157t131 62.5q11 1 22 1q44 0 90 -15q57 -20 99 -78q19 62 40 76q14 10 29 10q5 0 11 -1q20 -6 34 -20q12 -13 12 -30v-5q-2 -21 -65 -257.5t-66 -279.5q-1 -4 -1 -9q0 -36 28 -57q19 -14 47 -14q18 0 38 5q54 14 93 95t70 218q17 76 17 146
q0 56 -11 109q-25 117 -86.5 179.5t-157.5 82.5q-70 14 -150 14q-30 0 -62 -2q-116 -8 -216.5 -73t-180.5 -203.5t-104 -269.5q-12 -64 -12 -126q0 -64 13 -126q26 -121 118.5 -226.5t243.5 -105.5zM846 623q98 325 98 352v1q-2 21 -43 53t-98 34h-4q-55 0 -102 -38
q-50 -40 -82 -104t-53 -131t-22 -120v-5q0 -51 24 -90q25 -42 64 -51q13 -4 29 -4q30 0 71 12q62 18 118 91z" />
    <glyph glyph-name="A" unicode="A" horiz-adv-x="1534" 
d="M1320.5 775.5q-144.5 -417.5 -151.5 -509.5q-1 -13 -1 -24q0 -73 39 -95q25 -16 50 -16q19 0 37 9q43 20 85.5 67.5t82 111.5t69.5 74q9 3 17 3q18 0 30 -14q13 -16 13 -41q0 -9 -1 -19q-7 -38 -67.5 -130t-150.5 -144q-88 -52 -161 -52q-2 0 -4 1q-74 1 -117 45.5
t-43 228.5q-125 -148 -206 -199t-201 -66q-30 -4 -58 -4q-86 0 -159 35q-97 46 -138 156.5t-49 267.5q-1 18 -1 37q0 143 57 327q64 207 159.5 350.5t228.5 253.5t308 133q64 8 119 8q94 0 160 -24q105 -40 153 -124q47 -81 47 -152v-4q-2 -73 -146.5 -490.5zM1333 1236
q-16 131 -98 171q-59 28 -137 28q-31 0 -66 -5q-120 -16 -243.5 -111.5t-207.5 -215.5t-145 -316q-52 -169 -52 -283q0 -18 1 -35q10 -122 35 -196t107 -110q32 -15 72 -15q60 0 137 34q126 56 269 228.5t328 825.5z" />
    <glyph glyph-name="B" unicode="B" horiz-adv-x="1951" 
d="M472 127q30 -6 63 -6q38 0 79 8q76 14 165 118.5t146.5 284.5t102 324t146 305.5t137.5 185.5q22 14 42 14q12 0 23 -4q30 -14 34 -44v-4q0 -30 -57 -98q-61 -72 -116.5 -168.5t-95 -210t-101 -328t-154 -327.5t-223.5 -150q-84 -25 -158 -25q-42 0 -80 8
q-108 21 -159 73.5t-58 127.5q-1 14 -1 28q0 57 24 99q29 51 90 72q56 20 91 20h5q36 -2 58.5 -9.5t32.5 -31.5q4 -12 4 -22q0 -13 -6 -24q-12 -22 -37.5 -25.5t-54.5 -8t-51 -23.5t-26 -53v-7q0 -31 32 -57q36 -30 103 -42zM1581 168q47 31 91 103q40 67 40 164v14
q-3 106 -41 192t-70 116q-27 24 -50 24h-9q-27 -6 -82 -7q-21 -1 -38 -1q-27 0 -43 2q-25 2 -38 35q-7 16 -7 29q0 15 8 27q14 23 44 26t92 8.5t104.5 36.5t84.5 94q33 49 33 105q0 15 -2 32q-12 74 -54 129t-116 97.5t-177 56.5q-52 7 -104 7q-51 0 -102 -7
q-102 -14 -194.5 -55t-149 -107.5t-61.5 -144.5q-2 -16 -2 -32q0 -58 17 -105q21 -59 69.5 -87.5t57.5 -56.5q3 -9 3 -17q0 -19 -15 -36q-16 -19 -44 -19q-8 0 -16 2q-40 7 -98.5 60.5t-78 114.5t-19.5 143q0 81 39 177.5t146 168t238 101.5q124 29 248 29h13
q130 -2 222 -32t164.5 -87.5t106 -129t39.5 -167.5v-33q0 -75 -20 -128q-26 -66 -120 -158q57 -70 91 -152.5t49 -175.5q6 -42 6 -87q0 -55 -9 -113q-18 -108 -67 -174t-124.5 -109.5t-206.5 -47.5q-9 -1 -18 -1q-120 0 -214 56q-101 59 -119 160q-8 40 -8 77q0 54 17 100
q27 77 89 131q60 53 139 53h2q79 -1 112 -10q31 -9 31 -43v-3q-2 -37 -18 -52q-13 -12 -43 -12q-11 0 -24 2q-11 1 -22 1q-38 0 -73 -15q-45 -20 -66 -55q-20 -33 -20 -101q0 -4 1 -9q1 -76 84 -125q59 -35 120 -35q25 0 49 6q86 19 133 50z" />
    <glyph glyph-name="C" unicode="C" horiz-adv-x="1350" 
d="M663 1191.5q119 150.5 193 221t164 109t152 43.5q21 1 40 1q38 0 70 -6q48 -9 90.5 -58.5t52.5 -130.5q2 -19 2 -38q0 -62 -25 -123q-33 -79 -119 -159.5t-252 -156.5t-461 -112q-66 -167 -76 -268q-6 -56 -6 -101q0 -36 4 -64q8 -65 54.5 -122t90 -77.5t94.5 -23.5
q8 -1 16 -1q44 0 95 16q60 19 139.5 75.5t141.5 159t87 122.5q23 19 45 19h3q23 -1 38 -24q11 -18 11 -36q0 -6 -1 -12q-5 -25 -33.5 -83.5t-79.5 -130t-134.5 -130.5t-164.5 -87q-52 -19 -120 -19q-40 0 -85 7q-123 16 -208.5 83t-106.5 163q-19 81 -19 182q0 19 1 38
q4 124 75 338q-137 55 -182.5 127t-55.5 187q-2 21 -2 41q0 91 37 167q44 93 143.5 148t220.5 70q110 13 151 13h8q37 -2 50 -20q12 -17 12 -37v-5q-2 -23 -25.5 -39.5t-149.5 -28.5t-189.5 -51.5t-93 -98.5t-32.5 -111q-1 -7 -1 -15q0 -48 20 -112q23 -74 131 -117
q71 117 190 267.5zM1027.5 1035.5q100.5 49.5 185.5 114.5t97 145q3 21 3 39q0 50 -24 74q-34 32 -77 35h-13q-37 0 -77 -13q-46 -16 -88 -41t-151.5 -132.5t-263.5 -339.5q308 69 408.5 118.5z" />
    <glyph glyph-name="D" unicode="D" horiz-adv-x="1852" 
d="M1276 123h5q44 0 87 15q46 15 95.5 71.5t95 161t76.5 241.5q27 120 27 226v31q-5 120 -28 217t-75 156.5t-106.5 103t-138.5 62t-168 20.5h-19q-76 0 -157 -11q-92 -13 -177 -47.5t-147.5 -98t-101 -140t-46.5 -135.5q-5 -36 -5 -73q0 -23 2 -46q5 -60 31.5 -96t55.5 -45
q19 -6 46 -6q12 0 25 1q43 4 81 14.5t71 48.5t44 106q9 59 9 96v10q-2 39 -2 59q0 19 14 35.5t31 20.5q6 1 11 1q12 0 24 -5q18 -8 30 -38t16 -96q1 -18 1 -35q0 -46 -8 -87q-11 -57 -40 -108.5t-87 -86t-142 -49.5q-44 -9 -84 -9q-35 0 -67 7q-67 14 -112.5 52t-63 97
t-18.5 151q-1 4 -1 9q0 87 26 171q27 89 83.5 168t131.5 135t169 97.5t229 58.5q60 8 120 8q72 0 141 -11q127 -21 216 -71.5t149.5 -124.5t95 -152t49.5 -163q10 -57 10 -137q0 -39 -2 -84q-8 -136 -26.5 -243.5t-68.5 -239t-116 -205.5t-131 -103t-144 -32h-18
q-68 0 -120 22q-59 24 -96.5 75.5t-42.5 105.5q-3 25 -3 46q0 25 4 46q6 37 31.5 85.5t68 84.5t88.5 42q27 4 51 4q17 0 32 -2q37 -4 68 -17t50 -29t20 -41v-3q0 -24 -11 -38q-11 -15 -29 -23q-14 -6 -28 -6q-5 0 -9 1q-20 2 -31.5 8.5t-31.5 12.5t-43 7h-2q-23 0 -50 -17
q-28 -17 -42 -43q-12 -22 -12 -57q0 -7 1 -15q3 -45 17 -66t44.5 -38t77.5 -18zM472 127q30 -6 63 -6q38 0 79 8q76 14 165 118.5t146.5 284.5t102 324t146 305.5t137.5 185.5q22 14 42 14q12 0 23 -4q30 -14 34 -44v-4q0 -30 -57 -98q-61 -72 -116.5 -168.5t-95 -210
t-101 -328t-154 -327.5t-223.5 -150q-84 -25 -158 -25q-42 0 -80 8q-108 21 -159 73.5t-58 127.5q-1 14 -1 28q0 57 24 99q29 51 90 72q56 20 91 20h5q36 -2 58.5 -9.5t32.5 -31.5q4 -12 4 -22q0 -13 -6 -24q-12 -22 -37.5 -25.5t-54.5 -8t-51 -23.5t-26 -53v-7
q0 -31 32 -57q36 -30 103 -42z" />
    <glyph glyph-name="E" unicode="E" horiz-adv-x="1212" 
d="M605 1163q351 59 450 143q61 51 61 90q0 25 -24 46q-30 24 -79 24q-55 0 -134 -31q-150 -59 -274 -272zM689 857q55 -42 106 -47q10 -2 18 -2q37 0 56 20q10 11 10 25t-12 31q-9 11 -34 11q-45 0 -144 -38zM526.5 1250.5q28.5 49.5 81 109.5t133 114t154.5 75
q63 18 115 18h17q57 -4 99.5 -24t68 -56t29.5 -79v-19q0 -33 -9 -63q-13 -39 -70 -92t-207 -99.5t-331 -74.5q2 -60 26 -115q82 34 144 44q29 4 55 4q29 0 53 -5q46 -11 69 -32.5t32 -70.5q3 -19 3 -36q0 -29 -9 -55q-15 -42 -56 -66t-109 -29q-13 -1 -26 -1q-53 0 -99 17
q-58 21 -121 89q-93 -58 -145.5 -102.5t-87 -102.5t-44.5 -98.5t-10 -92.5t20.5 -105t66 -90.5t131 -60t153.5 -26.5q8 -1 16 -1q61 0 134 29q82 33 132 98t66 101.5t35 46.5q11 6 23 6q8 0 17 -2q22 -7 28 -32q1 -8 1 -18q0 -22 -9 -55q-13 -47 -50 -105t-101.5 -103.5
t-191.5 -69.5q-81 -15 -146 -15q-37 0 -68 5q-88 13 -194.5 79t-148.5 147.5t-43 189.5v2q0 107 76 242q77 137 295 238q-17 54 -33 143q-78 0 -143.5 14.5t-100.5 61.5t-45 123q-3 26 -3 51q0 48 12 94q19 70 73.5 115t121.5 56q36 5 67 5q27 0 50 -4q49 -9 74 -19.5
t40 -32.5q13 -20 13 -42v-7q-3 -26 -23.5 -38t-40.5 -12q-21 0 -54 20q-32 19 -73 19h-6q-46 -2 -66.5 -16t-41 -44t-24.5 -64q-2 -15 -2 -30q0 -20 4 -41q5 -36 34 -65.5t132 -35.5q9 41 37.5 90.5z" />
    <glyph glyph-name="F" unicode="F" horiz-adv-x="1242" 
d="M1620 1640q50 -19 50 -60q0 -56 -120 -115q-116 -30 -235 -30l-335 5q-285 0 -355 -70q-45 -45 -45 -110v-25q0 -45 60 -45l95 5q21 -7 30 -25v-40q0 -60 -165 -60q-78 14 -140 80q-25 59 -25 100v20q0 176 185 255q143 40 265 40h415q211 0 245 40q42 35 75 35z
M1134 761q-13 1 -28 1q-57 0 -142 -20q-23 -243 -73 -397q-85 -211 -180 -275q-110 -65 -240 -65h-35q-239 0 -320 150q-50 72 -50 140v25q0 156 165 275q77 30 155 30q175 -19 175 -120q0 -45 -60 -45q-73 40 -135 40q-106 0 -155 -120l-5 -55q0 -67 55 -135
q59 -65 160 -65q120 0 220 65q108 83 160 310q25 105 35 220q-119 -25 -240 -45q-45 16 -45 50v10q0 63 157.5 88t157.5 32q0 190 190 475l45 40h45q45 -6 45 -45q0 -25 -75 -120q-125 -181 -140 -335q93 23 149 23q18 0 33 -3q57 -10 71 -44q4 -13 4 -25q0 -21 -14 -38
q-18 -23 -62 -23q-11 0 -23 1z" />
    <glyph glyph-name="G" unicode="G" horiz-adv-x="1378" 
d="M587 945q42 -3 81 -3q171 0 286 63q142 78 224 165q79 83 79 164v6q-3 84 -56 105q-12 4 -27 4q-55 0 -157 -55q-131 -72 -248.5 -188t-181.5 -261zM460 967q131 266 282.5 385t247 159.5t143.5 47.5q22 3 44 3q28 0 57 -4q52 -9 84 -46t41 -98q4 -35 4 -71q0 -28 -2 -56
q-7 -67 -63 -147.5t-151 -150t-207 -116t-212 -51.5t-177 -5q-2 -23 -2 -45q0 -149 86 -199q67 -39 134 -39q31 0 61 8q97 26 160 76t82 94t28.5 107.5t20.5 74t28 18.5q12 5 23 5q5 0 10 -1q15 -3 26 -18q9 -13 9 -39v-13q-3 -36 -112 -554q207 47 258 95q50 47 76 47h2
q26 -1 43 -23q6 -9 6 -21q0 -19 -15 -47q-25 -47 -100.5 -95.5t-301.5 -81.5q-75 -251 -176.5 -313.5t-236.5 -63.5q-4 -1 -8 -1q-129 0 -191 46q-64 47 -82 114q-11 39 -11 75q0 26 6 50q12 58 42 98t114.5 69.5t439.5 37.5l66 228q-151 -94 -262 -94h-9q-115 4 -199.5 61
t-116.5 139t-32 229q-119 42 -188 124.5t-69 206.5q-1 1 -1 3q0 121 35 196q34 76 90.5 120.5t120.5 63.5t116 24t104 7q13 1 27 1q39 0 79 -4q55 -6 70 -32q7 -15 7 -28q0 -12 -5 -24q-13 -25 -55.5 -30.5t-83.5 -5.5t-103 -5.5t-115 -18t-87.5 -50t-54.5 -92.5
q-19 -52 -19 -125q0 -5 1 -11q1 -80 51 -128t123 -66zM689.5 144.5q-114.5 -9.5 -154.5 -42.5q-40 -32 -40 -86q0 -2 1 -4q1 -58 53 -87q41 -23 94 -23q14 0 29 2q70 7 150.5 47.5t128.5 208.5q-147 -6 -261.5 -15.5z" />
    <glyph glyph-name="H" unicode="H" horiz-adv-x="1602" 
d="M387.5 1372.5q-57.5 -51.5 -75.5 -131.5q-10 -41 -10 -74q0 -31 9 -54q18 -48 63 -85q38 -32 95 -32q10 0 20 1q70 6 115 40t57 56.5t31 30.5q14 5 26 5h8q14 -3 27 -17q10 -12 10 -27v-6q-3 -20 -21 -53.5t-73 -79t-116 -57.5q-36 -7 -69 -7q-25 0 -49 4
q-57 9 -110.5 34t-96.5 76t-51 141q-2 24 -2 46q0 64 17 119q22 75 65 124.5t106 76.5t136 38q40 6 75 6q29 0 55 -4q56 -9 116 -22t193 -69q45 88 105 108q42 14 78 14q15 0 29 -2q47 -9 70 -44t25 -77v-11q0 -35 -11 -62q-13 -31 -54 -57q-24 -15 -74 -15q-40 0 -97 9
l-113 -424l308 126q123 314 179 399.5t104 115t92 34.5h10q37 0 65 -27q32 -32 32 -95q0 -64 -22.5 -129t-53.5 -69q-6 -1 -10 -1q-24 0 -35 18q-7 11 -7 27q0 17 7 40q13 46 19 78q1 6 1 11q0 22 -22 24h-3q-26 0 -72 -54q-49 -57 -159 -345q89 45 106 46h4q14 0 25 -5
q13 -6 18 -29q1 -6 1 -12q0 -16 -10 -30q-14 -20 -33 -36t-161 -80q-76 -332 -95 -461q-9 -59 -9 -108q0 -57 13 -100q22 -80 74 -103q26 -12 57 -12q29 0 62 11q68 21 120 122.5t72 121.5t43 25q6 1 11 1q16 0 27 -10q15 -13 17 -32v-4q0 -20 -16 -53q-19 -38 -60 -109
t-96 -119t-149 -60q-22 -3 -42 -3q-68 0 -117 33q-65 43 -87.5 94.5t-34.5 116.5q-8 44 -8 85q0 19 2 38q5 58 13.5 126t77.5 363l-298 -121q-136 -594 -276 -677q-109 -65 -195 -65q-25 0 -48 6q-102 24 -131.5 76t-34.5 102q-3 20 -3 41q0 29 5 58q7 49 27 84t47 44
q18 5 32 5q7 0 13 -1q17 -4 22 -23q2 -6 2 -14q0 -14 -7 -32q-10 -28 -21 -58t-15 -67q-1 -6 -1 -11q0 -31 19 -56q21 -31 79 -35q7 -1 14 -1q50 0 95 30q50 33 79 67.5t73.5 131.5t101.5 361q-98 -44 -117 -46h-7q-14 0 -25 7q-14 9 -20 26q-4 9 -4 17q0 9 4 18q6 18 23 34
t184 80l130 496q-114 55 -164 69t-98 21q-27 4 -62 4q-27 0 -59 -2q-73 -6 -130.5 -57.5zM1041 1425q36 -15 60 -15q16 0 26 6q25 14 25 34v3q-2 22 -17 26q-12 3 -32 3h-10q-28 -1 -52 -57z" />
    <glyph glyph-name="I" unicode="I" horiz-adv-x="1101" 
d="M517 119q12 -1 24 -1q65 0 116 26q60 31 103 103.5t88 322.5q-11 -1 -22 -1q-38 0 -74 9q-46 10 -128 72.5t-114 155.5q-30 84 -30 157v14q3 79 30 152.5t114 174.5t193.5 174.5t199.5 94.5q79 17 111 17h10q28 -4 42 -18q12 -12 12 -27v-5q-3 -19 -6 -39.5t-186 -803.5
q58 7 76.5 18t36.5 26.5t37 17.5h6q14 0 22 -6q10 -9 14 -38q1 -9 1 -17q0 -19 -6 -31q-8 -19 -39 -42.5t-177 -57.5q-55 -244 -87 -325.5t-89 -140.5t-136 -89q-70 -27 -135 -27q-9 0 -19 1q-74 4 -142.5 34t-103.5 81.5t-41 143.5q-2 20 -2 38q0 68 19 120q24 66 72.5 98
t118.5 35h17q57 0 91 -17q38 -20 51 -40q9 -14 9 -31q0 -7 -1 -14q-6 -26 -31 -37q-13 -6 -27 -6q-13 0 -28 6q-27 9 -64 9h-7q-41 -1 -71 -48.5t-33 -82.5q-1 -7 -1 -13q0 -30 13 -62q16 -40 54.5 -58t118.5 -23zM872 703l179 765q-185 -74 -277 -177.5t-120.5 -156
t-40.5 -109.5q-9 -41 -9 -78q0 -13 2 -26q4 -47 15 -85.5t45.5 -72.5t90.5 -54q32 -12 65 -12q25 0 50 6z" />
    <glyph glyph-name="J" unicode="J" horiz-adv-x="1309" 
d="M1338 1478h-5q-39 0 -67 -56q37 -12 62 -12q18 0 29 6q25 14 25 34v3q-2 22 -44 25zM791.5 1093.5q11.5 21.5 29.5 29.5q15 7 29 7h5q16 -2 29 -17q10 -13 10 -29v-6q-3 -20 -22.5 -54t-72.5 -77.5t-116 -55.5q-39 -7 -74 -7q-24 0 -47 3q-58 8 -110 35t-95.5 76.5
t-49.5 140.5q-2 20 -2 39q0 69 18 127q23 75 66 123.5t97 75.5t134 39q59 9 123 9q21 0 43 -1q87 -4 168 -22.5t211 -78.5q48 92 109 113q42 14 76 14q16 0 31 -3q46 -10 69.5 -45t27.5 -79v-17q0 -33 -11 -59q-15 -32 -56 -54q-25 -14 -82 -14q-38 0 -90 6l-249 -1057
q120 0 184 32.5t97.5 77t53.5 56t43 11.5t36 -18q11 -15 11 -33q0 -4 -1 -8q-3 -24 -33.5 -59.5t-89.5 -80.5t-140.5 -71t-116.5 -30q-13 -1 -28 -1q-25 0 -56 4q-72 -235 -131 -303.5t-125 -98t-132 -32.5q-31 -2 -62 -2q-36 0 -73 2q-69 4 -117 34t-84 75.5t-42 108.5
q-3 20 -3 41q0 45 10 94q14 71 62.5 118t113 70.5t142.5 30.5q72 6 136 6h10q67 -1 207 -15l273 1070q-116 52 -190.5 74t-147.5 27q-21 1 -43 1q-52 0 -105 -8q-74 -13 -132.5 -58t-73.5 -114q-8 -38 -8 -73q0 -28 5 -53q12 -58 59 -97q41 -34 101 -34q9 0 19 1
q72 6 116.5 39t56 54.5zM821 148q-154 16 -231 16q-26 0 -43 -2q-69 -7 -122 -24.5t-78 -53t-30 -94.5q-1 -8 -1 -16q0 -50 31 -89q35 -45 102 -59q37 -8 74 -8q31 0 63 6q70 11 125 66t110 258z" />
    <glyph glyph-name="K" unicode="K" horiz-adv-x="1815" 
d="M874.5 193q-106.5 -149 -215.5 -176q-71 -19 -133 -19q-32 0 -62 6q-86 14 -137 71t-56 107q-3 20 -3 41q0 29 5 58q7 49 27 84t47 44q18 5 32 5q7 0 13 -1q17 -4 22 -23q2 -6 2 -14q0 -14 -7 -32q-10 -28 -21 -58q-10 -27 -10 -61v-6q1 -37 22.5 -67.5t112.5 -32.5
q6 -1 13 -1q82 0 140 30q63 31 92 65.5t73.5 131.5t239.5 993q-114 55 -164 69t-98 21q-27 4 -62 4q-27 0 -59 -2q-73 -6 -130.5 -57.5t-75.5 -131.5q-10 -41 -10 -74q0 -31 9 -54q18 -48 63 -85q38 -32 95 -32q10 0 20 1q70 6 115 40t57 56.5t31 30.5q14 5 26 5h8
q14 -3 27 -17q10 -12 10 -27v-6q-3 -20 -21 -53.5t-73 -79t-116 -57.5q-36 -7 -69 -7q-25 0 -49 4q-57 9 -110.5 34t-96.5 76t-51 141q-2 24 -2 46q0 64 17 119q22 75 65 124.5t106 76.5t136 38q40 6 75 6q29 0 55 -4q56 -9 116 -22t193 -69q45 88 105 108q42 14 78 14
q15 0 29 -2q47 -9 70 -44t25 -77v-11q0 -35 -11 -62q-13 -31 -54 -57q-24 -15 -77 -15q-43 0 -104 9q-188 -973 -294.5 -1122zM1297 1416q25 14 25 34v3q-2 22 -17 26q-12 3 -32 3h-10q-28 -1 -52 -57q36 -15 60 -15q16 0 26 6zM1575 1249.5q94 143.5 146.5 202.5t87.5 94.5
t54 40.5q6 2 13 2q12 0 24 -6q19 -9 24 -23q3 -11 3 -22q0 -6 -1 -11q-2 -19 -10.5 -31t-27.5 -35t-70.5 -79t-137 -191t-117 -220.5t-62.5 -140.5q9 -69 9 -113v-16q-2 -48 -27.5 -242t-36.5 -233q-7 -24 -7 -43q0 -14 3 -26q8 -29 35 -34q16 -4 34 -4q12 0 26 2
q33 3 58.5 14.5t78.5 61.5t82 101.5t43.5 65.5t30.5 19q7 1 13 1q10 0 19 -3q16 -7 24 -30q5 -17 5 -36v-13q-3 -27 -59 -104.5t-118 -130t-137 -66.5q-37 -7 -71 -7t-66 8q-62 14 -90 55t-28 92t9 100t34 155.5t30 185.5q1 18 1 37q0 63 -12 135q-62 -22 -123 -24h-12
q-53 0 -86 17q-37 19 -51 56q-10 26 -10 57q0 14 2 29q6 48 41 78t82 41q22 5 47 5q26 0 56 -6q55 -12 101 -83q50 174 144 317.5zM1337 874q-37 52 -68 52h-4q-32 -4 -44 -22q-8 -11 -8 -21q0 -7 4 -13q9 -16 34 -19h5q26 0 81 23z" />
    <glyph glyph-name="L" unicode="L" horiz-adv-x="1647" 
d="M1159 1332q40 83 95.5 139t122.5 83q65 26 124 26h4q61 -1 105.5 -31t69.5 -70t30 -112q1 -22 1 -43q0 -52 -8 -104q-12 -74 -47 -140.5t-117 -114t-184.5 -70t-232.5 -38.5l-166 -609q67 -43 122.5 -65.5t104 -37t97.5 -22.5q29 -5 63 -5q23 0 49 3q63 5 99.5 24.5
t79.5 51.5t58.5 41.5t30.5 9.5t25 -14q7 -12 7 -32v-11q-3 -28 -36 -64.5t-97 -72.5t-130 -47q-50 -8 -110 -8q-19 0 -39 1q-84 3 -150 24.5t-249 130.5q-44 -63 -120.5 -108t-235.5 -50h-26q-139 0 -192 50q-58 55 -67 99q-6 25 -6 53q0 20 3 43q7 52 40.5 101t102 74.5
t145.5 26.5h10q71 0 129 -14q61 -15 188 -107l142 531h-38q-97 0 -168 9q-85 10 -146.5 49t-98 91.5t-46.5 117.5q-5 26 -5 57q0 44 9 98q15 91 57 154.5t109.5 100t150.5 44.5q28 3 54 3q51 0 93 -10q63 -16 98 -34.5t41 -45.5q1 -8 1 -14q0 -19 -12 -33q-15 -18 -43 -18
h-2q-30 1 -101 24q-40 12 -80 12q-30 0 -59 -7q-69 -17 -103.5 -42.5t-53.5 -64.5t-31 -95q-7 -27 -7 -53q0 -29 8 -57q13 -55 51 -94t120 -54q59 -12 158 -12q39 0 83 2q86 267 126 350zM1396.5 1033q64.5 18 106 53t69.5 98t32 137v15q0 62 -27 90q-31 30 -77 32h-9
q-40 0 -74 -13q-37 -15 -76.5 -49t-69.5 -99.5t-114 -306.5q175 25 239.5 43zM768 218q-74 48 -116 71t-79 31q-14 2 -30 2q-29 0 -69 -9q-61 -14 -81 -48q-13 -21 -13 -44q0 -15 6 -32q14 -41 89 -56q30 -6 61 -6q44 0 90 13q76 21 142 78z" />
    <glyph glyph-name="M" unicode="M" horiz-adv-x="2524" 
d="M389 780q17 -3 32 -3q73 0 121 45q57 53 80.5 109.5t34.5 103.5t24.5 71t39.5 29h10q20 0 37 -13q13 -10 13 -38q0 -21 -7 -52q-16 -73 -65.5 -178.5t-121.5 -154.5t-116 -58q-19 -5 -43 -5q-30 0 -66 7q-66 12 -114.5 46.5t-73.5 105.5q-25 66 -25 166q0 6 1 12
q1 108 55 240.5t143.5 211t165 121.5t153.5 56q54 8 106 8q23 0 46 -1q73 -6 139.5 -48.5t100.5 -133.5q32 -86 32 -282v-23q129 310 201.5 385t136.5 86q31 5 60 5q30 0 56 -5q53 -11 88 -54t51 -130q8 -50 8 -141q0 -70 -5 -166q146 302 228 389.5t155 101.5q19 3 38 3
q54 0 109 -28q74 -39 97 -135q14 -63 14 -140q0 -41 -4 -86q-12 -129 -94.5 -478.5t-87.5 -411.5q-5 -52 -5 -88v-12q1 -38 38 -58q18 -10 41 -10t50 10q55 19 100.5 50.5t86 103t69.5 83.5q15 6 27 6q10 0 18 -5q15 -11 17 -47v-3q0 -37 -39 -112q-41 -80 -135 -147.5
t-173 -75.5q-32 -3 -57 -3q-38 0 -61 7q-39 12 -63.5 42.5t-35.5 104.5q-5 37 -5 79t5 89q11 94 43 230.5t76.5 374.5t50.5 361q1 11 1 21q0 104 -57 122q-15 4 -31 4q-49 0 -102 -47q-71 -63 -115.5 -153t-95.5 -233.5t-177 -531.5t-136 -421.5t-40 -42.5q-19 -6 -31 -6
q-8 0 -13 3q-14 6 -27 26q-6 9 -6 23t7 33q13 37 103 404t102 524q6 90 6 168q0 57 -3 108q-9 119 -69 143q-17 6 -34 6q-42 0 -82 -41q-57 -58 -112 -154t-104.5 -241t-179.5 -530.5t-146 -414.5t-38 -42q-16 -11 -33 -11q-5 0 -10 2q-22 4 -27 23q-4 10 -4 22q0 8 2 17
q4 21 106.5 402.5t120.5 514.5q15 113 15 205v30q-3 102 -54 175q-49 70 -154 70h-8q-112 -3 -201 -53t-150.5 -114t-101.5 -169q-31 -82 -31 -173q0 -27 3 -53q11 -121 106 -132z" />
    <glyph glyph-name="N" unicode="N" horiz-adv-x="2039" 
d="M389 780q17 -3 32 -3q73 0 121 45q57 53 80.5 109.5t34.5 103.5t24.5 71t39.5 29h10q20 0 37 -13q13 -10 13 -38q0 -21 -7 -52q-16 -73 -65.5 -178.5t-121.5 -154.5t-116 -58q-19 -5 -43 -5q-30 0 -66 7q-66 12 -114.5 46.5t-73.5 105.5q-25 66 -25 166q0 6 1 12
q1 108 55 240.5t143.5 211t165 121.5t153.5 56q54 8 106 8q23 0 46 -1q73 -6 139.5 -48.5t100.5 -133.5q32 -86 32 -282v-23q129 310 201.5 385t144.5 93q54 13 120 13q21 0 44 -1q92 -6 156 -54.5t89 -157.5q21 -95 21 -186q0 -15 -1 -30q-4 -106 -86.5 -455.5
t-87.5 -411.5q-5 -52 -5 -88v-12q1 -38 38 -58q18 -10 41 -10t50 10q55 19 100.5 50.5t86 103t69.5 83.5q15 6 27 6q10 0 18 -5q15 -11 17 -47v-3q0 -37 -39 -112q-41 -80 -135 -147.5t-173 -75.5q-32 -3 -57 -3q-38 0 -61 7q-39 12 -63.5 42.5t-35.5 104.5q-5 37 -5 79
t5 89q11 94 43 230.5t77 374.5q40 218 40 332v19q-4 113 -56.5 142.5t-139.5 32.5h-8q-82 0 -136 -56q-57 -58 -112 -154t-104.5 -241t-179.5 -530.5t-146 -414.5t-38 -42q-16 -11 -33 -11q-5 0 -10 2q-22 4 -27 23q-4 10 -4 22q0 8 2 17q4 21 106.5 402.5t120.5 514.5
q15 113 15 205v30q-3 102 -54 175q-49 70 -154 70h-8q-112 -3 -201 -53t-150.5 -114t-101.5 -169q-31 -82 -31 -173q0 -27 3 -53q11 -121 106 -132z" />
    <glyph glyph-name="O" unicode="O" horiz-adv-x="1345" 
d="M1088 1116v25q0 142 -21 200q-23 62 -45 74q-13 7 -26 7q-10 0 -20 -4q-25 -9 -53.5 -46.5t-29.5 -81.5q-1 -4 -1 -7q0 -40 16 -76q17 -39 52 -64.5t128 -26.5zM1268 1176q26 32 43.5 70t39.5 62q20 22 37 22h2q18 -2 28 -21q5 -10 5 -29q0 -15 -3 -36q-9 -47 -50 -112.5
t-176 -145.5q-30 -205 -47.5 -292.5t-42 -168t-70 -180t-138.5 -195.5t-223 -135q-89 -28 -167 -28q-35 0 -68 6q-105 18 -174.5 75.5t-114 173.5t-46.5 230v24q0 106 16 242q17 151 80 319t155.5 279t199.5 162t164 63q48 10 68 10h6q18 -2 33 -24q10 -15 10 -31
q0 -7 -2 -15q-8 -23 -19.5 -31t-47.5 -13.5t-82.5 -24.5t-103.5 -57t-111 -98.5t-105.5 -168.5t-82.5 -218t-44 -224q-10 -84 -10 -155q0 -26 1 -51q5 -91 47.5 -176.5t110.5 -124.5q52 -30 130 -30q24 0 51 3q112 12 206.5 82t167 225.5t136.5 533.5q-108 5 -174 48
t-94.5 95t-31.5 115q-1 15 -1 29q0 49 9 98q11 64 51 119t91 78q29 13 65 13q27 0 59 -7q73 -17 107 -130t41 -299q43 12 69 44z" />
    <glyph glyph-name="P" unicode="P" horiz-adv-x="1852" 
d="M1437 636h5q44 0 87 15q46 15 95.5 71.5t54.5 178.5v39q0 99 -19 180q-23 97 -79.5 151.5t-119.5 91t-147 55t-168 20.5h-19q-76 0 -157 -11q-92 -13 -177 -47.5t-147.5 -98t-101 -140t-46.5 -135.5q-5 -36 -5 -73q0 -23 2 -46q5 -60 31.5 -96t55.5 -45q19 -6 46 -6
q12 0 25 1q43 4 81 14.5t71 48.5t44 106q9 59 9 96v10q-2 39 -2 59q0 19 14 35.5t31 20.5q6 1 11 1q12 0 24 -5q18 -8 30 -38t16 -96q1 -18 1 -35q0 -46 -8 -87q-11 -57 -40 -108.5t-87 -86t-142 -49.5q-44 -9 -84 -9q-35 0 -67 7q-67 14 -112.5 52t-63 97t-18.5 151
q-1 4 -1 9q0 87 26 171q27 89 83.5 168t131.5 135t169 97.5t229 58.5q60 8 120 8q72 0 141 -11q127 -21 224.5 -64.5t162.5 -112.5t99.5 -147t49.5 -163q10 -55 10 -130q0 -42 -3 -91q-9 -135 -75 -209t-131 -103t-144 -32h-18q-68 0 -120 22q-59 24 -96.5 75.5t-42.5 105.5
q-2 10 -2 20q0 38 19 54q20 16 35 16h5q16 -3 30.5 -23.5t26 -43t25.5 -43.5t44.5 -38t77.5 -18zM472 127q30 -6 63 -6q38 0 79 8q76 14 165 118.5t146.5 284.5t102 324t146 305.5t137.5 185.5q22 14 42 14q12 0 23 -4q30 -14 34 -44v-4q0 -30 -57 -98
q-61 -72 -116.5 -168.5t-95 -210t-101 -328t-154 -327.5t-223.5 -150q-84 -25 -158 -25q-42 0 -80 8q-108 21 -159 73.5t-58 127.5q-1 14 -1 28q0 57 24 99q29 51 90 72q56 20 91 20h5q36 -2 58.5 -9.5t32.5 -31.5q4 -12 4 -22q0 -13 -6 -24q-12 -22 -37.5 -25.5t-54.5 -8
t-51 -23.5t-26 -53v-7q0 -31 32 -57q36 -30 103 -42z" />
    <glyph glyph-name="Q" unicode="Q" horiz-adv-x="1345" 
d="M1088 1116v25q0 142 -21 200q-23 62 -45 74q-13 7 -26 7q-10 0 -20 -4q-25 -9 -53.5 -46.5t-29.5 -81.5q-1 -4 -1 -7q0 -40 16 -76q17 -39 52 -64.5t128 -26.5zM1268 1176q26 32 43.5 70t39.5 62q20 22 37 22h2q18 -2 28 -21q5 -10 5 -29q0 -15 -3 -36q-9 -47 -50 -112.5
t-176 -145.5q-30 -205 -47.5 -292.5t-42 -168t-70 -180t-160.5 -238.5q57 -123 94.5 -183.5t78.5 -86.5q33 -21 71 -21q8 0 17 1q47 5 79 31t65 50q16 12 33 12q16 0 33 -10q19 -14 19 -35q0 -15 -9 -33q-23 -46 -84.5 -93.5t-160.5 -50.5h-7q-95 0 -173 78q-82 81 -171 277
q-171 -54 -272 -54q-27 0 -49 4q-105 18 -174.5 75.5t-114 173.5t-46.5 230v24q0 106 16 242q17 151 80 319t155.5 279t199.5 162t164 63q48 10 68 10h6q18 -2 33 -24q10 -15 10 -31q0 -7 -2 -15q-8 -23 -19.5 -31t-47.5 -13.5t-82.5 -24.5t-103.5 -57t-111 -98.5
t-105.5 -168.5t-82.5 -218t-44 -224q-10 -84 -10 -155q0 -26 1 -51q5 -91 47.5 -176.5t110.5 -124.5q52 -30 130 -30q24 0 51 3q112 12 149 41q-18 47 -18 78q0 38 27 51q10 5 20 5q39 0 74 -75q75 77 134.5 220t123.5 521q-108 5 -174 48t-94.5 95t-31.5 115q-1 15 -1 29
q0 49 9 98q11 64 51 119t91 78q29 13 65 13q27 0 59 -7q73 -17 107 -130t41 -299q43 12 69 44z" />
    <glyph glyph-name="R" unicode="R" horiz-adv-x="1901" 
d="M472 127q30 -6 63 -6q38 0 79 8q76 14 165 118.5t146.5 284.5t102 324t146 305.5t137.5 185.5q22 14 42 14q12 0 23 -4q30 -14 34 -44v-4q0 -30 -57 -98q-61 -72 -116.5 -168.5t-95 -210t-101 -328t-154 -327.5t-223.5 -150q-84 -25 -158 -25q-42 0 -80 8
q-108 21 -159 73.5t-58 127.5q-1 14 -1 28q0 57 24 99q29 51 90 72q56 20 91 20h5q36 -2 58.5 -9.5t32.5 -31.5q4 -12 4 -22q0 -13 -6 -24q-12 -22 -37.5 -25.5t-54.5 -8t-51 -23.5t-26 -53v-7q0 -31 32 -57q36 -30 103 -42zM882 1125q22 7 37 7q12 0 20 -4q17 -10 28.5 -41
t16.5 -97q1 -17 1 -34q0 -46 -9 -83q-13 -52 -43.5 -103t-88 -88t-141.5 -55q-44 -10 -84 -10q-35 0 -67 8q-67 16 -108.5 55t-61.5 93t-20 150t25.5 182.5t80 165t133 135t175 103t232.5 61.5q51 6 101 6q82 0 161 -15q126 -25 216 -67.5t158.5 -112t106.5 -149t49 -148.5
q7 -48 7 -98q0 -24 -2 -48q-5 -77 -54.5 -155.5t-116.5 -117t-144 -49.5q-3 -149 -19 -245q-11 -62 -11 -110q0 -27 4 -50q9 -64 55 -79q22 -7 44 -7q21 0 42 7q40 15 111.5 61t121.5 103t60 77t34 29q10 3 22 3q14 0 29 -5q25 -9 25 -47v-8q-3 -45 -82 -132.5t-142 -127.5
t-111.5 -63.5t-117.5 -26.5h-12q-62 0 -118 30q-62 32 -78 92q-12 46 -12 100q0 18 1 36q5 75 18.5 167t14.5 189q-132 9 -165 65q-23 36 -23 76q0 20 6 41q17 62 60 84q31 16 66 16q15 0 30 -3q53 -9 79 -35.5t39 -118.5q25 2 75 17t97 77.5t50 155.5v16q0 84 -23 151
q-26 73 -79 124t-121 90.5t-147 59.5q-74 18 -153 18h-12q-86 -2 -182 -15.5t-176.5 -49.5t-143 -96t-99.5 -138.5t-48 -135.5q-8 -38 -8 -77q0 -20 2 -40q6 -59 33.5 -99.5t57.5 -48.5q19 -5 44 -5q13 0 29 2q42 4 77 14.5t68.5 43t45.5 104.5q8 54 8 89v19q-4 37 -4 61
t30 54zM1339 785q-9 4 -17 4t-16 -4q-13 -8 -13 -26q0 -4 1 -8q3 -24 64 -24q-3 48 -19 58z" />
    <glyph glyph-name="S" unicode="S" horiz-adv-x="1125" 
d="M362 617h-8q-34 0 -64 -15q-34 -17 -58 -52t-36 -87q-10 -45 -10 -88v-14q2 -50 31 -101t68 -77t88 -34q30 -5 60 -5q19 0 38 2q49 5 111 36t109 70t78 107t43 141q8 46 8 89q0 26 -3 50q-7 66 -75 302q-74 -13 -129 -13q-13 0 -26 1q-63 4 -126 28t-129 80t-85 130
q-12 48 -12 94q0 25 3 48q10 68 56 140t107 98q55 23 101 23h10q50 -3 106 -10t72 -28q12 -15 12 -31q0 -5 -2 -11q-6 -21 -30 -28q-13 -4 -27 -4q-12 0 -24 3q-23 5 -56 5h-11q-40 -1 -75 -11t-65 -40t-47 -68t-18 -81v-5q0 -40 16 -74q17 -36 49 -65t81 -48t91 -25
q8 -1 19 -1q42 0 119 19q-8 58 -11 133q-1 13 -1 27q0 61 12 123q14 75 61 144t124 82q36 6 68 6q38 0 72 -8q63 -15 102 -41t61 -93q16 -48 16 -90q0 -17 -3 -34q-9 -57 -35 -112t-95 -113t-225 -122q58 -232 69 -313q5 -36 5 -71q0 -45 -8 -90q-14 -80 -30 -136t-58 -121
t-119 -120t-137 -76t-144 -25h-16q-76 0 -151 34q-83 38 -135 100t-63 129q-9 53 -9 109q0 15 1 31q3 73 35 140t84 107t105 53q34 8 75 8q22 0 45 -2q67 -7 110 -44t64 -85t23 -118v-12q0 -61 -19 -93q-20 -34 -46 -34h-1q-26 1 -42 12t-19 26q-1 5 -1 13q0 19 5 60
q3 25 3 45q0 24 -5 39q-9 26 -32 48t-95 34zM1055 1211q51 58 56 102q3 22 3 43t-3 40q-5 39 -48 58q-31 14 -72 14q-16 0 -32 -2q-61 -7 -104 -83q-28 -50 -28 -157q0 -55 7 -125q170 52 221 110z" />
    <glyph glyph-name="T" unicode="T" horiz-adv-x="1242" 
d="M1620 1640q50 -19 50 -60q0 -56 -120 -115q-116 -30 -235 -30l-335 5q-285 0 -355 -70q-45 -45 -45 -110v-25q0 -45 60 -45l95 5q21 -7 30 -25v-40q0 -60 -165 -60q-78 14 -140 80q-25 59 -25 100v20q0 176 185 255q143 40 265 40h415q211 0 245 40q42 35 75 35z
M1130 1370h20q35 -18 35 -50q0 -26 -105 -160q-135 -227 -135 -500q-30 -220 -65 -320q-82 -204 -220 -290q-89 -45 -215 -45h-20q-230 0 -310 140q-55 80 -55 135v50q0 140 165 260q62 30 165 30q160 -28 160 -105v-25q-16 -30 -60 -30q-66 40 -125 40h-10
q-102 0 -155 -120l-5 -65q0 -42 50 -125q63 -65 145 -65h15q229 0 305 155q43 55 80 185q51 339 85 495q44 163 195 385q31 25 60 25z" />
    <glyph glyph-name="U" unicode="U" horiz-adv-x="2050" 
d="M620.5 930.5q29.5 56.5 35 96.5t23.5 69.5t46 36.5q7 2 14 2q18 0 30 -13q9 -11 9 -41q0 -21 -4 -50q-11 -73 -47.5 -155.5t-95 -139t-127.5 -79.5q-48 -17 -95 -17q-22 0 -44 4q-69 11 -118 62.5t-71.5 113t-23.5 162.5q-1 2 -1 5q0 98 56 227q56 131 140 209.5t164 124
t159 60.5q44 8 87 8q33 0 64 -5q73 -11 144 -60t102 -111.5t44 -203.5q3 -42 3 -83q0 -100 -21 -200q-31 -141 -74.5 -287t-61.5 -270q-6 -37 -6 -68q0 -74 31 -116q43 -61 164 -69q13 -1 26 -1q104 0 189 61q95 69 139 173t148 626t116.5 554.5t49.5 38.5q11 1 20 1
q22 0 36 -8q17 -11 17 -38v-10q-4 -35 -122.5 -600.5t-125.5 -623.5q-5 -39 -5 -73q0 -18 1 -35q4 -49 42 -69q16 -9 34 -9q23 0 50 16q45 27 93.5 68t95.5 90t62 68q14 17 47 17h4q36 -1 36 -46t-55 -113t-153.5 -146.5t-167.5 -85.5q-20 -2 -37 -2q-43 0 -69 13
q-37 18 -64.5 51t-38.5 110q-102 -102 -182 -131.5t-180 -29.5q-101 0 -174 34.5t-111 100.5t-42 161v12q0 97 57 311q60 228 84 363q17 102 17 186q0 26 -1 51q-8 102 -57 181q-47 75 -149 75h-9q-110 -4 -205 -53.5t-148 -113t-95 -172.5q-32 -84 -32 -175q0 -29 3 -57
q13 -123 103 -137q18 -3 35 -3q65 0 109 45q54 56 83.5 112.5z" />
    <glyph glyph-name="V" unicode="V" horiz-adv-x="1462" 
d="M620 927.5q30 57.5 35.5 97.5t22.5 68t42 34q6 2 12 2q16 0 27 -11q8 -9 8 -36q0 -20 -5 -51q-11 -71 -47 -152.5t-93.5 -137.5t-125.5 -79q-47 -16 -93 -16q-21 0 -43 4q-67 11 -115 61t-70 110.5t-23 160.5q-1 2 -1 5q0 97 55 224q56 130 139.5 208t162.5 123t157 60
q44 8 86 8q32 0 63 -5q72 -11 141.5 -59t100 -109.5t43.5 -201.5q4 -46 4 -91q0 -94 -18 -186q-26 -137 -49 -240.5t-72 -317.5q-39 -166 -39 -204q0 -10 3 -10h1q14 0 151.5 409.5t283 590.5t275 266t244.5 114q82 20 121 20q16 0 25 -3q31 -11 31 -47q0 -37 -57 -50
t-186 -70t-225 -153.5t-180.5 -234t-131.5 -253.5t-103 -261.5t-105 -292.5t-74 -174t-54 -46q-22 -14 -49 -14q-10 0 -20 2q-40 6 -64 33q-21 22 -21 67q0 8 1 17q4 58 77.5 403.5t97.5 481.5q17 102 17 186q0 27 -1 52q-8 103 -58 184q-49 77 -154 77h-9q-112 -4 -208 -54
t-149.5 -114.5t-95.5 -174.5q-33 -85 -33 -178q0 -29 3 -58q13 -126 107 -141q19 -3 37 -3q68 0 112 46q56 57 86 114.5z" />
    <glyph glyph-name="W" unicode="W" horiz-adv-x="2531" 
d="M1617 716q306 503 316 665v19q0 100 -67 100q-27 0 -63 -15q-140 -58 -186 -769zM590 867q59 115 63 159t25.5 76t50.5 38q6 1 11 1q21 0 35 -17q11 -13 11 -44q0 -21 -5 -50q-12 -72 -49 -156t-96.5 -143.5t-127.5 -79.5q-44 -13 -90 -13q-25 0 -51 4q-73 11 -121 65.5
t-71 115.5q-22 58 -22 152v8q1 99 53 228.5t142 212t169.5 126t157.5 58.5q43 8 89 8q36 0 75 -5q87 -12 143.5 -59.5t86 -108.5t47.5 -205q7 -54 7 -110q0 -97 -20 -204q-31 -169 -100 -375.5t-69 -288.5t25 -114q21 -27 68 -27q9 0 19 1q62 6 122.5 49.5t324.5 395.5
q24 520 56 659.5t69.5 216.5t81.5 115.5t94 57.5q38 14 72 14q11 0 22 -1q43 -6 89.5 -40.5t62.5 -92.5q11 -40 11 -94q0 -24 -2 -50q-7 -86 -43.5 -195t-386.5 -656q56 -279 99 -323q40 -41 93 -41h7q57 3 125 49.5t179.5 187t189.5 312.5t121 293t70 355.5t37 251.5t44 19
h6q29 0 41 -20q3 -6 3 -32q0 -67 -24 -270q-33 -281 -152.5 -575t-296 -481t-271.5 -205q-47 -9 -89 -9q-45 0 -85 10q-78 19 -120.5 96t-77.5 252q-179 -212 -267.5 -283.5t-193.5 -84.5q-24 -3 -46 -3q-73 0 -119 34q-61 43 -73 117q-6 39 -6 83q0 41 5 87q11 96 58.5 242
t86.5 319q30 132 30 242q0 34 -3 66q-12 134 -58 218q-44 77 -147 77h-15q-115 -6 -204.5 -55t-143 -113t-95.5 -170q-33 -82 -33 -177q0 -29 3 -58q12 -129 99 -139q7 -1 15 -1q81 0 179 97z" />
    <glyph glyph-name="X" unicode="X" horiz-adv-x="1711" 
d="M634 870q63 120 63 162q0 41 22.5 77t49.5 40q4 1 8 1q21 0 33 -20q8 -15 8 -48q0 -20 -3 -46q-8 -70 -46 -151t-97.5 -142.5t-126.5 -82.5q-45 -14 -92 -14q-24 0 -48 4q-74 10 -120 62.5t-65.5 115t-19.5 164.5t51.5 232.5t139 208.5t169.5 121t161 59q45 8 93 8
q35 0 71 -4q85 -12 140 -59t83.5 -105t76.5 -540q263 469 330 544.5t132 112t101 38.5h9q29 0 42 -12q15 -14 18 -34v-6q0 -17 -16 -30q-20 -16 -43 -22t-78.5 -48t-103 -111.5t-368.5 -618.5q34 -362 50.5 -443t39.5 -114q19 -27 67 -27q11 0 23 2q67 7 126 48.5t114.5 120
t76.5 112.5q15 26 38 26q6 0 14 -2q31 -11 31 -49v-2q-1 -41 -55 -134.5t-143.5 -168t-193.5 -86.5q-25 -3 -47 -3q-71 0 -115 31q-58 40 -83 168t-44 379q-159 -323 -311 -445.5t-207 -130.5q-33 -5 -49 -5q-12 0 -15 3q-10 5 -19 23q-6 10 -6 23q0 7 3 15q5 21 23 35
t87 46.5t168 143.5t308 482q-41 387 -52.5 480t-62.5 170q-46 68 -145 68h-22q-116 -9 -205 -53.5t-146.5 -111.5t-94.5 -176q-28 -82 -28 -176q0 -32 4 -65q12 -132 100 -139q5 -1 11 -1q83 0 186 100z" />
    <glyph glyph-name="Y" unicode="Y" horiz-adv-x="1342" 
d="M366 -70q-2 -9 -2 -18q0 -83 152 -83q233 21 314 276q-53 3 -100 3q-147 0 -233 -33q-114 -44 -131 -145zM453 1076q11 -14 11 -32q0 -6 -1 -12q-5 -27 -32 -30q-6 -1 -12 -1q-23 0 -51 9q-37 10 -73 32t-59 60t-27 108q-2 16 -2 31q0 51 13 94q15 54 45.5 101.5t80.5 79
t105 46.5q50 14 92 14h9q45 -2 84 -20t71 -63q25 -37 25 -110q0 -17 -1 -36q-8 -101 -27.5 -180.5t-61.5 -239t-42 -209.5q-1 -2 -1 -4q0 -47 11 -70q11 -24 39 -35q21 -8 53 -8q10 0 22 1q46 3 90.5 17.5t96.5 62t90.5 113t120.5 401.5t101 359.5t44 30.5q9 2 16 2
q15 0 28 -8q18 -13 20 -33v-1q0 -27 -68 -305q-71 -286 -275 -1015q53 5 94.5 21.5t92 38.5t104 74t74.5 65q15 9 31 9q6 0 12 -1q22 -5 31 -20q7 -12 7 -30v-9q-2 -24 -44.5 -63.5t-129.5 -106.5t-299 -101q-49 -132 -87.5 -192.5t-88 -108.5t-143.5 -79q-69 -22 -134 -22
q-26 0 -51 3q-90 12 -142 49t-66 90q-11 40 -11 79q0 11 1 22q4 48 38 104.5t99 100.5t162 67q53 13 146 13q76 0 180 -9l118 376q-17 -23 -80 -69.5t-164 -56.5q-22 -3 -43 -3q-71 0 -117 29q-59 37 -75.5 69t-17.5 97q-1 1 -1 2q0 68 65 321q66 259 76 318q6 39 6 69
q0 16 -2 29q-5 39 -59 52q-23 5 -46 5q-33 0 -68 -11q-60 -18 -97 -64.5t-46 -107.5q-4 -20 -4 -37q0 -38 15 -65q20 -40 67.5 -59.5t61.5 -37.5z" />
    <glyph glyph-name="Z" unicode="Z" horiz-adv-x="1602" 
d="M1584 1555q6 -10 6 -25q0 -7 -1 -14q-4 -26 -20 -51.5t-914 -1217.5q212 -101 301 -117q78 -14 128 -14h12q51 2 107.5 13.5t87 39t48.5 78.5t25 121q1 19 1 36q0 45 -12 76q-17 43 -40 58.5t-55 18.5q-6 1 -12 1q-25 0 -43 -10q-23 -12 -29.5 -33t-16 -65.5t-34.5 -60.5
q-13 -8 -26 -8q-11 0 -23 7q-24 15 -25 44v5q0 28 9 77q9 53 48 103t95 60q24 4 48 4q30 0 58 -7q50 -13 90.5 -53t63 -102t24.5 -117v-23q0 -44 -5 -87q-8 -56 -31.5 -107t-82.5 -106.5t-144 -71.5q-79 -15 -154 -15q-7 0 -14 1q-82 1 -196 36.5t-259 102.5
q-36 -58 -90 -95t-117 -50q-33 -7 -66 -7q-31 0 -61 6q-65 12 -97.5 48.5t-39.5 89.5q-2 9 -2 18q0 44 30 91q36 57 89.5 74t104.5 19h5q52 0 173 -39q448 589 853 1124q-160 6 -322 24.5t-222 25t-120 11.5q-21 1 -38 1q-32 0 -52 -5q-30 -9 -62 -48t-36 -88q-1 -14 -1 -26
q0 -32 8 -54q10 -32 45 -64t60 -47q17 -12 17 -33q0 -8 -2 -17q-9 -34 -37 -45q-7 -3 -16 -3q-29 0 -78 27q-65 35 -102 134q-23 60 -23 119q0 37 10 75q23 95 99 146t173 54h30q86 0 195 -14q127 -17 254 -35q41 -6 96 -6q115 0 291 26q28 0 36 -14zM482 182
q-93 23 -122 27q-10 1 -20 1q-18 0 -35 -4q-27 -8 -41 -24q-8 -10 -8 -21q0 -8 5 -18q11 -22 47 -32q15 -4 32 -4q22 0 47 7q43 13 95 68z" />
    <glyph glyph-name="bracketleft" unicode="[" horiz-adv-x="746" 
d="M324 751q216 982 228 1046t44 84.5t205 20.5t182.5 -7t20.5 -30q10 -22 10 -44v-4q-1 -25 -18 -44.5t-41.5 -25t-268.5 -5.5l-437 -1987q274 0 316.5 -5.5t56.5 -17.5q9 -9 9 -29q0 -10 -2 -22q-7 -39 -30.5 -57t-225.5 -23q-45 -2 -82 -2q-127 0 -149 15q-29 19 -43 78
q9 77 225 1059z" />
    <glyph glyph-name="backslash" unicode="\" horiz-adv-x="496" 
d="M236 736q-49 949 -49 1087q0 17 1 22q6 47 55 55q6 1 12 1q39 0 53 -50q16 -57 69.5 -1103.5t56.5 -1077.5v-7q0 -27 -23 -43q-26 -19 -54 -19q-29 0 -48 36t-73 1099z" />
    <glyph glyph-name="bracketright" unicode="]" horiz-adv-x="746" 
d="M789 750q-216 -982 -228 -1046t-44 -84.5t-205 -20.5t-182.5 7t-20.5 31q-10 21 -10 43v5q1 24 18 43.5t41.5 25t268.5 5.5l437 1987q-274 0 -316.5 5.5t-56.5 18.5q-9 8 -9 28q0 10 2 23q7 38 30.5 56t225.5 24q45 1 82 1q127 0 149 -15q29 -19 43 -78
q-9 -77 -225 -1059z" />
    <glyph glyph-name="grave" unicode="`" horiz-adv-x="505" 
d="M597 1263v-4q0 -14 -13 -21q-7 -5 -16 -5t-20 6q-22 9 -124 130.5t-109 147.5q-3 8 -3 15q0 17 11 30q15 20 32 25q11 3 23 3h12q17 -3 38.5 -17.5t148.5 -273.5q18 -20 20 -36z" />
    <glyph glyph-name="a" unicode="a" horiz-adv-x="826" 
d="M499 570q-7 66 -37 95t-67 36q-8 1 -17 1q-33 0 -81 -21q-60 -28 -108.5 -101.5t-63 -142.5t-16.5 -138v-13q0 -59 17 -90q18 -35 45 -49q9 -5 22 -5q24 0 59 16q54 24 116.5 102t81.5 144t49 166zM592 818q13 4 26 4q9 0 19 -2q21 -7 22 -45v-1q0 -40 -49 -222
q-49 -184 -64 -263q-10 -55 -10 -83q0 -13 2 -20q6 -24 25 -41t43 -17q23 0 65 27t95 119t72 108q15 12 25 12q2 0 4 -1q10 -4 21.5 -20t15.5 -32q2 -6 2 -13q0 -11 -4 -23q-6 -20 -72 -131.5t-124 -139t-102 -32.5q-8 -1 -15 -1q-37 0 -74 23q-45 27 -92 135
q-49 -67 -91 -103t-112 -43q-15 -2 -29 -2q-51 0 -85 21q-44 27 -68.5 80t-31.5 139q-2 24 -2 50q0 66 13 143q17 107 66 182.5t97 123.5t104 67q42 14 95 14q17 0 35 -1q74 -6 129 -117q26 96 49 105z" />
    <glyph glyph-name="b" unicode="b" horiz-adv-x="704" 
d="M175.5 1159.5q98.5 243.5 132 298.5t72.5 81t76 35q12 3 25 3q23 0 46 -10q34 -16 60.5 -58t31.5 -128q1 -14 1 -28q0 -74 -22 -152q-27 -93 -103 -221t-154.5 -208t-193.5 -188q-33 -158 -33 -247q0 -22 2 -39q10 -89 52 -141t97 -53h4q52 0 87 22q36 23 65.5 68.5
t57.5 158.5q-81 13 -109.5 49.5t-42.5 72.5q-13 33 -13 71v6q1 42 9 80t28.5 75.5t53.5 66.5t73 38q19 4 37 4q19 0 37 -5q33 -10 54 -34.5t34.5 -62.5t14.5 -94v-6q0 -56 -17 -155q47 6 77.5 35.5t43.5 53.5t34 30q9 3 18 3q11 0 21 -4q18 -7 23 -27q1 -5 1 -10
q0 -18 -11 -42q-16 -32 -37 -52t-67 -54.5t-139 -45.5q-67 -217 -124.5 -269t-126.5 -66q-50 -10 -97 -10q-18 0 -36 2q-65 5 -103 29t-69 87.5t-46 139.5q-9 41 -9 96q0 49 7 110q13 129 46 290t131.5 404.5zM514 459q21 116 22 153v6q0 32 -5 52q-5 22 -26 24h-5
q-18 0 -30 -12q-15 -14 -26 -47.5t-11 -73.5q0 -41 15.5 -69t65.5 -33zM423 1118.5q46 99.5 64 174.5q14 60 14 91v14q-4 26 -26 26q-4 0 -8 -1q-30 -5 -73 -80.5t-216 -567.5q199 244 245 343.5z" />
    <glyph glyph-name="c" unicode="c" horiz-adv-x="615" 
d="M83 286v-8q0 -80 22 -107q22 -29 64 -39q23 -5 49 -5q22 0 47 4q53 8 134 58t134.5 108t77.5 80q21 19 49 19h9q34 -4 39 -40v-13q0 -30 -16 -56q-21 -32 -115 -115t-191 -126t-172 -45h-13q-67 0 -115 19q-53 20 -87.5 77.5t-34.5 160.5q0 102 28.5 212.5t77 185.5
t107 112t93.5 43t82 6q46 0 85 -12.5t64 -52.5q23 -38 23 -63v-3q-2 -26 -15 -43t-26 -24q-9 -5 -19 -5q-7 0 -13 2q-19 4 -26 22.5t-27 41t-57 26.5q-7 1 -14 1q-31 0 -64 -15q-40 -19 -81 -76.5t-69.5 -150.5t-29.5 -179z" />
    <glyph glyph-name="d" unicode="d" horiz-adv-x="800" 
d="M494 570q-7 66 -37 95t-67 36q-8 1 -17 1q-33 0 -81 -21q-60 -28 -108.5 -101.5t-63 -142.5t-16.5 -138v-13q0 -59 17 -90q18 -35 45 -49q9 -5 22 -5q24 0 59 16q54 24 116.5 102t81.5 144t49 166zM745 1536q21 38 50 38q5 0 12 -2q32 -8 32 -43v-9q-5 -44 -131.5 -573
t-153.5 -633q-23 -84 -23 -116q0 -7 2 -12q6 -24 25 -41t43 -17q23 0 65 27t95 119t72 108q15 12 25 12q2 0 4 -1q10 -4 21.5 -20t15.5 -32q2 -6 2 -13q0 -11 -4 -23q-6 -20 -72 -131.5t-124 -139t-102 -32.5q-8 -1 -15 -1q-37 0 -74 23q-45 27 -92 135q-49 -67 -91 -103
t-112 -43q-15 -2 -29 -2q-51 0 -85 21q-44 27 -68.5 80t-31.5 139q-2 24 -2 50q0 66 13 143q17 107 66 182.5t97 123.5t104 67q42 14 95 14q17 0 35 -1q74 -6 129 -117q181 778 207 823z" />
    <glyph glyph-name="e" unicode="e" horiz-adv-x="625" 
d="M86 299v-17q0 -80 18 -106q20 -29 65 -39q18 -4 42 -4q34 0 79 9q76 14 137.5 59t109 98.5t72.5 77.5q23 22 56 22h3q34 -1 41 -37q2 -9 2 -17q0 -27 -17 -51q-23 -33 -108.5 -115.5t-188.5 -127.5t-180 -47q-9 -1 -17 -1q-66 0 -113 18q-53 20 -87.5 77.5t-35.5 156.5v9
q0 94 19 189q20 100 75 193t116.5 126.5t95 41.5t80.5 9h6q44 0 83 -14q41 -16 62.5 -56.5t27.5 -80.5q1 -12 1 -26q0 -35 -9 -85q-14 -71 -94.5 -152t-340.5 -110zM282 454q55 18 85.5 47.5t44.5 63.5q10 26 10 48v11q-4 25 -23 48.5t-51 28.5h-14q-28 0 -63 -14
q-44 -18 -80 -57t-92 -201q128 7 183 25z" />
    <glyph glyph-name="f" unicode="f" horiz-adv-x="422" 
d="M17 358q143 739 206.5 884.5t126 218.5t112.5 97q44 21 72 21h6q29 -3 49.5 -11.5t40.5 -47.5q14 -28 14 -76q0 -20 -2 -44q-9 -81 -50 -190.5t-142 -293.5t-312 -538q82 -40 131 -40q8 0 15 1q52 7 95 55.5t63.5 65t45.5 19.5h6q19 0 26 -14q3 -7 3 -17q0 -14 -6 -34
q-11 -34 -22 -53.5t-66 -70.5t-110 -69q-21 -8 -54 -8q-52 0 -132 18q23 -179 32 -283t11 -230v-14q0 -118 -24 -224q-26 -112 -83 -158q-48 -40 -91 -40q-8 0 -15 2q-50 8 -86 55q-31 41 -31 147q0 17 1 35q5 134 170 837zM62 68q-107 -521 -107 -589q0 -6 1 -8
q9 -33 27 -39q3 -2 7 -2q14 0 27 20q17 24 29.5 66.5t19.5 128.5q2 34 2 107q0 112 -6 316zM490 1254q40 106 40 143q0 12 -3 17q-12 14 -29 14q-8 0 -18 -3q-30 -10 -99 -147t-199 -606q255 442 308 582z" />
    <glyph glyph-name="g" unicode="g" horiz-adv-x="745" 
d="M496 570q-7 66 -37 95t-67 36q-8 1 -17 1q-33 0 -81 -21q-60 -28 -108.5 -101.5t-63 -142.5t-16.5 -138v-13q0 -59 17 -90q18 -35 45 -49q9 -5 22 -5q24 0 59 16q54 24 116.5 102t81.5 144t49 166zM591 818q10 3 21 3t22 -3q21 -6 23 -45v-2q0 -44 -61 -275
q-62 -235 -62 -249h1q0 -13 4 -16q0 -1 1 -1q7 0 70 54q66 56 96 84t53 29h3q20 0 28 -11q9 -13 11 -31q1 -5 1 -10q0 -12 -4 -22q-5 -15 -22.5 -33.5t-275.5 -249.5q-72 -408 -131.5 -598.5t-104 -277t-98.5 -143t-122 -88.5q-55 -27 -108 -27q-13 0 -25 2q-65 8 -103.5 39
t-53.5 84q-13 44 -13 100v23q3 69 34.5 146t95.5 177.5t494 575.5l7 59q-109 -103 -168 -105h-9q-54 0 -92 23q-42 24 -69.5 79.5t-29.5 141.5q-1 15 -1 31q0 74 10 161q11 106 63.5 182t97 121t105.5 69q44 17 93 17q19 0 39 -2q71 -10 128 -120q30 102 52 108zM352 -126
q-457 -504 -484 -663q-9 -49 -9 -85q0 -81 44 -95q21 -7 43 -7q43 0 90 27q69 41 128.5 158.5t187.5 664.5z" />
    <glyph glyph-name="h" unicode="h" horiz-adv-x="823" 
d="M265 945q240 284 260 463v4q-2 23 -27 26h-6q-106 0 -227 -493zM95 759q-88 -19 -139 -30t-63.5 3.5t-13.5 38t34.5 36t56 21t148.5 48.5q180 532 209 582t63 76t88 35q23 4 43 4q26 0 46 -6q36 -12 56 -39t21 -80v-5q0 -52 -25 -141q-27 -92 -86.5 -182t-141.5 -175
t-180 -169l-37 -154q152 161 205.5 177t95.5 16t76 -22.5t46 -91.5q1 -11 1 -24q0 -72 -51 -218q-56 -160 -56 -218v-9q5 -54 22.5 -79.5t56.5 -26.5h1q38 0 90 44q52 45 86.5 106t52 84.5t40.5 31.5q11 4 21 4q11 0 21 -4q19 -8 25 -35q1 -6 1 -13q0 -22 -15 -48
q-20 -34 -94.5 -129.5t-141.5 -133.5q-57 -33 -109 -33q-10 0 -19 1q-61 7 -92.5 37.5t-45.5 77t-15 110.5v3q0 64 45 205q45 143 56 176q5 18 5 33q0 13 -4 24q-9 24 -47 27h-6q-36 0 -82 -31q-50 -35 -199 -199q-108 -412 -116 -438.5t-40 -26.5q-33 0 -45 16q-9 12 -9 34
q0 6 1 14q3 31 160 696z" />
    <glyph glyph-name="i" unicode="i" horiz-adv-x="398" 
d="M27 404q19 66 49 166l44 143q26 96 49 105q13 4 26 4q9 0 19 -2q21 -7 22 -45v-1q0 -40 -49 -222q-49 -184 -64 -263q-10 -55 -10 -83q0 -13 2 -20q6 -24 25 -41t43 -17q23 0 65 27t95 119t72 107.5t37 15.5t28 -17q7 -15 7 -30v-6q-2 -19 -8 -39t-72 -131.5t-124 -139
t-102 -32.5q-8 -1 -15 -1q-37 0 -74 23q-45 27 -68 81q-21 46 -21 118q0 12 1 26q4 89 23 155zM366 1264q30 -30 30 -72q0 -43 -30 -72.5t-72 -29.5t-72 29.5t-30 72.5q0 42 30 72t72 30t72 -30z" />
    <glyph glyph-name="j" unicode="j" horiz-adv-x="596" 
d="M614 1192q0 -43 -30 -72.5t-72 -29.5t-72 29.5t-30 72.5q0 42 30 72t72 30t72 -30t30 -72zM220 -126q-457 -504 -484 -663q-9 -49 -9 -85q0 -81 44 -95q21 -7 43 -7q43 0 90 27q69 41 128.5 158.5t187.5 664.5zM526 773v-1q0 -42 -136 -561q206 172 226 183q13 8 26 8
q6 0 13 -2q19 -5 23 -24q1 -5 1 -10q0 -17 -9 -38q-13 -29 -306 -290q-72 -408 -129 -599t-102 -275.5t-98 -139.5t-125 -89q-58 -27 -109 -27q-12 0 -24 2q-60 8 -98 36.5t-55 82.5q-14 46 -14 103v21q3 69 34.5 146.5t93.5 178.5t493 574l131 518q-127 -108 -197.5 -167
t-94.5 -77q-23 -16 -44 -16h-4q-24 2 -33 17.5t-9 30.5t10.5 34t491.5 433q43 -14 44 -52z" />
    <glyph glyph-name="k" unicode="k" horiz-adv-x="748" 
d="M167 910q285 261 334 512q0 67 -31 68h-2q-120 0 -301 -580zM115 487h15q45 -3 86 -3q270 0 279 136v16q-2 76 -98 101h-15q-247 -70 -267 -250zM90 372q-61 -293 -82 -325.5t-50 -38.5q-16 -4 -27 -4q-9 0 -15 3q-13 5 -16 24v1q0 32 81 438q84 421 151 643t121.5 318.5
t99.5 131t98 41.5q12 1 25 1q39 0 74 -15q47 -20 62 -70q8 -29 8 -67q0 -28 -4 -61q-11 -78 -83 -211t-150.5 -195.5t-235.5 -228.5q119 59 174.5 78t105.5 21h10q44 0 83 -16q43 -18 62 -60t29 -96q4 -28 4 -55q0 -28 -4 -55q-10 -56 -52 -108t-96.5 -67t-150.5 -34
q-6 -159 36.5 -202t91 -41.5t116.5 53t120.5 119t62.5 88.5t29 28q12 4 27 4q8 0 17 -1q25 -4 31 -25q3 -13 3 -28q0 -10 -1 -20q-4 -28 -79 -123.5t-152.5 -153.5t-135.5 -65q-24 -3 -45 -3q-33 0 -60 7q-47 10 -98 57t-70.5 142t-9.5 158z" />
    <glyph glyph-name="l" unicode="l" horiz-adv-x="550" 
d="M217 805q233 226 289 442q27 102 27 150q0 43 -22 43h-11h-7q-105 -2 -276 -635zM70 736q179 597 233.5 684.5t88.5 113.5t88 35q23 4 43 4q26 0 46 -6q36 -12 56 -39t21 -80v-6q0 -54 -16 -149q-17 -102 -66.5 -212t-143.5 -232t-254 -220q-73 -322 -73 -389v-8
q5 -54 22.5 -79.5t56.5 -26.5h1q39 0 117 39q80 39 137 105.5t74.5 90t40.5 31.5q11 4 21 4q11 0 21 -4q19 -8 25 -35q1 -6 1 -13q0 -22 -15 -48q-20 -34 -100.5 -124t-191.5 -134q-96 -38 -154 -38q-10 0 -18 1q-61 7 -92.5 37.5t-45.5 77t-15 110.5v1q0 68 92 509z" />
    <glyph glyph-name="m" unicode="m" horiz-adv-x="1221" 
d="M356 786q66 32 120 32h10q57 -3 90 -42q23 -29 23 -91q0 -23 -3 -50q91 115 164.5 148.5t118.5 34.5h2q43 0 80 -28q38 -30 42 -111v-11q0 -81 -50 -239q-49 -155 -49 -205v-8q5 -45 23 -67.5t55 -27.5h7q34 0 81 41q51 45 86 96.5t49.5 91t32.5 47.5q8 4 17 4
q11 0 25 -6q23 -10 25 -43v-4q0 -34 -33 -99q-36 -70 -82.5 -122.5t-109.5 -93.5q-53 -35 -105 -35q-11 0 -22 2q-64 9 -100.5 39.5t-48.5 71.5q-10 33 -10 82q0 12 1 25q3 66 45 210.5t52 178.5q5 19 5 35q0 13 -3 24q-8 24 -49 27h-7q-38 0 -81 -30q-48 -34 -196 -197
q-97 -407 -108 -433t-43 -31q-9 -1 -16 -1q-19 0 -28 9q-13 13 -14 46q0 36 75 310q70 254 70 297q0 4 -1 7q-7 26 -44 29h-7q-36 0 -91 -31q-61 -35 -191 -207q-99 -409 -108 -433.5t-42 -28.5q-7 -1 -13 -1q-24 0 -38 13q-14 12 -14 35q0 8 1 17q6 35 80 365t92 361
q17 28 51 28h5q37 -2 43 -40q1 -6 1 -14q0 -43 -29 -144q91 131 164 167z" />
    <glyph glyph-name="n" unicode="n" horiz-adv-x="791" 
d="M133.5 787.5q14.5 27.5 50.5 28.5h1q35 0 38 -37v-7q0 -40 -29 -150q152 161 205.5 177t95.5 16t76 -22.5t46 -91.5q1 -11 1 -24q0 -72 -51 -218q-56 -160 -56 -218v-9q5 -54 22.5 -79.5t56.5 -26.5h1q38 0 90 44q52 45 81.5 106t42 84.5t35.5 31.5q11 4 21 4q11 0 21 -4
q19 -8 25 -35q1 -4 1 -10q0 -28 -26 -86q-32 -69 -85 -129.5t-120 -98.5q-57 -33 -109 -33q-10 0 -19 1q-61 7 -92.5 37.5t-45.5 77t-15 110.5v3q0 64 45 205q45 143 56 176q5 18 5 33q0 13 -4 24q-9 24 -47 27h-6q-36 0 -82 -31q-50 -35 -199 -199q-108 -412 -116 -438.5
t-40 -26.5q-33 0 -45 16q-9 12 -9 34q0 6 1 14q3 31 83.5 364t95 360.5z" />
    <glyph glyph-name="o" unicode="o" horiz-adv-x="707" 
d="M454 690q-13 -15 -16 -42v-3q0 -24 39 -24q0 -1 1 -1q40 0 42 25q-12 44 -66 45zM283 -1q-103 0 -160 29t-88.5 87.5t-36.5 146.5q-2 30 -2 57q0 52 7 94q9 64 36.5 136.5t107 148.5t127.5 100q38 18 62 18q6 0 11 -1q24 -6 25 -42q67 35 98 39q14 2 27 2q16 0 30 -2
q27 -5 56.5 -38.5t60.5 -127.5q67 37 108.5 82.5t58.5 51.5q9 3 18 3q7 0 15 -2q16 -5 22 -20t6 -34t-44.5 -69.5t-170.5 -127.5q-15 -148 -34 -226t-57.5 -139t-109.5 -113.5t-173 -52.5zM336 705q-107 -33 -158.5 -132.5t-60.5 -189.5q-5 -40 -5 -73q0 -42 7 -72
q12 -56 65 -95q39 -30 89 -30q16 0 34 3q70 13 131.5 73.5t82.5 162.5q16 82 16 135q0 13 -1 24q-19 -1 -37 -1q-77 0 -111 12q-41 13 -53.5 44.5t-13.5 62.5v4q0 30 15 72z" />
    <glyph glyph-name="p" unicode="p" horiz-adv-x="735" 
d="M125 833q17 5 31 5q20 0 31 -10q8 -9 8 -31q0 -27 -12 -73q99 96 180 105q20 2 39 2q56 0 99 -19q57 -25 87 -110q17 -48 17 -122q0 -56 -10 -128q-23 -165 -97 -270q132 71 177 149q41 70 73 70h7q33 -9 33 -44v-4q-2 -40 -80.5 -144t-189 -152t-239.5 -51q-4 -1 -8 -1
q-125 0 -228 100q-157 -748 -183 -777q-20 -23 -42 -23q-6 0 -13 2q-29 9 -30 44q-1 0 -1 1q0 41 153 751q154 717 198 730zM454 343q31 141 36 210q1 16 1 29q0 49 -12 79q-16 39 -60 47q-17 3 -35 3q-29 0 -60 -8q-50 -13 -111 -60.5t-100 -209.5q-26 -104 -26 -159
q0 -32 9 -47q22 -44 58.5 -62.5t89.5 -25.5q9 -2 19 -2q45 0 97 30q63 35 94 176z" />
    <glyph glyph-name="q" unicode="q" horiz-adv-x="797" 
d="M441 -3q-105 -381 -105 -494q0 -8 1 -14q0 -2 2 -4q6 -58 30 -58q15 0 38 24q40 43 40 306q0 103 -6 240zM467 570q-7 66 -37 95t-67 36q-8 1 -17 1q-33 0 -81 -21q-60 -28 -108.5 -101.5t-63 -142.5t-16.5 -138v-13q0 -59 17 -90q18 -35 45 -49q9 -5 22 -5q24 0 59 16
q54 24 116.5 102t81.5 144t49 166zM267 33q-44 -19 -99 -19q-5 0 -9 1q-61 1 -110 46.5t-67 132.5q-11 51 -11 111q0 42 6 89q12 114 61 218.5t137.5 162.5t141.5 60h21q38 0 65 -5q34 -8 110 -116q29 97 47 110q10 8 23 8q10 0 21 -4q25 -10 31 -38v-5q0 -42 -73 -293
q-67 -231 -67 -292q0 -11 2 -16q13 -38 47 -47q12 -3 25 -3q24 0 51 11q41 16 80.5 70.5t72.5 115.5q30 55 56 55q3 0 6 -1q29 -7 36 -32q4 -15 4 -28q0 -11 -2 -21q-6 -24 -45.5 -100t-103 -139t-189.5 -63q20 -220 20 -329v-42q-6 -103 -24 -171.5t-45 -112t-94 -59.5
q-19 -5 -37 -5q-43 0 -73 29q-44 39 -53 86q-6 29 -6 74q0 27 3 60q5 87 143 582q-55 -62 -102 -81z" />
    <glyph glyph-name="r" unicode="r" horiz-adv-x="722" 
d="M553 732q1 -3 1 -6q0 -34 -56 -202q-62 -188 -73 -252q-6 -28 -6 -52q0 -30 9 -52q14 -41 50 -49q7 -2 15 -2q33 0 82 28q60 35 98.5 126t50 104t33.5 21q8 3 17 3q11 0 20 -6q16 -11 18 -39v-3q0 -30 -30 -110q-31 -84 -87 -144.5t-143 -87.5q-28 -10 -56 -10
q-57 0 -110 39q-80 56 -84 148v6q0 98 120 473l-165 35q-116 -288 -139.5 -332.5t-37.5 -50.5q-8 -3 -19 -3q-8 0 -18 2q-24 4 -34 24q-6 11 -6 22q0 9 4 17q7 19 21.5 49t85.5 210t84 183h2q25 0 314 -58q32 -11 39 -31z" />
    <glyph glyph-name="s" unicode="s" horiz-adv-x="663" 
d="M316 838q16 10 33 10q8 0 16 -1q25 -7 32 -34v-7q0 -29 -45 -100l75 -134q105 -216 105 -331q0 -25 -5 -45q91 103 117 156q25 51 54 51h2q30 -2 42 -29q5 -13 5 -27q0 -15 -6 -30q-12 -31 -45 -88t-120 -139.5t-203 -94.5q-24 -3 -46 -3q-83 0 -132 37q-62 45 -70 91
q-3 14 -3 26q0 26 13 40q13 15 34 15q6 0 14 -1q31 -7 43 -41t29.5 -43.5t46.5 -13.5q4 -1 8 -1q27 0 70 22q45 22 45 110v18q-5 104 -136 341q-165 -234 -193 -266q-22 -25 -45 -25q-7 0 -13 3q-31 9 -35 47q-1 3 -1 5q0 38 57 109q60 76 146.5 217t110.5 156z" />
    <glyph glyph-name="t" unicode="t" horiz-adv-x="521" 
d="M501 990l-230 -2q-180 -638 -181 -741v-4q0 -98 63 -111q16 -4 35 -4q49 0 107 28q77 36 136.5 110t75 99t46.5 37q11 4 21 4q17 0 30 -13q15 -17 15 -38v-8q-4 -26 -22.5 -59.5t-76 -105.5t-152.5 -131q-90 -54 -178 -54q-7 0 -13 1q-95 4 -134.5 36t-53.5 81.5
t-17 112.5v8q0 68 47 279q50 223 132 473q-511 0 -528 9.5t-20 39.5q-1 5 -1 9q0 24 19 40q18 15 519 15q23 0 49 -1q131 440 151 459t54 19q35 0 46 -16v-4q0 -38 -135 -454h209q74 0 97 -11.5t24 -41.5v-2q0 -29 -23 -45q-20 -14 -85 -14h-26z" />
    <glyph glyph-name="u" unicode="u" 
d="M421 379q102 334 114 381t37 58q15 6 28 6q8 0 16 -2q19 -7 21 -45v-4q0 -42 -47 -217q-49 -183 -65 -265q-12 -56 -12 -86q0 -15 3 -23q8 -27 27 -41t41 -15h1q22 0 63 26q42 26 92.5 118t75 111.5t40.5 21.5h3q14 0 26 -19q8 -16 8 -35q0 -7 -1 -15q-5 -29 -66 -133
t-122 -151.5t-114 -54.5q-11 -1 -21 -1q-44 0 -89 24q-57 30 -72 160q-68 -113 -125 -145t-104 -36h-10q-42 0 -84 29q-47 33 -66 86q-16 45 -16 115v24q3 86 19.5 152t34.5 118.5t38 118.5t37 119.5t40 59.5q10 2 20 2q12 0 24 -3q21 -7 21 -44q0 -38 -52.5 -219.5
t-67.5 -265.5q-9 -51 -9 -80q0 -20 4 -29q10 -25 31 -41q17 -13 36 -13q5 0 10 1q25 4 62 25.5t170 226.5z" />
    <glyph glyph-name="v" unicode="v" horiz-adv-x="776" 
d="M98 223q-11 -44 -11 -68q0 -20 8 -27q4 -4 11 -4q23 0 79 35q74 47 234 240q-15 72 -16 144q-1 5 -1 10q0 65 18 113q18 52 46 92t64 46q14 2 27 2q19 0 35 -5q26 -8 55 -47q24 -34 24 -106q0 -12 -1 -26q-5 -92 -121 -270q13 -33 38 -48q16 -9 31 -9q9 0 18 3
q23 9 54.5 37t56.5 69t45 74q18 28 40 28h6q25 -4 33 -30q3 -10 3 -22q0 -17 -7 -38q-13 -34 -69.5 -118.5t-116.5 -104.5q-44 -15 -83 -15q-15 0 -28 3q-51 7 -110 76q-100 -123 -157.5 -167.5t-112.5 -70.5t-87 -28h-10q-28 0 -57 11q-35 12 -55 63q-18 43 -18 97
q0 10 1 21q4 67 64.5 297.5t82.5 272.5t42 51q17 7 32 7h5q17 -2 31 -15q9 -9 9 -36q0 -10 -1 -24q-6 -47 -131 -513zM514 509q44 83 44 110v5q-6 23 -20 23q-15 0 -25 -35q-5 -17 -5 -41q0 -27 6 -62z" />
    <glyph glyph-name="w" unicode="w" horiz-adv-x="1052" 
d="M419 373q105 336 117.5 386t39.5 60q15 6 27 6q9 0 16 -3q16 -7 18 -46v-2q0 -42 -49 -219q-50 -182 -64 -266q-9 -50 -9 -79q0 -21 5 -32q10 -26 26.5 -42t39.5 -16t62 28t89 121t96 309t64 233q16 14 36 14h6q24 -3 32 -17q6 -11 6 -29v-19q0 -21 7 -41q9 -25 25.5 -42
t42 -30t45.5 -19t27 -28q2 -7 2 -15q0 -15 -9 -32q-13 -25 -37 -25q-2 -1 -3 -1q-23 0 -52 7q-31 7 -80 55q-59 -286 -119.5 -389.5t-124 -151t-115.5 -54.5q-10 -1 -20 -1q-43 0 -89 25q-56 30 -70 162q-72 -121 -125.5 -150t-101.5 -33q-6 -1 -12 -1q-42 0 -85 29
q-50 32 -65 87q-15 52 -15 132v10q1 87 32.5 204.5t51 180t38 119.5t39.5 61q9 2 19 2q11 0 22 -3q20 -5 21 -44v-2q0 -42 -49 -221q-51 -184 -64 -265q-7 -44 -7 -71q0 -25 6 -36q11 -26 37 -43q20 -14 38 -14q4 0 9 1q21 4 55.5 27.5t167.5 222.5z" />
    <glyph glyph-name="x" unicode="x" horiz-adv-x="904" 
d="M639.5 701q49.5 64 114 84.5t87.5 20.5q22 0 42.5 -5.5t29.5 -19.5t11 -32v-4q0 -16 -16 -32q-18 -18 -36 -18t-56.5 -7.5t-69 -32.5t-78.5 -83.5t-84 -141t-39 -107.5q-1 -7 -1 -17q0 -24 6 -66q9 -59 21 -83.5t40 -30.5q13 -3 33 -3q19 0 45 3q50 6 98.5 42t80 116
t47.5 90q10 6 23 6q8 0 17 -1q25 -6 32 -34q2 -10 2 -22q0 -25 -8 -60q-14 -55 -65 -122.5t-120.5 -104.5t-142.5 -42q-10 -1 -19 -1q-62 0 -110 33q-56 38 -89 198q-56 -103 -98 -146t-90.5 -63.5t-99.5 -22.5q-5 -1 -10 -1q-44 0 -67 24q-20 20 -20 42q0 6 1 11
q6 28 35 41.5t61 13.5q31 0 58 10t61 38.5t84.5 96t64.5 137.5q4 26 4 52q0 45 -14 92q-24 74 -53 100q-22 19 -47 19q-8 0 -17 -2q-34 -9 -55.5 -40.5t-43.5 -72t-48 -44.5q-6 -2 -12 -2q-19 0 -33 12q-19 14 -20 46q-1 1 -1 3q0 31 24 83q25 55 86 102.5t106 58.5
q10 2 21 2q40 0 101 -30q76 -39 117 -273q60 126 109.5 190z" />
    <glyph glyph-name="y" unicode="y" horiz-adv-x="717" 
d="M341 -126q-457 -504 -484 -663q-9 -49 -9 -85q0 -81 44 -95q21 -7 43 -7q43 0 90 27q69 41 128.5 158.5t187.5 664.5zM368 113q-31 -51 -86 -83.5t-102 -33.5q-2 -1 -4 -1q-45 0 -91 31q-48 31 -67 85q-15 41 -15 103q0 19 1 40q6 89 21 150t35 117t37.5 121.5t35 117
t41.5 59.5q11 4 23 4t23 -4q21 -7 21 -41v-5q-2 -39 -55 -218t-69 -264q-9 -48 -9 -77q0 -23 6 -35q13 -26 35 -43q17 -14 35 -14q5 0 10 1q23 5 61 28t103.5 123.5t117 268t61 217t37.5 57.5q13 4 25 4q14 0 27 -4q21 -8 21 -40v-8q-3 -40 -135 -550q207 166 227 176
q14 6 29 6h12q21 -4 24 -25v-7q0 -19 -13 -44q-16 -31 -307 -286q-74 -410 -130.5 -601t-100 -274t-98 -140t-125.5 -91q-58 -28 -109 -28q-12 0 -24 2q-61 8 -98.5 39.5t-53.5 84.5q-14 43 -14 97q0 13 1 27q4 71 35.5 147t93.5 178t492 573z" />
    <glyph glyph-name="z" unicode="z" horiz-adv-x="814" 
d="M603 772.5q59 -52.5 74 -108.5q13 -50 13 -109v-15q-2 -68 -22 -140t-93 -181l30 -121q40 28 100 90.5t79 114t34 69t33 20.5h6q14 0 26 -10q13 -12 17 -43q1 -6 1 -11q0 -28 -17 -64q-21 -43 -59.5 -100.5t-209.5 -208.5q1 -38 1 -71q0 -79 -8 -132q-12 -76 -41 -176.5
t-67 -176.5t-94 -112q-51 -33 -105 -33q-7 0 -13 1q-62 4 -101.5 45t-52.5 97q-7 28 -7 66q0 36 6 79q12 90 82.5 219.5t285.5 301.5l-20 107q-56 -22 -105 -26q-16 -2 -31 -2q-34 0 -66 7q-47 10 -70.5 34t-26.5 63q-1 6 -1 13q0 31 13 62q14 37 72 61q50 20 98 20h12
q53 -3 141 -64q30 67 36.5 120t8.5 105v10q0 44 -15 71q-17 30 -53 46t-78 18h-11q-36 0 -68 -10q-37 -11 -83 -46t-89 -115.5t-54.5 -136t-24 -74t-34.5 -20.5h-9q-17 0 -31 6q-18 7 -20 34v5q0 28 17 96q19 74 69.5 166t127.5 155q73 60 195 60h12q131 -3 190 -55.5z
M292 -316.5q-44 -86.5 -55 -158.5q-4 -28 -4 -52q0 -36 11 -60q17 -39 48 -46q7 -2 14 -2q25 0 54 20q36 25 93 178q54 147 54 353v15q-171 -161 -215 -247.5zM435 278q-40 29 -76 29q-10 0 -20 -3q-43 -10 -43 -29q0 -1 1 -2q2 -20 43 -20q1 -1 2 -1q40 0 93 26z" />
    <glyph glyph-name="braceleft" unicode="{" 
d="M426 518v-14q0 -129 -44 -305q-47 -187 -70 -298q-14 -63 -14 -108q0 -34 8 -58q18 -55 64.5 -72t114 -25t95 -16.5t28.5 -39.5v-3q0 -29 -20 -52q-21 -24 -84 -24q-64 0 -155.5 20t-132.5 118q-35 81 -35 151q0 15 2 29q8 81 64 332q52 234 52 312v10q-4 71 -32.5 132
t-52 70.5t-48.5 11.5t-43 19q-17 16 -17 38v3q1 23 25 39.5t62 17.5t89 35t83.5 89t77 290t75 345t70.5 193.5t113 116t162 40.5q39 3 64 3q33 0 44 -5q20 -10 28 -40q1 -8 1 -15q0 -22 -18 -40q-22 -23 -55 -23h-14q-33 0 -80 -13q-53 -16 -91 -53t-65.5 -103.5t-88.5 -358
t-86.5 -368.5t-147.5 -178q69 -71 72 -203z" />
    <glyph glyph-name="bar" unicode="|" horiz-adv-x="645" 
d="M261 -404q-31 0 -59 20q-25 18 -25 46q0 4 1 8q3 33 226.5 1079.5t240.5 1105.5q14 51 56 51q6 0 13 -1q53 -9 60 -58v-4q0 -78 -218 -1109q-225 -1063 -244.5 -1100.5t-50.5 -37.5z" />
    <glyph glyph-name="braceright" unicode="}" 
d="M581 904q-1 6 -1 13q0 129 45 306q46 186 70 297q13 63 13 108q0 34 -8 58q-18 55 -64.5 72t-114 25t-95 16.5t-28.5 39.5v3q0 29 20 52q21 24 85 24q63 0 154.5 -20t133.5 -118q34 -81 34 -151q0 -15 -1 -28q-9 -82 -65 -333q-52 -234 -52 -312v-10q4 -71 32.5 -132
t52 -70.5t48.5 -11.5t43 -19q17 -16 17 -38v-2q-1 -24 -25 -40.5t-62 -17.5t-89 -35t-83.5 -89t-77 -290t-75 -345t-70.5 -193.5t-113 -116t-161 -39.5q-40 -4 -65 -4q-33 0 -44 6q-20 9 -27 40q-2 7 -2 14q0 22 18 41q22 22 55 22h14q33 0 80 14q53 15 91 52t65.5 103.5
t88.5 358t86.5 368.5t147.5 178q-69 71 -71 204z" />
    <glyph glyph-name="uni00A0" unicode="&#xa0;" horiz-adv-x="359" 
 />
    <glyph glyph-name="exclamdown" unicode="&#xa1;" horiz-adv-x="411" 
d="M180 641q-30 30 -30 72q0 43 30 72.5t72 29.5t72 -29.5t30 -72.5q0 -42 -30 -72t-72 -30t-72 30zM242 366q-170 -1016 -191 -1065.5t-63 -62.5q-13 -4 -26 -4q-24 0 -43 17q-27 25 -27 68q0 44 131.5 587t153.5 555q14 8 27 8q10 0 19 -4q23 -8 29 -31q2 -6 2 -14
q0 -21 -12 -54z" />
    <glyph glyph-name="sterling" unicode="&#xa3;" horiz-adv-x="1647" 
d="M1599 1106q-19 14 -19 44q0 17 5 37q15 60 19 134v15q0 62 -27 90q-31 30 -77 32h-9q-40 0 -74 -13q-37 -15 -76.5 -49t-69.5 -99.5t-127 -427.5h172q93 0 122 -15q26 -15 26 -42v-5q-3 -32 -33.5 -43.5t-124.5 -11.5l-193 2l-157 -506q67 -43 122.5 -65.5t104 -37
t97.5 -22.5q29 -5 63 -5q23 0 49 3q63 5 99.5 24.5t79.5 51.5t58.5 41.5t30.5 9.5t25 -14q7 -12 7 -32v-11q-3 -28 -36 -64.5t-97 -72.5t-130 -47q-50 -8 -110 -8q-19 0 -39 1q-84 3 -150 24.5t-249 130.5q-44 -63 -120.5 -108t-235.5 -50h-26q-139 0 -192 50q-58 55 -67 99
q-6 25 -6 53q0 20 3 43q7 52 40.5 101t102 74.5t145.5 26.5h10q71 0 129 -14q61 -15 188 -107l140 433q-37 -1 -67 -1q-92 0 -112 12q-26 14 -26 45q0 2 1 4q1 33 33.5 46.5t201.5 14.5q96 372 136 455t95.5 139t122.5 83q65 26 124 26h4q61 -1 105.5 -31t69.5 -70t30 -112
q1 -22 1 -43q0 -52 -8 -104q-12 -74 -43 -105q-19 -18 -37 -18q-12 0 -24 9zM768 218q-74 48 -116 71t-79 31q-14 2 -30 2q-29 0 -69 -9q-61 -14 -81 -48q-13 -21 -13 -44q0 -15 6 -32q14 -41 89 -56q30 -6 61 -6q44 0 90 13q76 21 142 78z" />
    <glyph glyph-name="brokenbar" unicode="&#xa6;" horiz-adv-x="645" 
d="M262 46q109 473 135.5 516t53.5 43t35 -27q6 -21 6 -50v-19q-3 -43 -84 -440.5t-105.5 -438t-61.5 -40.5q-38 0 -56 25q-3 3 -3 17q0 73 80 414zM699 1448q-99 -463 -125.5 -506t-53.5 -43t-35 27q-6 21 -6 50q0 9 1 20q2 42 78 434.5t100.5 433t62.5 40.5q37 0 56 -24
q2 -4 2 -18q0 -73 -80 -414z" />
    <glyph glyph-name="dieresis" unicode="&#xa8;" horiz-adv-x="998" 
d="M514 1537.5q30 -30.5 30 -72.5q0 -43 -30 -73t-73 -30t-73 30t-30 73q0 42 30 72.5t73 30.5t73 -30.5zM914 1537.5q30 -30.5 30 -72.5q0 -43 -30 -73t-73 -30t-73 30t-30 73q0 42 30 72.5t73 30.5t73 -30.5z" />
    <glyph glyph-name="guillemotleft" unicode="&#xab;" horiz-adv-x="1042" 
d="M121 774q-10 20 -10 38v6q2 19 24.5 42.5t203.5 162t211 160.5q25 19 49 19h6q26 -3 37 -13t12 -31v-3q0 -19 -13 -39q-14 -22 -201 -165t-187 -150t97 -156.5t101 -173.5q1 -7 1 -14q0 -16 -6 -29q-9 -20 -30 -27q-9 -4 -18 -4q-14 0 -28 7q-26 10 -131.5 177.5
t-117.5 192.5zM557 774q-10 20 -10 38v6q2 19 24.5 42.5t203.5 162t211 160.5q25 19 49 19h6q26 -3 37 -13t12 -31v-3q0 -19 -13 -39q-14 -22 -201 -165t-187 -150t97 -156.5t101 -173.5q1 -7 1 -14q0 -16 -6 -29q-9 -20 -30 -27q-9 -4 -18 -4q-14 0 -28 7
q-26 10 -131.5 177.5t-117.5 192.5z" />
    <glyph glyph-name="degree" unicode="&#xb0;" horiz-adv-x="973" 
d="M864.5 1477.5q114.5 -114.5 114.5 -276.5t-114.5 -276.5t-276.5 -114.5t-276.5 114.5t-114.5 276.5t114.5 276.5t276.5 114.5t276.5 -114.5zM764.5 1018.5q71.5 71.5 71.5 172.5q0 102 -71.5 173.5t-173.5 71.5q-101 0 -173 -71.5t-72 -173.5q0 -101 72 -172.5t173 -71.5
q102 0 173.5 71.5z" />
    <glyph glyph-name="plusminus" unicode="&#xb1;" horiz-adv-x="890" 
d="M564 830q66 313 80.5 330t25.5 23q10 5 28 5h3q20 -1 32 -15q11 -13 11 -35v-5q-2 -26 -58 -309h211q72 -6 73 -52v-4q0 -44 -25 -57q-25 -14 -93 -14h-9l-191 1q-76 -350 -97 -362.5t-42 -14.5q-4 -1 -8 -1q-17 0 -29 11q-16 12 -16 42h-1q0 32 72 331q-71 -2 -122 -2
q-101 0 -121 7q-30 10 -34 39q-1 6 -1 11q0 22 12 38q14 21 37 28q17 5 166 5h96zM118 9q-30 10 -34 39q-1 6 -1 11q0 22 12 38q14 21 37 28q10 3 140 3q149 0 455 -4q72 -6 73 -52v-4q0 -44 -25 -57q-25 -14 -93 -14h-9q-525 2 -555 12z" />
    <glyph glyph-name="acute" unicode="&#xb4;" horiz-adv-x="492" 
d="M285 1300q227 259 248.5 273t38.5 17h11q12 0 24 -3q17 -5 33 -25q10 -13 10 -29q0 -8 -3 -17q-8 -26 -160 -147.5t-173 -130.5q-11 -5 -20 -5t-16 5q-13 7 -13 21v4q2 16 20 37z" />
    <glyph glyph-name="mu" unicode="&#xb5;" 
d="M237 779v-1q0 -42 -72 -292q-70 -241 -70 -293v-5q4 -45 47 -60q18 -7 39 -7q28 0 61 12q58 19 180 239q102 376 121 414.5t40 44.5q7 1 13 1q13 0 24 -8q15 -12 20 -46v-6q0 -44 -61 -270q-66 -241 -66 -285q0 -45 23 -70q20 -24 40 -24q2 0 4 1q22 2 66.5 30.5
t96.5 124t76 113.5q18 14 33 14q5 0 10 -1q20 -6 31 -31q1 -4 1 -9q0 -34 -64 -148q-75 -131 -130.5 -173.5t-110.5 -48.5q-14 -2 -28 -2q-41 0 -80 15q-52 20 -81 143q-67 -105 -114.5 -128.5t-113.5 -28.5q-7 -1 -14 -1q-58 0 -102 44q-178 -654 -189 -684t-37 -41
q-18 -8 -34 -8q-7 0 -13 2q-21 4 -26 22q-4 11 -4 24q0 9 2 19q3 24 184 695t194.5 713t57.5 44q45 -4 46 -44z" />
    <glyph glyph-name="paragraph" unicode="&#xb6;" horiz-adv-x="1103" 
d="M517 119q12 -1 24 -1q65 0 116 26q60 31 103 103.5t88 322.5q-11 -1 -22 -1q-38 0 -74 9q-46 10 -128 72.5t-114 155.5q-30 84 -30 157v14q3 79 30 152.5t114 174.5t193.5 174.5t199.5 94.5q79 17 111 17h10q28 -4 42 -18q12 -12 12 -27v-5q-3 -19 -6 -39.5t-136.5 -599
t-165.5 -660t-89 -140.5t-136 -89q-70 -27 -135 -27q-9 0 -19 1q-74 4 -142.5 34t-103.5 81.5t-41 143.5q-2 20 -2 38q0 68 19 120q24 66 72.5 98t118.5 35h17q57 0 91 -17q38 -20 51 -40q9 -14 9 -31q0 -7 -1 -14q-6 -26 -31 -37q-13 -6 -27 -6q-13 0 -28 6q-27 9 -64 9h-7
q-41 -1 -71 -48.5t-33 -82.5q-1 -7 -1 -13q0 -30 13 -62q16 -40 54.5 -58t118.5 -23z" />
    <glyph glyph-name="periodcentered" unicode="&#xb7;" horiz-adv-x="359" 
d="M440.094 851.396q25.499 -25.5 25.499 -61.1992q0 -36.5488 -25.499 -61.623q-25.5 -25.0742 -61.1982 -25.0742q-35.6992 0 -61.1982 25.0742q-25.5 25.0742 -25.5 61.623q0 35.6992 25.5 61.1992q25.499 25.499 61.1982 25.499q35.6982 0 61.1982 -25.499z" />
    <glyph glyph-name="periodcentered" unicode="&#x2219;" horiz-adv-x="359" 
d="M440.094 851.396q25.499 -25.5 25.499 -61.1992q0 -36.5488 -25.499 -61.623q-25.5 -25.0742 -61.1982 -25.0742q-35.6992 0 -61.1982 25.0742q-25.5 25.0742 -25.5 61.623q0 35.6992 25.5 61.1992q25.499 25.499 61.1982 25.499q35.6982 0 61.1982 -25.499z" />
    <glyph glyph-name="cedilla" unicode="&#xb8;" horiz-adv-x="678" 
d="M662 -210q20 -46 20 -105v-17q-4 -70 -19 -112t-63.5 -68t-107.5 -31q-13 -2 -25 -2q-44 0 -78 16q-44 19 -79.5 48.5t-44.5 49.5q-7 14 -7 26q0 6 2 11q4 17 12 27.5t25 17.5q7 3 16 3q8 0 18 -4q17 -7 48 -33t61 -35q20 -7 40 -7q9 0 19 2q28 4 51 20t33 36q8 17 8 46
v7q-1 33 -12.5 61.5t-35.5 50.5t-73 44.5t-60.5 30t-16.5 17.5q-3 5 -3 11t2 12q5 13 23 16q3 1 8 1q20 0 63 -11q52 -14 102 -45.5t74 -83.5z" />
    <glyph glyph-name="guillemotright" unicode="&#xbb;" horiz-adv-x="1029" 
d="M631 826q10 -21 10 -39v-5q-2 -20 -24.5 -43.5t-203.5 -162t-210 -160.5q-26 -19 -50 -19h-6q-26 3 -37 13t-12 31v3q0 19 13 40q14 21 201 164t187 150t-97 156.5t-101 173.5q-1 7 -1 14q0 16 6 30q9 19 30 27q9 3 18 3q14 0 29 -6q25 -11 130.5 -178.5t117.5 -191.5z
M1067 826q10 -21 10 -39v-5q-2 -20 -24.5 -43.5t-203.5 -162t-210 -160.5q-26 -19 -50 -19h-6q-26 3 -37 13t-12 31v3q0 19 13 40q14 21 201 164t187 150t-97 156.5t-101 173.5q-1 7 -1 14q0 16 6 30q9 19 30 27q9 3 18 3q14 0 29 -6q25 -11 130.5 -178.5t117.5 -191.5z" />
    <glyph glyph-name="questiondown" unicode="&#xbf;" 
d="M735 641q-30 30 -30 72q0 43 30 72.5t72 29.5t72 -29.5t30 -72.5q0 -42 -30 -72t-72 -30t-72 30zM636 83.5q-64 -95.5 -156 -179t-153 -130t-81 -97t-25 -121.5v-14q0 -62 37 -108q42 -50 110 -66q52 -11 94 -11q14 0 26 1q52 5 102.5 19.5t73.5 17.5q5 1 9 1
q19 0 36 -11q22 -13 23 -45q1 -1 1 -2q0 -31 -36 -56q-37 -25 -109 -37q-49 -8 -114 -8q-30 0 -63 1q-104 6 -160 34.5t-91.5 77.5t-51.5 129q-10 50 -10 99q0 29 3 58q10 77 48 131t127.5 130t174 160.5t149.5 197t82.5 146t44.5 53.5q11 9 21 9q16 0 31 -19q9 -9 9 -29
q0 -39 -36 -119q-52 -117 -116 -212.5z" />
    <glyph glyph-name="Agrave" unicode="&#xc0;" horiz-adv-x="1485" 
d="M1337.5 775.5q-144.5 -417.5 -151.5 -509.5q-1 -13 -1 -24q0 -73 39 -95q25 -16 50 -16q19 0 37 9q43 20 85.5 67.5t82 111.5t69.5 74q9 3 17 3q18 0 30 -14q13 -16 13 -41q0 -9 -1 -19q-7 -38 -67.5 -130t-150.5 -144q-88 -52 -161 -52q-2 0 -4 1q-74 1 -117 45.5
t-43 228.5q-125 -148 -206 -199t-201 -66q-30 -4 -58 -4q-86 0 -159 35q-97 46 -138 156.5t-49 267.5q-1 18 -1 37q0 143 57 327q64 207 159.5 350.5t228.5 253.5t308 133q64 8 119 8q94 0 160 -24q105 -40 153 -124q47 -81 47 -152v-4q-2 -73 -146.5 -490.5zM1350 1236
q-16 131 -98 171q-59 28 -137 28q-31 0 -66 -5q-120 -16 -243.5 -111.5t-207.5 -215.5t-145 -316q-52 -169 -52 -283q0 -18 1 -35q10 -122 35 -196t107 -110q32 -15 72 -15q60 0 137 34q126 56 269 228.5t328 825.5zM1218 1712v-4q0 -14 -13 -21q-7 -5 -16 -5t-20 6
q-22 9 -124 130.5t-109 147.5q-3 8 -3 15q0 17 11 30q15 20 32 25q11 3 23 3h12q17 -3 38.5 -17.5t148.5 -273.5q18 -20 20 -36z" />
    <glyph glyph-name="Aacute" unicode="&#xc1;" horiz-adv-x="1485" 
d="M1337.5 775.5q-144.5 -417.5 -151.5 -509.5q-1 -13 -1 -24q0 -73 39 -95q25 -16 50 -16q19 0 37 9q43 20 85.5 67.5t82 111.5t69.5 74q9 3 17 3q18 0 30 -14q13 -16 13 -41q0 -9 -1 -19q-7 -38 -67.5 -130t-150.5 -144q-88 -52 -161 -52q-2 0 -4 1q-74 1 -117 45.5
t-43 228.5q-125 -148 -206 -199t-201 -66q-30 -4 -58 -4q-86 0 -159 35q-97 46 -138 156.5t-49 267.5q-1 18 -1 37q0 143 57 327q64 207 159.5 350.5t228.5 253.5t308 133q64 8 119 8q94 0 160 -24q105 -40 153 -124q47 -81 47 -152v-4q-2 -73 -146.5 -490.5zM1350 1236
q-16 131 -98 171q-59 28 -137 28q-31 0 -66 -5q-120 -16 -243.5 -111.5t-207.5 -215.5t-145 -316q-52 -169 -52 -283q0 -18 1 -35q10 -122 35 -196t107 -110q32 -15 72 -15q60 0 137 34q126 56 269 228.5t328 825.5zM1034 1749q227 259 248.5 273t38.5 17h11q12 0 24 -3
q17 -5 33 -25q10 -13 10 -29q0 -8 -3 -17q-8 -26 -160 -147.5t-173 -130.5q-11 -5 -20 -5t-16 5q-13 7 -13 21v4q2 16 20 37z" />
    <glyph glyph-name="Acircumflex" unicode="&#xc2;" horiz-adv-x="1485" 
d="M1337.5 775.5q-144.5 -417.5 -151.5 -509.5q-1 -13 -1 -24q0 -73 39 -95q25 -16 50 -16q19 0 37 9q43 20 85.5 67.5t82 111.5t69.5 74q9 3 17 3q18 0 30 -14q13 -16 13 -41q0 -9 -1 -19q-7 -38 -67.5 -130t-150.5 -144q-88 -52 -161 -52q-2 0 -4 1q-74 1 -117 45.5
t-43 228.5q-125 -148 -206 -199t-201 -66q-30 -4 -58 -4q-86 0 -159 35q-97 46 -138 156.5t-49 267.5q-1 18 -1 37q0 143 57 327q64 207 159.5 350.5t228.5 253.5t308 133q64 8 119 8q94 0 160 -24q105 -40 153 -124q47 -81 47 -152v-4q-2 -73 -146.5 -490.5zM1350 1236
q-16 131 -98 171q-59 28 -137 28q-31 0 -66 -5q-120 -16 -243.5 -111.5t-207.5 -215.5t-145 -316q-52 -169 -52 -283q0 -18 1 -35q10 -122 35 -196t107 -110q32 -15 72 -15q60 0 137 34q126 56 269 228.5t328 825.5zM1163.5 2027.5q14.5 -7.5 101.5 -156.5q84 -146 84 -165
v-1q-3 -17 -17 -20q-3 -1 -7 -1q-12 0 -26 10q-19 12 -188 187q-250 -203 -269 -205q-3 -1 -5 -1q-16 0 -23 16q-3 7 -3 14q0 10 6 20q11 16 124 144.5t131.5 146t52.5 21.5q24 -2 38.5 -9.5z" />
    <glyph glyph-name="Atilde" unicode="&#xc3;" horiz-adv-x="1485" 
d="M1337.5 775.5q-144.5 -417.5 -151.5 -509.5q-1 -13 -1 -24q0 -73 39 -95q25 -16 50 -16q19 0 37 9q43 20 85.5 67.5t82 111.5t69.5 74q9 3 17 3q18 0 30 -14q13 -16 13 -41q0 -9 -1 -19q-7 -38 -67.5 -130t-150.5 -144q-88 -52 -161 -52q-2 0 -4 1q-74 1 -117 45.5
t-43 228.5q-125 -148 -206 -199t-201 -66q-30 -4 -58 -4q-86 0 -159 35q-97 46 -138 156.5t-49 267.5q-1 18 -1 37q0 143 57 327q64 207 159.5 350.5t228.5 253.5t308 133q64 8 119 8q94 0 160 -24q105 -40 153 -124q47 -81 47 -152v-4q-2 -73 -146.5 -490.5zM1350 1236
q-16 131 -98 171q-59 28 -137 28q-31 0 -66 -5q-120 -16 -243.5 -111.5t-207.5 -215.5t-145 -316q-52 -169 -52 -283q0 -18 1 -35q10 -122 35 -196t107 -110q32 -15 72 -15q60 0 137 34q126 56 269 228.5t328 825.5zM1356 1820q20 7 30 30.5t16.5 49.5t23.5 29q3 1 6 1
q13 0 23 -9q7 -6 7 -23q0 -11 -4 -28q-9 -40 -30 -81t-47.5 -62.5t-58.5 -23.5q-10 -1 -19 -1q-24 0 -50 4q-37 5 -65 17.5t-60.5 29.5t-68.5 34t-75 22q-14 2 -26 2q-23 0 -39 -6q-25 -10 -35.5 -25t-16 -36.5t-23.5 -34.5q-13 -9 -22 -9q-4 0 -7 2q-11 5 -15 17
q-2 5 -2 13q0 10 3 24q5 24 15.5 58.5t39.5 64.5t55 41t61 12h4q33 0 66 -8q35 -8 76 -39t162 -73q56 1 76 8z" />
    <glyph glyph-name="Adieresis" unicode="&#xc4;" horiz-adv-x="1485" 
d="M1337.5 775.5q-144.5 -417.5 -151.5 -509.5q-1 -13 -1 -24q0 -73 39 -95q25 -16 50 -16q19 0 37 9q43 20 85.5 67.5t82 111.5t69.5 74q9 3 17 3q18 0 30 -14q13 -16 13 -41q0 -9 -1 -19q-7 -38 -67.5 -130t-150.5 -144q-88 -52 -161 -52q-2 0 -4 1q-74 1 -117 45.5
t-43 228.5q-125 -148 -206 -199t-201 -66q-30 -4 -58 -4q-86 0 -159 35q-97 46 -138 156.5t-49 267.5q-1 18 -1 37q0 143 57 327q64 207 159.5 350.5t228.5 253.5t308 133q64 8 119 8q94 0 160 -24q105 -40 153 -124q47 -81 47 -152v-4q-2 -73 -146.5 -490.5zM1350 1236
q-16 131 -98 171q-59 28 -137 28q-31 0 -66 -5q-120 -16 -243.5 -111.5t-207.5 -215.5t-145 -316q-52 -169 -52 -283q0 -18 1 -35q10 -122 35 -196t107 -110q32 -15 72 -15q60 0 137 34q126 56 269 228.5t328 825.5zM1008 1886.5q30 -30.5 30 -72.5q0 -43 -30 -73t-73 -30
t-73 30t-30 73q0 42 30 72.5t73 30.5t73 -30.5zM1408 1886.5q30 -30.5 30 -72.5q0 -43 -30 -73t-73 -30t-73 30t-30 73q0 42 30 72.5t73 30.5t73 -30.5z" />
    <glyph glyph-name="Aring" unicode="&#xc5;" horiz-adv-x="1485" 
d="M1350.5 2077.5q73.5 -73.5 73.5 -176.5q0 -104 -73.5 -177t-176.5 -73q-104 0 -177 73t-73 177q0 103 73 176.5t177 73.5q103 0 176.5 -73.5zM1279.5 1791.5q42.5 42.5 42.5 103.5t-42.5 103.5t-103.5 42.5t-103.5 -42.5t-42.5 -103.5t42.5 -103.5t103.5 -42.5
t103.5 42.5zM1337.5 775.5q-144.5 -417.5 -151.5 -509.5q-1 -13 -1 -24q0 -73 39 -95q25 -16 50 -16q19 0 37 9q43 20 85.5 67.5t82 111.5t69.5 74q9 3 17 3q18 0 30 -14q13 -16 13 -41q0 -9 -1 -19q-7 -38 -67.5 -130t-150.5 -144q-88 -52 -161 -52q-2 0 -4 1
q-74 1 -117 45.5t-43 228.5q-125 -148 -206 -199t-201 -66q-30 -4 -58 -4q-86 0 -159 35q-97 46 -138 156.5t-49 267.5q-1 18 -1 37q0 143 57 327q64 207 159.5 350.5t228.5 253.5t308 133q64 8 119 8q94 0 160 -24q105 -40 153 -124q47 -81 47 -152v-4
q-2 -73 -146.5 -490.5zM1350 1236q-16 131 -98 171q-59 28 -137 28q-31 0 -66 -5q-120 -16 -243.5 -111.5t-207.5 -215.5t-145 -316q-52 -169 -52 -283q0 -18 1 -35q10 -122 35 -196t107 -110q32 -15 72 -15q60 0 137 34q126 56 269 228.5t328 825.5z" />
    <glyph glyph-name="AE" unicode="&#xc6;" horiz-adv-x="2584" 
d="M1320.5 775.5q-144.5 -417.5 -151.5 -509.5q-1 -13 -1 -24q0 -73 39 -95q25 -16 50 -16q19 0 37 9q43 20 85.5 67.5t82 111.5t69.5 74q9 3 17 3q18 0 30 -14q13 -16 13 -41q0 -9 -1 -19q-7 -38 -67.5 -130t-150.5 -144q-88 -52 -161 -52q-2 0 -4 1q-74 1 -117 45.5
t-43 228.5q-125 -148 -206 -199t-201 -66q-30 -4 -58 -4q-86 0 -159 35q-97 46 -138 156.5t-49 267.5q-1 18 -1 37q0 143 57 327q64 207 159.5 350.5t228.5 253.5t308 133q64 8 119 8q94 0 160 -24q105 -40 153 -124q47 -81 47 -152v-4q-2 -73 -146.5 -490.5zM1333 1236
q-16 131 -98 171q-59 28 -137 28q-31 0 -66 -5q-120 -16 -243.5 -111.5t-207.5 -215.5t-145 -316q-52 -169 -52 -283q0 -18 1 -35q10 -122 35 -196t107 -110q32 -15 72 -15q60 0 137 34q126 56 269 228.5t328 825.5zM1968 1163q351 59 450 143q61 51 61 90q0 25 -24 46
q-30 24 -79 24q-55 0 -134 -31q-150 -59 -274 -272zM2052 857q55 -42 106 -47q10 -2 18 -2q37 0 56 20q10 11 10 25t-12 31q-9 11 -34 11q-45 0 -144 -38zM1889.5 1250.5q28.5 49.5 81 109.5t133 114t154.5 75q63 18 115 18h17q57 -4 99.5 -24t68 -56t29.5 -79v-19
q0 -33 -9 -63q-13 -39 -70 -92t-207 -99.5t-331 -74.5q2 -60 26 -115q82 34 144 44q29 4 55 4q29 0 53 -5q46 -11 69 -32.5t32 -70.5q3 -19 3 -36q0 -29 -9 -55q-15 -42 -56 -66t-109 -29q-13 -1 -26 -1q-53 0 -99 17q-58 21 -121 89q-93 -58 -145.5 -102.5t-87 -102.5
t-44.5 -98.5t-10 -92.5t20.5 -105t66 -90.5t131 -60t153.5 -26.5q8 -1 16 -1q61 0 134 29q82 33 132 98t66 101.5t35 46.5q11 6 23 6q8 0 17 -2q22 -7 28 -32q1 -8 1 -18q0 -22 -9 -55q-13 -47 -50 -105t-101.5 -103.5t-191.5 -69.5q-81 -15 -146 -15q-37 0 -68 5
q-88 13 -194.5 79t-148.5 147.5t-43 189.5v2q0 107 76 242q77 137 295 238q-17 54 -33 143q-78 0 -143.5 14.5t-100.5 61.5t-45 123q-3 26 -3 51q0 48 12 94q19 70 73.5 115t121.5 56q36 5 67 5q27 0 50 -4q49 -9 74 -19.5t40 -32.5q13 -20 13 -42v-7q-3 -26 -23.5 -38
t-40.5 -12q-21 0 -54 20q-32 19 -73 19h-6q-46 -2 -66.5 -16t-41 -44t-24.5 -64q-2 -15 -2 -30q0 -20 4 -41q5 -36 34 -65.5t132 -35.5q9 41 37.5 90.5z" />
    <glyph glyph-name="Ccedilla" unicode="&#xc7;" horiz-adv-x="1350" 
d="M685 1191.5q119 150.5 193 221t164 109t152 43.5q21 1 40 1q38 0 70 -6q48 -9 90.5 -58.5t52.5 -130.5q2 -19 2 -38q0 -62 -25 -123q-33 -79 -119 -159.5t-252 -156.5t-461 -112q-66 -167 -76 -268q-6 -56 -6 -101q0 -36 4 -64q8 -65 54.5 -122t90 -77.5t94.5 -23.5
q8 -1 16 -1q44 0 95 16q60 19 139.5 75.5t141.5 159t87 122.5q23 19 45 19h3q23 -1 38 -24q11 -18 11 -36q0 -6 -1 -12q-5 -25 -33.5 -83.5t-79.5 -130t-134.5 -130.5t-164.5 -87q-52 -19 -120 -19q-40 0 -85 7q-123 16 -208.5 83t-106.5 163q-19 81 -19 182q0 19 1 38
q4 124 75 338q-137 55 -182.5 127t-55.5 187q-2 21 -2 41q0 91 37 167q44 93 143.5 148t220.5 70q110 13 151 13h8q37 -2 50 -20q12 -17 12 -37v-5q-2 -23 -25.5 -39.5t-149.5 -28.5t-189.5 -51.5t-93 -98.5t-32.5 -111q-1 -7 -1 -15q0 -48 20 -112q23 -74 131 -117
q71 117 190 267.5zM1049.5 1035.5q100.5 49.5 185.5 114.5t97 145q3 21 3 39q0 50 -24 74q-34 32 -77 35h-13q-37 0 -77 -13q-46 -16 -88 -41t-151.5 -132.5t-263.5 -339.5q308 69 408.5 118.5zM933 -210q20 -46 20 -105v-17q-4 -70 -19 -112t-63.5 -68t-107.5 -31
q-13 -2 -25 -2q-44 0 -78 16q-44 19 -79.5 48.5t-44.5 49.5q-7 14 -7 26q0 6 2 11q4 17 12 27.5t25 17.5q7 3 16 3q8 0 18 -4q17 -7 48 -33t61 -35q20 -7 40 -7q9 0 19 2q28 4 51 20t33 36q8 17 8 46v7q-1 33 -12.5 61.5t-35.5 50.5t-73 44.5t-60.5 30t-16.5 17.5
q-3 5 -3 11t2 12q5 13 23 16q3 1 8 1q20 0 63 -11q52 -14 102 -45.5t74 -83.5z" />
    <glyph glyph-name="Egrave" unicode="&#xc8;" horiz-adv-x="1212" 
d="M605 1163q351 59 450 143q61 51 61 90q0 25 -24 46q-30 24 -79 24q-55 0 -134 -31q-150 -59 -274 -272zM689 857q55 -42 106 -47q10 -2 18 -2q37 0 56 20q10 11 10 25t-12 31q-9 11 -34 11q-45 0 -144 -38zM526.5 1250.5q28.5 49.5 81 109.5t133 114t154.5 75
q63 18 115 18h17q57 -4 99.5 -24t68 -56t29.5 -79v-19q0 -33 -9 -63q-13 -39 -70 -92t-207 -99.5t-331 -74.5q2 -60 26 -115q82 34 144 44q29 4 55 4q29 0 53 -5q46 -11 69 -32.5t32 -70.5q3 -19 3 -36q0 -29 -9 -55q-15 -42 -56 -66t-109 -29q-13 -1 -26 -1q-53 0 -99 17
q-58 21 -121 89q-93 -58 -145.5 -102.5t-87 -102.5t-44.5 -98.5t-10 -92.5t20.5 -105t66 -90.5t131 -60t153.5 -26.5q8 -1 16 -1q61 0 134 29q82 33 132 98t66 101.5t35 46.5q11 6 23 6q8 0 17 -2q22 -7 28 -32q1 -8 1 -18q0 -22 -9 -55q-13 -47 -50 -105t-101.5 -103.5
t-191.5 -69.5q-81 -15 -146 -15q-37 0 -68 5q-88 13 -194.5 79t-148.5 147.5t-43 189.5v2q0 107 76 242q77 137 295 238q-17 54 -33 143q-78 0 -143.5 14.5t-100.5 61.5t-45 123q-3 26 -3 51q0 48 12 94q19 70 73.5 115t121.5 56q36 5 67 5q27 0 50 -4q49 -9 74 -19.5
t40 -32.5q13 -20 13 -42v-7q-3 -26 -23.5 -38t-40.5 -12q-21 0 -54 20q-32 19 -73 19h-6q-46 -2 -66.5 -16t-41 -44t-24.5 -64q-2 -15 -2 -30q0 -20 4 -41q5 -36 34 -65.5t132 -35.5q9 41 37.5 90.5zM1081 1712v-4q0 -14 -13 -21q-7 -5 -16 -5t-20 6q-22 9 -124 130.5
t-109 147.5q-3 8 -3 15q0 17 11 30q15 20 32 25q11 3 23 3h12q17 -3 38.5 -17.5t148.5 -273.5q18 -20 20 -36z" />
    <glyph glyph-name="Eacute" unicode="&#xc9;" horiz-adv-x="1212" 
d="M605 1163q351 59 450 143q61 51 61 90q0 25 -24 46q-30 24 -79 24q-55 0 -134 -31q-150 -59 -274 -272zM689 857q55 -42 106 -47q10 -2 18 -2q37 0 56 20q10 11 10 25t-12 31q-9 11 -34 11q-45 0 -144 -38zM526.5 1250.5q28.5 49.5 81 109.5t133 114t154.5 75
q63 18 115 18h17q57 -4 99.5 -24t68 -56t29.5 -79v-19q0 -33 -9 -63q-13 -39 -70 -92t-207 -99.5t-331 -74.5q2 -60 26 -115q82 34 144 44q29 4 55 4q29 0 53 -5q46 -11 69 -32.5t32 -70.5q3 -19 3 -36q0 -29 -9 -55q-15 -42 -56 -66t-109 -29q-13 -1 -26 -1q-53 0 -99 17
q-58 21 -121 89q-93 -58 -145.5 -102.5t-87 -102.5t-44.5 -98.5t-10 -92.5t20.5 -105t66 -90.5t131 -60t153.5 -26.5q8 -1 16 -1q61 0 134 29q82 33 132 98t66 101.5t35 46.5q11 6 23 6q8 0 17 -2q22 -7 28 -32q1 -8 1 -18q0 -22 -9 -55q-13 -47 -50 -105t-101.5 -103.5
t-191.5 -69.5q-81 -15 -146 -15q-37 0 -68 5q-88 13 -194.5 79t-148.5 147.5t-43 189.5v2q0 107 76 242q77 137 295 238q-17 54 -33 143q-78 0 -143.5 14.5t-100.5 61.5t-45 123q-3 26 -3 51q0 48 12 94q19 70 73.5 115t121.5 56q36 5 67 5q27 0 50 -4q49 -9 74 -19.5
t40 -32.5q13 -20 13 -42v-7q-3 -26 -23.5 -38t-40.5 -12q-21 0 -54 20q-32 19 -73 19h-6q-46 -2 -66.5 -16t-41 -44t-24.5 -64q-2 -15 -2 -30q0 -20 4 -41q5 -36 34 -65.5t132 -35.5q9 41 37.5 90.5zM931 1749q227 259 248.5 273t38.5 17h11q12 0 24 -3q17 -5 33 -25
q10 -13 10 -29q0 -8 -3 -17q-8 -26 -160 -147.5t-173 -130.5q-11 -5 -20 -5t-16 5q-13 7 -13 21v4q2 16 20 37z" />
    <glyph glyph-name="Ecircumflex" unicode="&#xca;" horiz-adv-x="1212" 
d="M605 1163q351 59 450 143q61 51 61 90q0 25 -24 46q-30 24 -79 24q-55 0 -134 -31q-150 -59 -274 -272zM689 857q55 -42 106 -47q10 -2 18 -2q37 0 56 20q10 11 10 25t-12 31q-9 11 -34 11q-45 0 -144 -38zM526.5 1250.5q28.5 49.5 81 109.5t133 114t154.5 75
q63 18 115 18h17q57 -4 99.5 -24t68 -56t29.5 -79v-19q0 -33 -9 -63q-13 -39 -70 -92t-207 -99.5t-331 -74.5q2 -60 26 -115q82 34 144 44q29 4 55 4q29 0 53 -5q46 -11 69 -32.5t32 -70.5q3 -19 3 -36q0 -29 -9 -55q-15 -42 -56 -66t-109 -29q-13 -1 -26 -1q-53 0 -99 17
q-58 21 -121 89q-93 -58 -145.5 -102.5t-87 -102.5t-44.5 -98.5t-10 -92.5t20.5 -105t66 -90.5t131 -60t153.5 -26.5q8 -1 16 -1q61 0 134 29q82 33 132 98t66 101.5t35 46.5q11 6 23 6q8 0 17 -2q22 -7 28 -32q1 -8 1 -18q0 -22 -9 -55q-13 -47 -50 -105t-101.5 -103.5
t-191.5 -69.5q-81 -15 -146 -15q-37 0 -68 5q-88 13 -194.5 79t-148.5 147.5t-43 189.5v2q0 107 76 242q77 137 295 238q-17 54 -33 143q-78 0 -143.5 14.5t-100.5 61.5t-45 123q-3 26 -3 51q0 48 12 94q19 70 73.5 115t121.5 56q36 5 67 5q27 0 50 -4q49 -9 74 -19.5
t40 -32.5q13 -20 13 -42v-7q-3 -26 -23.5 -38t-40.5 -12q-21 0 -54 20q-32 19 -73 19h-6q-46 -2 -66.5 -16t-41 -44t-24.5 -64q-2 -15 -2 -30q0 -20 4 -41q5 -36 34 -65.5t132 -35.5q9 41 37.5 90.5zM926.5 2027.5q14.5 -7.5 101.5 -156.5q84 -146 84 -165v-1
q-3 -17 -17 -20q-3 -1 -7 -1q-12 0 -26 10q-19 12 -188 187q-250 -203 -269 -205q-3 -1 -5 -1q-16 0 -23 16q-3 7 -3 14q0 10 6 20q11 16 124 144.5t131.5 146t52.5 21.5q24 -2 38.5 -9.5z" />
    <glyph glyph-name="Edieresis" unicode="&#xcb;" horiz-adv-x="1212" 
d="M605 1163q351 59 450 143q61 51 61 90q0 25 -24 46q-30 24 -79 24q-55 0 -134 -31q-150 -59 -274 -272zM689 857q55 -42 106 -47q10 -2 18 -2q37 0 56 20q10 11 10 25t-12 31q-9 11 -34 11q-45 0 -144 -38zM526.5 1250.5q28.5 49.5 81 109.5t133 114t154.5 75
q63 18 115 18h17q57 -4 99.5 -24t68 -56t29.5 -79v-19q0 -33 -9 -63q-13 -39 -70 -92t-207 -99.5t-331 -74.5q2 -60 26 -115q82 34 144 44q29 4 55 4q29 0 53 -5q46 -11 69 -32.5t32 -70.5q3 -19 3 -36q0 -29 -9 -55q-15 -42 -56 -66t-109 -29q-13 -1 -26 -1q-53 0 -99 17
q-58 21 -121 89q-93 -58 -145.5 -102.5t-87 -102.5t-44.5 -98.5t-10 -92.5t20.5 -105t66 -90.5t131 -60t153.5 -26.5q8 -1 16 -1q61 0 134 29q82 33 132 98t66 101.5t35 46.5q11 6 23 6q8 0 17 -2q22 -7 28 -32q1 -8 1 -18q0 -22 -9 -55q-13 -47 -50 -105t-101.5 -103.5
t-191.5 -69.5q-81 -15 -146 -15q-37 0 -68 5q-88 13 -194.5 79t-148.5 147.5t-43 189.5v2q0 107 76 242q77 137 295 238q-17 54 -33 143q-78 0 -143.5 14.5t-100.5 61.5t-45 123q-3 26 -3 51q0 48 12 94q19 70 73.5 115t121.5 56q36 5 67 5q27 0 50 -4q49 -9 74 -19.5
t40 -32.5q13 -20 13 -42v-7q-3 -26 -23.5 -38t-40.5 -12q-21 0 -54 20q-32 19 -73 19h-6q-46 -2 -66.5 -16t-41 -44t-24.5 -64q-2 -15 -2 -30q0 -20 4 -41q5 -36 34 -65.5t132 -35.5q9 41 37.5 90.5zM772 1886.5q30 -30.5 30 -72.5q0 -43 -30 -73t-73 -30t-73 30t-30 73
q0 42 30 72.5t73 30.5t73 -30.5zM1172 1886.5q30 -30.5 30 -72.5q0 -43 -30 -73t-73 -30t-73 30t-30 73q0 42 30 72.5t73 30.5t73 -30.5z" />
    <glyph glyph-name="Igrave" unicode="&#xcc;" horiz-adv-x="1215" 
d="M511 119q12 -1 24 -1q65 0 116 26q60 31 103 103.5t88 322.5q-11 -1 -22 -1q-38 0 -74 9q-46 10 -128 72.5t-114 155.5q-30 84 -30 157v14q3 79 30 152.5t114 174.5t193.5 174.5t199.5 94.5q79 17 111 17h10q28 -4 42 -18q12 -12 12 -27v-5q-3 -19 -6 -39.5t-186 -803.5
q58 7 76.5 18t36.5 26.5t37 17.5h6q14 0 22 -6q10 -9 14 -38q1 -9 1 -17q0 -19 -6 -31q-8 -19 -39 -42.5t-177 -57.5q-55 -244 -87 -325.5t-89 -140.5t-136 -89q-70 -27 -135 -27q-9 0 -19 1q-74 4 -142.5 34t-103.5 81.5t-41 143.5q-2 20 -2 38q0 68 19 120q24 66 72.5 98
t118.5 35h17q57 0 91 -17q38 -20 51 -40q9 -14 9 -31q0 -7 -1 -14q-6 -26 -31 -37q-13 -6 -27 -6q-13 0 -28 6q-27 9 -64 9h-7q-41 -1 -71 -48.5t-33 -82.5q-1 -7 -1 -13q0 -30 13 -62q16 -40 54.5 -58t118.5 -23zM866 703l179 765q-185 -74 -277 -177.5t-120.5 -156
t-40.5 -109.5q-9 -41 -9 -78q0 -13 2 -26q4 -47 15 -85.5t45.5 -72.5t90.5 -54q32 -12 65 -12q25 0 50 6zM1045 1712v-4q0 -14 -13 -21q-7 -5 -16 -5t-20 6q-22 9 -124 130.5t-109 147.5q-3 8 -3 15q0 17 11 30q15 20 32 25q11 3 23 3h12q17 -3 38.5 -17.5t148.5 -273.5
q18 -20 20 -36z" />
    <glyph glyph-name="Iacute" unicode="&#xcd;" horiz-adv-x="1215" 
d="M511 119q12 -1 24 -1q65 0 116 26q60 31 103 103.5t88 322.5q-11 -1 -22 -1q-38 0 -74 9q-46 10 -128 72.5t-114 155.5q-30 84 -30 157v14q3 79 30 152.5t114 174.5t193.5 174.5t199.5 94.5q79 17 111 17h10q28 -4 42 -18q12 -12 12 -27v-5q-3 -19 -6 -39.5t-186 -803.5
q58 7 76.5 18t36.5 26.5t37 17.5h6q14 0 22 -6q10 -9 14 -38q1 -9 1 -17q0 -19 -6 -31q-8 -19 -39 -42.5t-177 -57.5q-55 -244 -87 -325.5t-89 -140.5t-136 -89q-70 -27 -135 -27q-9 0 -19 1q-74 4 -142.5 34t-103.5 81.5t-41 143.5q-2 20 -2 38q0 68 19 120q24 66 72.5 98
t118.5 35h17q57 0 91 -17q38 -20 51 -40q9 -14 9 -31q0 -7 -1 -14q-6 -26 -31 -37q-13 -6 -27 -6q-13 0 -28 6q-27 9 -64 9h-7q-41 -1 -71 -48.5t-33 -82.5q-1 -7 -1 -13q0 -30 13 -62q16 -40 54.5 -58t118.5 -23zM866 703l179 765q-185 -74 -277 -177.5t-120.5 -156
t-40.5 -109.5q-9 -41 -9 -78q0 -13 2 -26q4 -47 15 -85.5t45.5 -72.5t90.5 -54q32 -12 65 -12q25 0 50 6zM895 1749q227 259 248.5 273t38.5 17h11q12 0 24 -3q17 -5 33 -25q10 -13 10 -29q0 -8 -3 -17q-8 -26 -160 -147.5t-173 -130.5q-11 -5 -20 -5t-16 5q-13 7 -13 21v4
q2 16 20 37z" />
    <glyph glyph-name="Icircumflex" unicode="&#xce;" horiz-adv-x="1215" 
d="M511 119q12 -1 24 -1q65 0 116 26q60 31 103 103.5t88 322.5q-11 -1 -22 -1q-38 0 -74 9q-46 10 -128 72.5t-114 155.5q-30 84 -30 157v14q3 79 30 152.5t114 174.5t193.5 174.5t199.5 94.5q79 17 111 17h10q28 -4 42 -18q12 -12 12 -27v-5q-3 -19 -6 -39.5t-186 -803.5
q58 7 76.5 18t36.5 26.5t37 17.5h6q14 0 22 -6q10 -9 14 -38q1 -9 1 -17q0 -19 -6 -31q-8 -19 -39 -42.5t-177 -57.5q-55 -244 -87 -325.5t-89 -140.5t-136 -89q-70 -27 -135 -27q-9 0 -19 1q-74 4 -142.5 34t-103.5 81.5t-41 143.5q-2 20 -2 38q0 68 19 120q24 66 72.5 98
t118.5 35h17q57 0 91 -17q38 -20 51 -40q9 -14 9 -31q0 -7 -1 -14q-6 -26 -31 -37q-13 -6 -27 -6q-13 0 -28 6q-27 9 -64 9h-7q-41 -1 -71 -48.5t-33 -82.5q-1 -7 -1 -13q0 -30 13 -62q16 -40 54.5 -58t118.5 -23zM866 703l179 765q-185 -74 -277 -177.5t-120.5 -156
t-40.5 -109.5q-9 -41 -9 -78q0 -13 2 -26q4 -47 15 -85.5t45.5 -72.5t90.5 -54q32 -12 65 -12q25 0 50 6zM990.5 2027.5q14.5 -7.5 101.5 -156.5q84 -146 84 -165v-1q-3 -17 -17 -20q-3 -1 -7 -1q-12 0 -26 10q-19 12 -188 187q-250 -203 -269 -205q-3 -1 -5 -1
q-16 0 -23 16q-3 7 -3 14q0 10 6 20q11 16 124 144.5t131.5 146t52.5 21.5q24 -2 38.5 -9.5z" />
    <glyph glyph-name="Idieresis" unicode="&#xcf;" horiz-adv-x="1215" 
d="M511 119q12 -1 24 -1q65 0 116 26q60 31 103 103.5t88 322.5q-11 -1 -22 -1q-38 0 -74 9q-46 10 -128 72.5t-114 155.5q-30 84 -30 157v14q3 79 30 152.5t114 174.5t193.5 174.5t199.5 94.5q79 17 111 17h10q28 -4 42 -18q12 -12 12 -27v-5q-3 -19 -6 -39.5t-186 -803.5
q58 7 76.5 18t36.5 26.5t37 17.5h6q14 0 22 -6q10 -9 14 -38q1 -9 1 -17q0 -19 -6 -31q-8 -19 -39 -42.5t-177 -57.5q-55 -244 -87 -325.5t-89 -140.5t-136 -89q-70 -27 -135 -27q-9 0 -19 1q-74 4 -142.5 34t-103.5 81.5t-41 143.5q-2 20 -2 38q0 68 19 120q24 66 72.5 98
t118.5 35h17q57 0 91 -17q38 -20 51 -40q9 -14 9 -31q0 -7 -1 -14q-6 -26 -31 -37q-13 -6 -27 -6q-13 0 -28 6q-27 9 -64 9h-7q-41 -1 -71 -48.5t-33 -82.5q-1 -7 -1 -13q0 -30 13 -62q16 -40 54.5 -58t118.5 -23zM866 703l179 765q-185 -74 -277 -177.5t-120.5 -156
t-40.5 -109.5q-9 -41 -9 -78q0 -13 2 -26q4 -47 15 -85.5t45.5 -72.5t90.5 -54q32 -12 65 -12q25 0 50 6zM936 1886.5q30 -30.5 30 -72.5q0 -43 -30 -73t-73 -30t-73 30t-30 73q0 42 30 72.5t73 30.5t73 -30.5zM1336 1886.5q30 -30.5 30 -72.5q0 -43 -30 -73t-73 -30t-73 30
t-30 73q0 42 30 72.5t73 30.5t73 -30.5z" />
    <glyph glyph-name="Eth" unicode="&#xd0;" horiz-adv-x="1852" 
d="M423 684q-26 21 -43.5 80t-18.5 151q-1 4 -1 9q0 87 26 171q27 89 83.5 168t131.5 135t169 97.5t229 58.5q60 8 120 8q72 0 141 -11q127 -21 216 -71.5t149.5 -124.5t95 -152t49.5 -163q10 -57 10 -137q0 -39 -2 -84q-8 -136 -26.5 -243.5t-68.5 -239t-116 -205.5
t-131 -103t-144 -32h-18q-68 0 -120 22q-59 24 -96.5 75.5t-42.5 105.5q-3 25 -3 46q0 25 4 46q6 37 31.5 85.5t68 84.5t88.5 42q27 4 51 4q17 0 32 -2q37 -4 68 -17t50 -29t20 -41v-3q0 -24 -11 -38q-11 -15 -29 -23q-14 -6 -28 -6q-5 0 -9 1q-20 2 -31.5 8.5t-31.5 12.5
t-43 7h-2q-23 0 -50 -17q-28 -17 -42 -43q-12 -22 -12 -57q0 -7 1 -15q3 -45 17 -66t44.5 -38t77.5 -18h5q44 0 87 15q46 15 95.5 71.5t95 161t76.5 241.5q27 120 27 226v31q-5 120 -28 217t-75 156.5t-106.5 103t-138.5 62t-168 20.5h-19q-76 0 -157 -11
q-92 -13 -177 -47.5t-147.5 -98t-101 -140t-46.5 -135.5q-5 -36 -5 -73q0 -23 2 -46q5 -60 25.5 -106t7.5 -72.5t-46 -31t-59 16.5zM472 127q30 -6 63 -6q38 0 79 8q76 14 165 118.5t146.5 284.5t102 324t146 305.5t137.5 185.5q22 14 42 14q12 0 23 -4q30 -14 34 -44v-4
q0 -30 -57 -98q-61 -72 -116.5 -168.5t-95 -210t-101 -328t-154 -327.5t-223.5 -150q-84 -25 -158 -25q-42 0 -80 8q-108 21 -159 73.5t-58 127.5q-1 14 -1 28q0 57 24 99q29 51 90 72q56 20 91 20h5q36 -2 58.5 -9.5t32.5 -31.5q4 -12 4 -22q0 -13 -6 -24
q-12 -22 -37.5 -25.5t-54.5 -8t-51 -23.5t-26 -53v-7q0 -31 32 -57q36 -30 103 -42zM1337 937q72 -6 73 -52v-4q0 -44 -25 -57q-25 -14 -93 -14h-9q-425 2 -455 12t-34 39q-1 6 -1 11q0 22 12 38q14 21 37 28q11 3 141 3q49 0 354 -4z" />
    <glyph glyph-name="Ntilde" unicode="&#xd1;" horiz-adv-x="1914" 
d="M397 780q17 -3 32 -3q73 0 121 45q57 53 80.5 109.5t34.5 103.5t24.5 71t39.5 29h10q20 0 37 -13q13 -10 13 -38q0 -21 -7 -52q-16 -73 -65.5 -178.5t-121.5 -154.5t-116 -58q-19 -5 -43 -5q-30 0 -66 7q-66 12 -114.5 46.5t-73.5 105.5q-25 66 -25 166q0 6 1 12
q1 108 55 240.5t143.5 211t165 121.5t153.5 56q54 8 106 8q23 0 46 -1q73 -6 139.5 -48.5t100.5 -133.5q32 -86 32 -282v-23q129 310 201.5 385t144.5 93q54 13 120 13q21 0 44 -1q92 -6 156 -54.5t89 -157.5q21 -95 21 -186q0 -15 -1 -30q-4 -106 -86.5 -455.5
t-87.5 -411.5q-5 -52 -5 -88v-12q1 -38 38 -58q18 -10 41 -10t50 10q55 19 100.5 50.5t86 103t69.5 83.5q15 6 27 6q10 0 18 -5q15 -11 17 -47v-3q0 -37 -39 -112q-41 -80 -135 -147.5t-173 -75.5q-32 -3 -57 -3q-38 0 -61 7q-39 12 -63.5 42.5t-35.5 104.5q-5 37 -5 79
t5 89q11 94 43 230.5t77 374.5q40 218 40 332v19q-4 113 -56.5 142.5t-139.5 32.5h-8q-82 0 -136 -56q-57 -58 -112 -154t-104.5 -241t-179.5 -530.5t-146 -414.5t-38 -42q-16 -11 -33 -11q-5 0 -10 2q-22 4 -27 23q-4 10 -4 22q0 8 2 17q4 21 106.5 402.5t120.5 514.5
q15 113 15 205v30q-3 102 -54 175q-49 70 -154 70h-8q-112 -3 -201 -53t-150.5 -114t-101.5 -169q-31 -82 -31 -173q0 -27 3 -53q11 -121 106 -132zM1810 1920q20 7 30 30.5t16.5 49.5t23.5 29q3 1 6 1q13 0 23 -9q7 -6 7 -23q0 -11 -4 -28q-9 -40 -30 -81t-47.5 -62.5
t-58.5 -23.5q-10 -1 -19 -1q-24 0 -50 4q-37 5 -65 17.5t-60.5 29.5t-68.5 34t-75 22q-14 2 -26 2q-23 0 -39 -6q-25 -10 -35.5 -25t-16 -36.5t-23.5 -34.5q-13 -9 -22 -9q-4 0 -7 2q-11 5 -15 17q-2 5 -2 13q0 10 3 24q5 24 15.5 58.5t39.5 64.5t55 41t61 12h4q33 0 66 -8
q35 -8 76 -39t162 -73q56 1 76 8z" />
    <glyph glyph-name="Ograve" unicode="&#xd2;" horiz-adv-x="1345" 
d="M1094 1116v25q0 142 -21 200q-23 62 -45 74q-13 7 -26 7q-10 0 -20 -4q-25 -9 -53.5 -46.5t-29.5 -81.5q-1 -4 -1 -7q0 -40 16 -76q17 -39 52 -64.5t128 -26.5zM1274 1176q26 32 43.5 70t39.5 62q20 22 37 22h2q18 -2 28 -21q5 -10 5 -29q0 -15 -3 -36q-9 -47 -50 -112.5
t-176 -145.5q-30 -205 -47.5 -292.5t-42 -168t-70 -180t-138.5 -195.5t-223 -135q-89 -28 -167 -28q-35 0 -68 6q-105 18 -174.5 75.5t-114 173.5t-46.5 230v24q0 106 16 242q17 151 80 319t155.5 279t199.5 162t164 63q48 10 68 10h6q18 -2 33 -24q10 -15 10 -31
q0 -7 -2 -15q-8 -23 -19.5 -31t-47.5 -13.5t-82.5 -24.5t-103.5 -57t-111 -98.5t-105.5 -168.5t-82.5 -218t-44 -224q-10 -84 -10 -155q0 -26 1 -51q5 -91 47.5 -176.5t110.5 -124.5q52 -30 130 -30q24 0 51 3q112 12 206.5 82t167 225.5t136.5 533.5q-108 5 -174 48
t-94.5 95t-31.5 115q-1 15 -1 29q0 49 9 98q11 64 51 119t91 78q29 13 65 13q27 0 59 -7q73 -17 107 -130t41 -299q43 12 69 44zM871 1712v-4q0 -14 -13 -21q-7 -5 -16 -5t-20 6q-22 9 -124 130.5t-109 147.5q-3 8 -3 15q0 17 11 30q15 20 32 25q11 3 23 3h12
q17 -3 38.5 -17.5t148.5 -273.5q18 -20 20 -36z" />
    <glyph glyph-name="Oacute" unicode="&#xd3;" horiz-adv-x="1345" 
d="M1094 1116v25q0 142 -21 200q-23 62 -45 74q-13 7 -26 7q-10 0 -20 -4q-25 -9 -53.5 -46.5t-29.5 -81.5q-1 -4 -1 -7q0 -40 16 -76q17 -39 52 -64.5t128 -26.5zM1274 1176q26 32 43.5 70t39.5 62q20 22 37 22h2q18 -2 28 -21q5 -10 5 -29q0 -15 -3 -36q-9 -47 -50 -112.5
t-176 -145.5q-30 -205 -47.5 -292.5t-42 -168t-70 -180t-138.5 -195.5t-223 -135q-89 -28 -167 -28q-35 0 -68 6q-105 18 -174.5 75.5t-114 173.5t-46.5 230v24q0 106 16 242q17 151 80 319t155.5 279t199.5 162t164 63q48 10 68 10h6q18 -2 33 -24q10 -15 10 -31
q0 -7 -2 -15q-8 -23 -19.5 -31t-47.5 -13.5t-82.5 -24.5t-103.5 -57t-111 -98.5t-105.5 -168.5t-82.5 -218t-44 -224q-10 -84 -10 -155q0 -26 1 -51q5 -91 47.5 -176.5t110.5 -124.5q52 -30 130 -30q24 0 51 3q112 12 206.5 82t167 225.5t136.5 533.5q-108 5 -174 48
t-94.5 95t-31.5 115q-1 15 -1 29q0 49 9 98q11 64 51 119t91 78q29 13 65 13q27 0 59 -7q73 -17 107 -130t41 -299q43 12 69 44zM821 1749q227 259 248.5 273t38.5 17h11q12 0 24 -3q17 -5 33 -25q10 -13 10 -29q0 -8 -3 -17q-8 -26 -160 -147.5t-173 -130.5q-11 -5 -20 -5
t-16 5q-13 7 -13 21v4q2 16 20 37z" />
    <glyph glyph-name="Ocircumflex" unicode="&#xd4;" horiz-adv-x="1345" 
d="M1094 1116v25q0 142 -21 200q-23 62 -45 74q-13 7 -26 7q-10 0 -20 -4q-25 -9 -53.5 -46.5t-29.5 -81.5q-1 -4 -1 -7q0 -40 16 -76q17 -39 52 -64.5t128 -26.5zM1274 1176q26 32 43.5 70t39.5 62q20 22 37 22h2q18 -2 28 -21q5 -10 5 -29q0 -15 -3 -36q-9 -47 -50 -112.5
t-176 -145.5q-30 -205 -47.5 -292.5t-42 -168t-70 -180t-138.5 -195.5t-223 -135q-89 -28 -167 -28q-35 0 -68 6q-105 18 -174.5 75.5t-114 173.5t-46.5 230v24q0 106 16 242q17 151 80 319t155.5 279t199.5 162t164 63q48 10 68 10h6q18 -2 33 -24q10 -15 10 -31
q0 -7 -2 -15q-8 -23 -19.5 -31t-47.5 -13.5t-82.5 -24.5t-103.5 -57t-111 -98.5t-105.5 -168.5t-82.5 -218t-44 -224q-10 -84 -10 -155q0 -26 1 -51q5 -91 47.5 -176.5t110.5 -124.5q52 -30 130 -30q24 0 51 3q112 12 206.5 82t167 225.5t136.5 533.5q-108 5 -174 48
t-94.5 95t-31.5 115q-1 15 -1 29q0 49 9 98q11 64 51 119t91 78q29 13 65 13q27 0 59 -7q73 -17 107 -130t41 -299q43 12 69 44zM916.5 2027.5q14.5 -7.5 101.5 -156.5q84 -146 84 -165v-1q-3 -17 -17 -20q-3 -1 -7 -1q-12 0 -26 10q-19 12 -188 187q-250 -203 -269 -205
q-3 -1 -5 -1q-16 0 -23 16q-3 7 -3 14q0 10 6 20q11 16 124 144.5t131.5 146t52.5 21.5q24 -2 38.5 -9.5z" />
    <glyph glyph-name="Otilde" unicode="&#xd5;" horiz-adv-x="1345" 
d="M1094 1116v25q0 142 -21 200q-23 62 -45 74q-13 7 -26 7q-10 0 -20 -4q-25 -9 -53.5 -46.5t-29.5 -81.5q-1 -4 -1 -7q0 -40 16 -76q17 -39 52 -64.5t128 -26.5zM1274 1176q26 32 43.5 70t39.5 62q20 22 37 22h2q18 -2 28 -21q5 -10 5 -29q0 -15 -3 -36q-9 -47 -50 -112.5
t-176 -145.5q-30 -205 -47.5 -292.5t-42 -168t-70 -180t-138.5 -195.5t-223 -135q-89 -28 -167 -28q-35 0 -68 6q-105 18 -174.5 75.5t-114 173.5t-46.5 230v24q0 106 16 242q17 151 80 319t155.5 279t199.5 162t164 63q48 10 68 10h6q18 -2 33 -24q10 -15 10 -31
q0 -7 -2 -15q-8 -23 -19.5 -31t-47.5 -13.5t-82.5 -24.5t-103.5 -57t-111 -98.5t-105.5 -168.5t-82.5 -218t-44 -224q-10 -84 -10 -155q0 -26 1 -51q5 -91 47.5 -176.5t110.5 -124.5q52 -30 130 -30q24 0 51 3q112 12 206.5 82t167 225.5t136.5 533.5q-108 5 -174 48
t-94.5 95t-31.5 115q-1 15 -1 29q0 49 9 98q11 64 51 119t91 78q29 13 65 13q27 0 59 -7q73 -17 107 -130t41 -299q43 12 69 44zM1210 1920q20 7 30 30.5t16.5 49.5t23.5 29q3 1 6 1q13 0 23 -9q7 -6 7 -23q0 -11 -4 -28q-9 -40 -30 -81t-47.5 -62.5t-58.5 -23.5
q-10 -1 -19 -1q-24 0 -50 4q-37 5 -65 17.5t-60.5 29.5t-68.5 34t-75 22q-14 2 -26 2q-23 0 -39 -6q-25 -10 -35.5 -25t-16 -36.5t-23.5 -34.5q-13 -9 -22 -9q-4 0 -7 2q-11 5 -15 17q-2 5 -2 13q0 10 3 24q5 24 15.5 58.5t39.5 64.5t55 41t61 12h4q33 0 66 -8q35 -8 76 -39
t162 -73q56 1 76 8z" />
    <glyph glyph-name="Odieresis" unicode="&#xd6;" horiz-adv-x="1345" 
d="M1094 1116v25q0 142 -21 200q-23 62 -45 74q-13 7 -26 7q-10 0 -20 -4q-25 -9 -53.5 -46.5t-29.5 -81.5q-1 -4 -1 -7q0 -40 16 -76q17 -39 52 -64.5t128 -26.5zM1274 1176q26 32 43.5 70t39.5 62q20 22 37 22h2q18 -2 28 -21q5 -10 5 -29q0 -15 -3 -36q-9 -47 -50 -112.5
t-176 -145.5q-30 -205 -47.5 -292.5t-42 -168t-70 -180t-138.5 -195.5t-223 -135q-89 -28 -167 -28q-35 0 -68 6q-105 18 -174.5 75.5t-114 173.5t-46.5 230v24q0 106 16 242q17 151 80 319t155.5 279t199.5 162t164 63q48 10 68 10h6q18 -2 33 -24q10 -15 10 -31
q0 -7 -2 -15q-8 -23 -19.5 -31t-47.5 -13.5t-82.5 -24.5t-103.5 -57t-111 -98.5t-105.5 -168.5t-82.5 -218t-44 -224q-10 -84 -10 -155q0 -26 1 -51q5 -91 47.5 -176.5t110.5 -124.5q52 -30 130 -30q24 0 51 3q112 12 206.5 82t167 225.5t136.5 533.5q-108 5 -174 48
t-94.5 95t-31.5 115q-1 15 -1 29q0 49 9 98q11 64 51 119t91 78q29 13 65 13q27 0 59 -7q73 -17 107 -130t41 -299q43 12 69 44zM762 1886.5q30 -30.5 30 -72.5q0 -43 -30 -73t-73 -30t-73 30t-30 73q0 42 30 72.5t73 30.5t73 -30.5zM1162 1886.5q30 -30.5 30 -72.5
q0 -43 -30 -73t-73 -30t-73 30t-30 73q0 42 30 72.5t73 30.5t73 -30.5z" />
    <glyph glyph-name="multiply" unicode="&#xd7;" horiz-adv-x="910" 
d="M490 826q-159 262 -170 292q-5 11 -5 23q0 18 11 36q14 22 40 22q8 0 18 -2q40 -10 201 -292q348 276 369 284.5t47 8.5q25 0 36 -23q4 -10 4 -18q0 -14 -10 -27q-17 -21 -36 -41t-358 -288q186 -298 199 -327q7 -15 7 -29q0 -13 -7 -26q-10 -19 -35 -19q-8 0 -17 2
q-39 7 -229 321q-348 -302 -376 -314q-10 -5 -19 -5q-18 0 -32 16q-13 14 -13 32q0 11 6 24q14 32 369 350z" />
    <glyph glyph-name="Oslash" unicode="&#xd8;" horiz-adv-x="1345" 
d="M1088 1116v25q0 142 -21 200q-23 62 -45 74q-13 7 -26 7q-10 0 -20 -4q-25 -9 -53.5 -46.5t-29.5 -81.5q-1 -4 -1 -7q0 -40 16 -76q17 -39 52 -64.5t128 -26.5zM1268 1176q26 32 43.5 70t39.5 62q20 22 37 22h2q18 -2 28 -21q5 -10 5 -29q0 -15 -3 -36q-9 -47 -50 -112.5
t-176 -145.5q-30 -205 -47.5 -292.5t-42 -168t-70 -180t-138.5 -195.5t-223 -135q-89 -28 -167 -28q-35 0 -68 6q-105 18 -174.5 75.5t-114 173.5t-46.5 230v24q0 106 16 242q17 151 80 319t155.5 279t199.5 162t164 63q48 10 68 10h6q18 -2 33 -24q10 -15 10 -31
q0 -7 -2 -15q-8 -23 -19.5 -31t-47.5 -13.5t-82.5 -24.5t-103.5 -57t-111 -98.5t-105.5 -168.5t-82.5 -218t-44 -224q-10 -84 -10 -155q0 -26 1 -51q5 -91 47.5 -176.5t110.5 -124.5q52 -30 130 -30q24 0 51 3q112 12 206.5 82t167 225.5t136.5 533.5q-108 5 -174 48
t-94.5 95t-31.5 115q-1 15 -1 29q0 49 9 98q11 64 51 119t91 78q29 13 65 13q27 0 59 -7q73 -17 107 -130t41 -299q43 12 69 44zM573 775.5q457 1015.5 476 1070.5t69 59h4q43 0 43 -62v-9q-4 -74 -446 -1061t-462.5 -1049t-45.5 -92q-21 -25 -53 -25q-8 0 -16 1
q-36 6 -36 57q0 11 2 23q8 72 465 1087.5z" />
    <glyph glyph-name="Ugrave" unicode="&#xd9;" horiz-adv-x="2050" 
d="M620.5 930.5q29.5 56.5 35 96.5t23.5 69.5t46 36.5q7 2 14 2q18 0 30 -13q9 -11 9 -41q0 -21 -4 -50q-11 -73 -47.5 -155.5t-95 -139t-127.5 -79.5q-48 -17 -95 -17q-22 0 -44 4q-69 11 -118 62.5t-71.5 113t-23.5 162.5q-1 2 -1 5q0 98 56 227q56 131 140 209.5t164 124
t159 60.5q44 8 87 8q33 0 64 -5q73 -11 144 -60t102 -111.5t44 -203.5q3 -42 3 -83q0 -100 -21 -200q-31 -141 -74.5 -287t-61.5 -270q-6 -37 -6 -68q0 -74 31 -116q43 -61 164 -69q13 -1 26 -1q104 0 189 61q95 69 139 173t148 626t116.5 554.5t49.5 38.5q11 1 20 1
q22 0 36 -8q17 -11 17 -38v-10q-4 -35 -122.5 -600.5t-125.5 -623.5q-5 -39 -5 -73q0 -18 1 -35q4 -49 42 -69q16 -9 34 -9q23 0 50 16q45 27 93.5 68t95.5 90t62 68q14 17 47 17h4q36 -1 36 -46t-55 -113t-153.5 -146.5t-167.5 -85.5q-20 -2 -37 -2q-43 0 -69 13
q-37 18 -64.5 51t-38.5 110q-102 -102 -182 -131.5t-180 -29.5q-101 0 -174 34.5t-111 100.5t-42 161v12q0 97 57 311q60 228 84 363q17 102 17 186q0 26 -1 51q-8 102 -57 181q-47 75 -149 75h-9q-110 -4 -205 -53.5t-148 -113t-95 -172.5q-32 -84 -32 -175q0 -29 3 -57
q13 -123 103 -137q18 -3 35 -3q65 0 109 45q54 56 83.5 112.5zM1511 1728v-4q0 -14 -13 -21q-7 -5 -16 -5t-20 6q-22 9 -124 130.5t-109 147.5q-3 8 -3 15q0 17 11 30q15 20 32 25q11 3 23 3h12q17 -3 38.5 -17.5t148.5 -273.5q18 -20 20 -36z" />
    <glyph glyph-name="Uacute" unicode="&#xda;" horiz-adv-x="2050" 
d="M620.5 930.5q29.5 56.5 35 96.5t23.5 69.5t46 36.5q7 2 14 2q18 0 30 -13q9 -11 9 -41q0 -21 -4 -50q-11 -73 -47.5 -155.5t-95 -139t-127.5 -79.5q-48 -17 -95 -17q-22 0 -44 4q-69 11 -118 62.5t-71.5 113t-23.5 162.5q-1 2 -1 5q0 98 56 227q56 131 140 209.5t164 124
t159 60.5q44 8 87 8q33 0 64 -5q73 -11 144 -60t102 -111.5t44 -203.5q3 -42 3 -83q0 -100 -21 -200q-31 -141 -74.5 -287t-61.5 -270q-6 -37 -6 -68q0 -74 31 -116q43 -61 164 -69q13 -1 26 -1q104 0 189 61q95 69 139 173t148 626t116.5 554.5t49.5 38.5q11 1 20 1
q22 0 36 -8q17 -11 17 -38v-10q-4 -35 -122.5 -600.5t-125.5 -623.5q-5 -39 -5 -73q0 -18 1 -35q4 -49 42 -69q16 -9 34 -9q23 0 50 16q45 27 93.5 68t95.5 90t62 68q14 17 47 17h4q36 -1 36 -46t-55 -113t-153.5 -146.5t-167.5 -85.5q-20 -2 -37 -2q-43 0 -69 13
q-37 18 -64.5 51t-38.5 110q-102 -102 -182 -131.5t-180 -29.5q-101 0 -174 34.5t-111 100.5t-42 161v12q0 97 57 311q60 228 84 363q17 102 17 186q0 26 -1 51q-8 102 -57 181q-47 75 -149 75h-9q-110 -4 -205 -53.5t-148 -113t-95 -172.5q-32 -84 -32 -175q0 -29 3 -57
q13 -123 103 -137q18 -3 35 -3q65 0 109 45q54 56 83.5 112.5zM1361 1765q227 259 248.5 273t38.5 17h11q12 0 24 -3q17 -5 33 -25q10 -13 10 -29q0 -8 -3 -17q-8 -26 -160 -147.5t-173 -130.5q-11 -5 -20 -5t-16 5q-13 7 -13 21v4q2 16 20 37z" />
    <glyph glyph-name="Ucircumflex" unicode="&#xdb;" horiz-adv-x="2050" 
d="M620.5 930.5q29.5 56.5 35 96.5t23.5 69.5t46 36.5q7 2 14 2q18 0 30 -13q9 -11 9 -41q0 -21 -4 -50q-11 -73 -47.5 -155.5t-95 -139t-127.5 -79.5q-48 -17 -95 -17q-22 0 -44 4q-69 11 -118 62.5t-71.5 113t-23.5 162.5q-1 2 -1 5q0 98 56 227q56 131 140 209.5t164 124
t159 60.5q44 8 87 8q33 0 64 -5q73 -11 144 -60t102 -111.5t44 -203.5q3 -42 3 -83q0 -100 -21 -200q-31 -141 -74.5 -287t-61.5 -270q-6 -37 -6 -68q0 -74 31 -116q43 -61 164 -69q13 -1 26 -1q104 0 189 61q95 69 139 173t148 626t116.5 554.5t49.5 38.5q11 1 20 1
q22 0 36 -8q17 -11 17 -38v-10q-4 -35 -122.5 -600.5t-125.5 -623.5q-5 -39 -5 -73q0 -18 1 -35q4 -49 42 -69q16 -9 34 -9q23 0 50 16q45 27 93.5 68t95.5 90t62 68q14 17 47 17h4q36 -1 36 -46t-55 -113t-153.5 -146.5t-167.5 -85.5q-20 -2 -37 -2q-43 0 -69 13
q-37 18 -64.5 51t-38.5 110q-102 -102 -182 -131.5t-180 -29.5q-101 0 -174 34.5t-111 100.5t-42 161v12q0 97 57 311q60 228 84 363q17 102 17 186q0 26 -1 51q-8 102 -57 181q-47 75 -149 75h-9q-110 -4 -205 -53.5t-148 -113t-95 -172.5q-32 -84 -32 -175q0 -29 3 -57
q13 -123 103 -137q18 -3 35 -3q65 0 109 45q54 56 83.5 112.5zM1556.5 2043.5q14.5 -7.5 101.5 -156.5q84 -146 84 -165v-1q-3 -17 -17 -20q-3 -1 -7 -1q-12 0 -26 10q-19 12 -188 187q-250 -203 -269 -205q-3 -1 -5 -1q-16 0 -23 16q-3 7 -3 14q0 10 6 20q11 16 124 144.5
t131.5 146t52.5 21.5q24 -2 38.5 -9.5z" />
    <glyph glyph-name="Udieresis" unicode="&#xdc;" horiz-adv-x="2050" 
d="M620.5 930.5q29.5 56.5 35 96.5t23.5 69.5t46 36.5q7 2 14 2q18 0 30 -13q9 -11 9 -41q0 -21 -4 -50q-11 -73 -47.5 -155.5t-95 -139t-127.5 -79.5q-48 -17 -95 -17q-22 0 -44 4q-69 11 -118 62.5t-71.5 113t-23.5 162.5q-1 2 -1 5q0 98 56 227q56 131 140 209.5t164 124
t159 60.5q44 8 87 8q33 0 64 -5q73 -11 144 -60t102 -111.5t44 -203.5q3 -42 3 -83q0 -100 -21 -200q-31 -141 -74.5 -287t-61.5 -270q-6 -37 -6 -68q0 -74 31 -116q43 -61 164 -69q13 -1 26 -1q104 0 189 61q95 69 139 173t148 626t116.5 554.5t49.5 38.5q11 1 20 1
q22 0 36 -8q17 -11 17 -38v-10q-4 -35 -122.5 -600.5t-125.5 -623.5q-5 -39 -5 -73q0 -18 1 -35q4 -49 42 -69q16 -9 34 -9q23 0 50 16q45 27 93.5 68t95.5 90t62 68q14 17 47 17h4q36 -1 36 -46t-55 -113t-153.5 -146.5t-167.5 -85.5q-20 -2 -37 -2q-43 0 -69 13
q-37 18 -64.5 51t-38.5 110q-102 -102 -182 -131.5t-180 -29.5q-101 0 -174 34.5t-111 100.5t-42 161v12q0 97 57 311q60 228 84 363q17 102 17 186q0 26 -1 51q-8 102 -57 181q-47 75 -149 75h-9q-110 -4 -205 -53.5t-148 -113t-95 -172.5q-32 -84 -32 -175q0 -29 3 -57
q13 -123 103 -137q18 -3 35 -3q65 0 109 45q54 56 83.5 112.5zM1301 1902.5q30 -30.5 30 -72.5q0 -43 -30 -73t-73 -30t-73 30t-30 73q0 42 30 72.5t73 30.5t73 -30.5zM1701 1902.5q30 -30.5 30 -72.5q0 -43 -30 -73t-73 -30t-73 30t-30 73q0 42 30 72.5t73 30.5t73 -30.5z
" />
    <glyph glyph-name="Yacute" unicode="&#xdd;" horiz-adv-x="1342" 
d="M351 -70q-2 -9 -2 -18q0 -83 152 -83q233 21 314 276q-53 3 -100 3q-147 0 -233 -33q-114 -44 -131 -145zM438 1076q11 -14 11 -32q0 -6 -1 -12q-5 -27 -32 -30q-6 -1 -12 -1q-23 0 -51 9q-37 10 -73 32t-59 60t-27 108q-2 16 -2 31q0 51 13 94q15 54 45.5 101.5t80.5 79
t105 46.5q50 14 92 14h9q45 -2 84 -20t71 -63q25 -37 25 -110q0 -17 -1 -36q-8 -101 -27.5 -180.5t-61.5 -239t-42 -209.5q-1 -2 -1 -4q0 -47 11 -70q11 -24 39 -35q21 -8 53 -8q10 0 22 1q46 3 90.5 17.5t96.5 62t90.5 113t120.5 401.5t101 359.5t44 30.5q9 2 16 2
q15 0 28 -8q18 -13 20 -33v-1q0 -27 -68 -305q-71 -286 -275 -1015q53 5 94.5 21.5t92 38.5t104 74t74.5 65q15 9 31 9q6 0 12 -1q22 -5 31 -20q7 -12 7 -30v-9q-2 -24 -44.5 -63.5t-129.5 -106.5t-299 -101q-49 -132 -87.5 -192.5t-88 -108.5t-143.5 -79q-69 -22 -134 -22
q-26 0 -51 3q-90 12 -142 49t-66 90q-11 40 -11 79q0 11 1 22q4 48 38 104.5t99 100.5t162 67q53 13 146 13q76 0 180 -9l118 376q-17 -23 -80 -69.5t-164 -56.5q-22 -3 -43 -3q-71 0 -117 29q-59 37 -75.5 69t-17.5 97q-1 1 -1 2q0 68 65 321q66 259 76 318q6 39 6 69
q0 16 -2 29q-5 39 -59 52q-23 5 -46 5q-33 0 -68 -11q-60 -18 -97 -64.5t-46 -107.5q-4 -20 -4 -37q0 -38 15 -65q20 -40 67.5 -59.5t61.5 -37.5zM942 1749q227 259 248.5 273t38.5 17h11q12 0 24 -3q17 -5 33 -25q10 -13 10 -29q0 -8 -3 -17q-8 -26 -160 -147.5
t-173 -130.5q-11 -5 -20 -5t-16 5q-13 7 -13 21v4q2 16 20 37z" />
    <glyph glyph-name="Thorn" unicode="&#xde;" horiz-adv-x="1209" 
d="M495 1565q21 -33 -40 -379h139q552 0 552 -321q0 -248 -299 -380q-194 -67 -542 -67h-15q-62 -418 -144 -418q-52 0 -47 60t86 478t143 723t104 321t63 -17zM425 1066l-105 -529h8q551 0 653 194q30 43 45 134q0 119 -134 172q-137 29 -306 29h-161z" />
    <glyph glyph-name="germandbls" unicode="&#xdf;" horiz-adv-x="941" 
d="M671 1575q237 0 299 -184q23 -50 23 -123v-23q0 -275 -344 -346v-8q215 -184 215 -353q-28 -317 -174.5 -434t-301.5 -104h-46q-185 0 -185 69v8q0 43 39 54l192 -8q289 27 346 353l7 62q0 138 -299 361l-8 31v7q0 62 131 62q305 70 305 230v39q-20 184 -199 184
q-315 0 -429 -568q-62 -213 -184 -846l-47 -15h-7q-54 0 -54 54q131 802 269 1145q175 353 452 353z" />
    <glyph glyph-name="agrave" unicode="&#xe0;" horiz-adv-x="805" 
d="M499 570q-7 66 -37 95t-67 36q-8 1 -17 1q-33 0 -81 -21q-60 -28 -108.5 -101.5t-63 -142.5t-16.5 -138v-13q0 -59 17 -90q18 -35 45 -49q9 -5 22 -5q24 0 59 16q54 24 116.5 102t81.5 144t49 166zM592 818q13 4 26 4q9 0 19 -2q21 -7 22 -45v-1q0 -40 -49 -222
q-49 -184 -64 -263q-10 -55 -10 -83q0 -13 2 -20q6 -24 25 -41t43 -17q23 0 65 27t95 119t72 108q15 12 25 12q2 0 4 -1q10 -4 21.5 -20t15.5 -32q2 -6 2 -13q0 -11 -4 -23q-6 -20 -72 -131.5t-124 -139t-102 -32.5q-8 -1 -15 -1q-37 0 -74 23q-45 27 -92 135
q-49 -67 -91 -103t-112 -43q-15 -2 -29 -2q-51 0 -85 21q-44 27 -68.5 80t-31.5 139q-2 24 -2 50q0 66 13 143q17 107 66 182.5t97 123.5t104 67q42 14 95 14q17 0 35 -1q74 -6 129 -117q26 96 49 105zM450 963v-4q0 -14 -13 -21q-7 -5 -16 -5t-20 6q-22 9 -124 130.5
t-109 147.5q-3 8 -3 15q0 17 11 30q15 20 32 25q11 3 23 3h12q17 -3 38.5 -17.5t148.5 -273.5q18 -20 20 -36z" />
    <glyph glyph-name="aacute" unicode="&#xe1;" horiz-adv-x="805" 
d="M499 570q-7 66 -37 95t-67 36q-8 1 -17 1q-33 0 -81 -21q-60 -28 -108.5 -101.5t-63 -142.5t-16.5 -138v-13q0 -59 17 -90q18 -35 45 -49q9 -5 22 -5q24 0 59 16q54 24 116.5 102t81.5 144t49 166zM592 818q13 4 26 4q9 0 19 -2q21 -7 22 -45v-1q0 -40 -49 -222
q-49 -184 -64 -263q-10 -55 -10 -83q0 -13 2 -20q6 -24 25 -41t43 -17q23 0 65 27t95 119t72 108q15 12 25 12q2 0 4 -1q10 -4 21.5 -20t15.5 -32q2 -6 2 -13q0 -11 -4 -23q-6 -20 -72 -131.5t-124 -139t-102 -32.5q-8 -1 -15 -1q-37 0 -74 23q-45 27 -92 135
q-49 -67 -91 -103t-112 -43q-15 -2 -29 -2q-51 0 -85 21q-44 27 -68.5 80t-31.5 139q-2 24 -2 50q0 66 13 143q17 107 66 182.5t97 123.5t104 67q42 14 95 14q17 0 35 -1q74 -6 129 -117q26 96 49 105zM347 1000q227 259 248.5 273t38.5 17h11q12 0 24 -3q17 -5 33 -25
q10 -13 10 -29q0 -8 -3 -17q-8 -26 -160 -147.5t-173 -130.5q-11 -5 -20 -5t-16 5q-13 7 -13 21v4q2 16 20 37z" />
    <glyph glyph-name="acircumflex" unicode="&#xe2;" horiz-adv-x="805" 
d="M499 570q-7 66 -37 95t-67 36q-8 1 -17 1q-33 0 -81 -21q-60 -28 -108.5 -101.5t-63 -142.5t-16.5 -138v-13q0 -59 17 -90q18 -35 45 -49q9 -5 22 -5q24 0 59 16q54 24 116.5 102t81.5 144t49 166zM592 818q13 4 26 4q9 0 19 -2q21 -7 22 -45v-1q0 -40 -49 -222
q-49 -184 -64 -263q-10 -55 -10 -83q0 -13 2 -20q6 -24 25 -41t43 -17q23 0 65 27t95 119t72 108q15 12 25 12q2 0 4 -1q10 -4 21.5 -20t15.5 -32q2 -6 2 -13q0 -11 -4 -23q-6 -20 -72 -131.5t-124 -139t-102 -32.5q-8 -1 -15 -1q-37 0 -74 23q-45 27 -92 135
q-49 -67 -91 -103t-112 -43q-15 -2 -29 -2q-51 0 -85 21q-44 27 -68.5 80t-31.5 139q-2 24 -2 50q0 66 13 143q17 107 66 182.5t97 123.5t104 67q42 14 95 14q17 0 35 -1q74 -6 129 -117q26 96 49 105zM538.5 1278.5q14.5 -7.5 101.5 -156.5q84 -146 84 -165v-1
q-3 -17 -17 -20q-3 -1 -7 -1q-12 0 -26 10q-19 12 -188 187q-250 -203 -269 -205q-3 -1 -5 -1q-16 0 -23 16q-3 7 -3 14q0 10 6 20q11 16 124 144.5t131.5 146t52.5 21.5q24 -2 38.5 -9.5z" />
    <glyph glyph-name="atilde" unicode="&#xe3;" horiz-adv-x="805" 
d="M499 570q-7 66 -37 95t-67 36q-8 1 -17 1q-33 0 -81 -21q-60 -28 -108.5 -101.5t-63 -142.5t-16.5 -138v-13q0 -59 17 -90q18 -35 45 -49q9 -5 22 -5q24 0 59 16q54 24 116.5 102t81.5 144t49 166zM592 818q13 4 26 4q9 0 19 -2q21 -7 22 -45v-1q0 -40 -49 -222
q-49 -184 -64 -263q-10 -55 -10 -83q0 -13 2 -20q6 -24 25 -41t43 -17q23 0 65 27t95 119t72 108q15 12 25 12q2 0 4 -1q10 -4 21.5 -20t15.5 -32q2 -6 2 -13q0 -11 -4 -23q-6 -20 -72 -131.5t-124 -139t-102 -32.5q-8 -1 -15 -1q-37 0 -74 23q-45 27 -92 135
q-49 -67 -91 -103t-112 -43q-15 -2 -29 -2q-51 0 -85 21q-44 27 -68.5 80t-31.5 139q-2 24 -2 50q0 66 13 143q17 107 66 182.5t97 123.5t104 67q42 14 95 14q17 0 35 -1q74 -6 129 -117q26 96 49 105zM681 1071q20 7 30 30.5t16.5 49.5t23.5 29q3 1 6 1q13 0 23 -9
q7 -6 7 -23q0 -11 -4 -28q-9 -40 -30 -81t-47.5 -62.5t-58.5 -23.5q-10 -1 -19 -1q-24 0 -50 4q-37 5 -65 17.5t-60.5 29.5t-68.5 34t-75 22q-14 2 -26 2q-23 0 -39 -6q-25 -10 -35.5 -25t-16 -36.5t-23.5 -34.5q-13 -9 -22 -9q-4 0 -7 2q-11 5 -15 17q-2 5 -2 13q0 10 3 24
q5 24 15.5 58.5t39.5 64.5t55 41t61 12h4q33 0 66 -8q35 -8 76 -39t162 -73q56 1 76 8z" />
    <glyph glyph-name="adieresis" unicode="&#xe4;" horiz-adv-x="805" 
d="M499 570q-7 66 -37 95t-67 36q-8 1 -17 1q-33 0 -81 -21q-60 -28 -108.5 -101.5t-63 -142.5t-16.5 -138v-13q0 -59 17 -90q18 -35 45 -49q9 -5 22 -5q24 0 59 16q54 24 116.5 102t81.5 144t49 166zM592 818q13 4 26 4q9 0 19 -2q21 -7 22 -45v-1q0 -40 -49 -222
q-49 -184 -64 -263q-10 -55 -10 -83q0 -13 2 -20q6 -24 25 -41t43 -17q23 0 65 27t95 119t72 108q15 12 25 12q2 0 4 -1q10 -4 21.5 -20t15.5 -32q2 -6 2 -13q0 -11 -4 -23q-6 -20 -72 -131.5t-124 -139t-102 -32.5q-8 -1 -15 -1q-37 0 -74 23q-45 27 -92 135
q-49 -67 -91 -103t-112 -43q-15 -2 -29 -2q-51 0 -85 21q-44 27 -68.5 80t-31.5 139q-2 24 -2 50q0 66 13 143q17 107 66 182.5t97 123.5t104 67q42 14 95 14q17 0 35 -1q74 -6 129 -117q26 96 49 105zM328 1137.5q30 -30.5 30 -72.5q0 -43 -30 -73t-73 -30t-73 30t-30 73
q0 42 30 72.5t73 30.5t73 -30.5zM728 1137.5q30 -30.5 30 -72.5q0 -43 -30 -73t-73 -30t-73 30t-30 73q0 42 30 72.5t73 30.5t73 -30.5z" />
    <glyph glyph-name="aring" unicode="&#xe5;" horiz-adv-x="805" 
d="M631.5 1328.5q73.5 -73.5 73.5 -176.5q0 -104 -73.5 -177t-176.5 -73q-104 0 -177 73t-73 177q0 103 73 176.5t177 73.5q103 0 176.5 -73.5zM560.5 1042.5q42.5 42.5 42.5 103.5t-42.5 103.5t-103.5 42.5t-103.5 -42.5t-42.5 -103.5t42.5 -103.5t103.5 -42.5t103.5 42.5z
M499 570q-7 66 -37 95t-67 36q-8 1 -17 1q-33 0 -81 -21q-60 -28 -108.5 -101.5t-63 -142.5t-16.5 -138v-13q0 -59 17 -90q18 -35 45 -49q9 -5 22 -5q24 0 59 16q54 24 116.5 102t81.5 144t49 166zM592 818q13 4 26 4q9 0 19 -2q21 -7 22 -45v-1q0 -40 -49 -222
q-49 -184 -64 -263q-10 -55 -10 -83q0 -13 2 -20q6 -24 25 -41t43 -17q23 0 65 27t95 119t72 108q15 12 25 12q2 0 4 -1q10 -4 21.5 -20t15.5 -32q2 -6 2 -13q0 -11 -4 -23q-6 -20 -72 -131.5t-124 -139t-102 -32.5q-8 -1 -15 -1q-37 0 -74 23q-45 27 -92 135
q-49 -67 -91 -103t-112 -43q-15 -2 -29 -2q-51 0 -85 21q-44 27 -68.5 80t-31.5 139q-2 24 -2 50q0 66 13 143q17 107 66 182.5t97 123.5t104 67q42 14 95 14q17 0 35 -1q74 -6 129 -117q26 96 49 105z" />
    <glyph glyph-name="ae" unicode="&#xe6;" horiz-adv-x="1108" 
d="M499 570q-7 66 -37 95t-67 36q-8 1 -17 1q-33 0 -81 -21q-60 -28 -108.5 -101.5t-63 -142.5t-16.5 -138v-13q0 -59 17 -90q18 -35 45 -49q9 -5 22 -5q24 0 59 16q54 24 116.5 102t81.5 144t49 166zM592 818q13 4 26 4q9 0 19 -2q21 -7 22 -45v-1q0 -40 -49 -222
q-49 -184 -112.5 -285t-135.5 -174t-142 -80q-15 -2 -29 -2q-51 0 -85 21q-44 27 -68.5 80t-31.5 139q-2 24 -2 50q0 66 13 143q17 107 66 182.5t97 123.5t104 67q42 14 95 14q17 0 35 -1q74 -6 129 -117q26 96 49 105zM576 299v-17q0 -80 18 -106q20 -29 65 -39
q18 -4 42 -4q34 0 79 9q76 14 137.5 59t109 98.5t72.5 77.5q23 22 56 22h3q34 -1 41 -37q2 -9 2 -17q0 -27 -17 -51q-23 -33 -108.5 -115.5t-188.5 -127.5t-180 -47q-9 -1 -17 -1q-66 0 -113 18q-53 20 -87.5 77.5t-35.5 156.5v9q0 94 19 189q20 100 75 193t116.5 126.5
t95 41.5t80.5 9h6q44 0 83 -14q41 -16 62.5 -56.5t27.5 -80.5q1 -12 1 -26q0 -35 -9 -85q-14 -71 -94.5 -152t-340.5 -110zM772 454q55 18 85.5 47.5t44.5 63.5q10 26 10 48v11q-4 25 -23 48.5t-51 28.5h-14q-28 0 -63 -14q-44 -18 -80 -57t-92 -201q128 7 183 25z" />
    <glyph glyph-name="ccedilla" unicode="&#xe7;" horiz-adv-x="615" 
d="M83 286v-8q0 -80 22 -107q22 -29 64 -39q23 -5 49 -5q22 0 47 4q53 8 134 58t134.5 108t77.5 80q21 19 49 19h9q34 -4 39 -40v-13q0 -30 -16 -56q-21 -32 -115 -115t-191 -126t-172 -45h-13q-67 0 -115 19q-53 20 -87.5 77.5t-34.5 160.5q0 102 28.5 212.5t77 185.5
t107 112t93.5 43t82 6q46 0 85 -12.5t64 -52.5q23 -38 23 -63v-3q-2 -26 -15 -43t-26 -24q-9 -5 -19 -5q-7 0 -13 2q-19 4 -26 22.5t-27 41t-57 26.5q-7 1 -14 1q-31 0 -64 -15q-40 -19 -81 -76.5t-69.5 -150.5t-29.5 -179zM428 -210q20 -46 20 -105v-17q-4 -70 -19 -112
t-63.5 -68t-107.5 -31q-13 -2 -25 -2q-44 0 -78 16q-44 19 -79.5 48.5t-44.5 49.5q-7 14 -7 26q0 6 2 11q4 17 12 27.5t25 17.5q7 3 16 3q8 0 18 -4q17 -7 48 -33t61 -35q20 -7 40 -7q9 0 19 2q28 4 51 20t33 36q8 17 8 46v7q-1 33 -12.5 61.5t-35.5 50.5t-73 44.5t-60.5 30
t-16.5 17.5q-3 5 -3 11t2 12q5 13 23 16q3 1 8 1q20 0 63 -11q52 -14 102 -45.5t74 -83.5z" />
    <glyph glyph-name="egrave" unicode="&#xe8;" horiz-adv-x="625" 
d="M86 299v-17q0 -80 18 -106q20 -29 65 -39q18 -4 42 -4q34 0 79 9q76 14 137.5 59t109 98.5t72.5 77.5q23 22 56 22h3q34 -1 41 -37q2 -9 2 -17q0 -27 -17 -51q-23 -33 -108.5 -115.5t-188.5 -127.5t-180 -47q-9 -1 -17 -1q-66 0 -113 18q-53 20 -87.5 77.5t-35.5 156.5v9
q0 94 19 189q20 100 75 193t116.5 126.5t95 41.5t80.5 9h6q44 0 83 -14q41 -16 62.5 -56.5t27.5 -80.5q1 -12 1 -26q0 -35 -9 -85q-14 -71 -94.5 -152t-340.5 -110zM282 454q55 18 85.5 47.5t44.5 63.5q10 26 10 48v11q-4 25 -23 48.5t-51 28.5h-14q-28 0 -63 -14
q-44 -18 -80 -57t-92 -201q128 7 183 25zM432 963v-4q0 -14 -13 -21q-7 -5 -16 -5t-20 6q-22 9 -124 130.5t-109 147.5q-3 8 -3 15q0 17 11 30q15 20 32 25q11 3 23 3h12q17 -3 38.5 -17.5t148.5 -273.5q18 -20 20 -36z" />
    <glyph glyph-name="eacute" unicode="&#xe9;" horiz-adv-x="625" 
d="M86 299v-17q0 -80 18 -106q20 -29 65 -39q18 -4 42 -4q34 0 79 9q76 14 137.5 59t109 98.5t72.5 77.5q23 22 56 22h3q34 -1 41 -37q2 -9 2 -17q0 -27 -17 -51q-23 -33 -108.5 -115.5t-188.5 -127.5t-180 -47q-9 -1 -17 -1q-66 0 -113 18q-53 20 -87.5 77.5t-35.5 156.5v9
q0 94 19 189q20 100 75 193t116.5 126.5t95 41.5t80.5 9h6q44 0 83 -14q41 -16 62.5 -56.5t27.5 -80.5q1 -12 1 -26q0 -35 -9 -85q-14 -71 -94.5 -152t-340.5 -110zM282 454q55 18 85.5 47.5t44.5 63.5q10 26 10 48v11q-4 25 -23 48.5t-51 28.5h-14q-28 0 -63 -14
q-44 -18 -80 -57t-92 -201q128 7 183 25zM329 1000q227 259 248.5 273t38.5 17h11q12 0 24 -3q17 -5 33 -25q10 -13 10 -29q0 -8 -3 -17q-8 -26 -160 -147.5t-173 -130.5q-11 -5 -20 -5t-16 5q-13 7 -13 21v4q2 16 20 37z" />
    <glyph glyph-name="ecircumflex" unicode="&#xea;" horiz-adv-x="625" 
d="M86 299v-17q0 -80 18 -106q20 -29 65 -39q18 -4 42 -4q34 0 79 9q76 14 137.5 59t109 98.5t72.5 77.5q23 22 56 22h3q34 -1 41 -37q2 -9 2 -17q0 -27 -17 -51q-23 -33 -108.5 -115.5t-188.5 -127.5t-180 -47q-9 -1 -17 -1q-66 0 -113 18q-53 20 -87.5 77.5t-35.5 156.5v9
q0 94 19 189q20 100 75 193t116.5 126.5t95 41.5t80.5 9h6q44 0 83 -14q41 -16 62.5 -56.5t27.5 -80.5q1 -12 1 -26q0 -35 -9 -85q-14 -71 -94.5 -152t-340.5 -110zM282 454q55 18 85.5 47.5t44.5 63.5q10 26 10 48v11q-4 25 -23 48.5t-51 28.5h-14q-28 0 -63 -14
q-44 -18 -80 -57t-92 -201q128 7 183 25zM521.5 1278.5q14.5 -7.5 101.5 -156.5q84 -146 84 -165v-1q-3 -17 -17 -20q-3 -1 -7 -1q-12 0 -26 10q-19 12 -188 187q-250 -203 -269 -205q-3 -1 -5 -1q-16 0 -23 16q-3 7 -3 14q0 10 6 20q11 16 124 144.5t131.5 146t52.5 21.5
q24 -2 38.5 -9.5z" />
    <glyph glyph-name="edieresis" unicode="&#xeb;" horiz-adv-x="625" 
d="M86 299v-17q0 -80 18 -106q20 -29 65 -39q18 -4 42 -4q34 0 79 9q76 14 137.5 59t109 98.5t72.5 77.5q23 22 56 22h3q34 -1 41 -37q2 -9 2 -17q0 -27 -17 -51q-23 -33 -108.5 -115.5t-188.5 -127.5t-180 -47q-9 -1 -17 -1q-66 0 -113 18q-53 20 -87.5 77.5t-35.5 156.5v9
q0 94 19 189q20 100 75 193t116.5 126.5t95 41.5t80.5 9h6q44 0 83 -14q41 -16 62.5 -56.5t27.5 -80.5q1 -12 1 -26q0 -35 -9 -85q-14 -71 -94.5 -152t-340.5 -110zM282 454q55 18 85.5 47.5t44.5 63.5q10 26 10 48v11q-4 25 -23 48.5t-51 28.5h-14q-28 0 -63 -14
q-44 -18 -80 -57t-92 -201q128 7 183 25zM310 1137.5q30 -30.5 30 -72.5q0 -43 -30 -73t-73 -30t-73 30t-30 73q0 42 30 72.5t73 30.5t73 -30.5zM710 1137.5q30 -30.5 30 -72.5q0 -43 -30 -73t-73 -30t-73 30t-30 73q0 42 30 72.5t73 30.5t73 -30.5z" />
    <glyph glyph-name="igrave" unicode="&#xec;" horiz-adv-x="451" 
d="M24 404q19 66 49 166l44 143q26 96 49 105q13 4 26 4q9 0 19 -2q21 -7 22 -45v-1q0 -40 -49 -222q-49 -184 -64 -263q-10 -55 -10 -83q0 -13 2 -20q6 -24 25 -41t43 -17q23 0 65 27t95 119t72 107.5t37 15.5t28 -17q7 -15 7 -30v-6q-2 -19 -8 -39t-72 -131.5t-124 -139
t-102 -32.5q-8 -1 -15 -1q-37 0 -74 23q-45 27 -68 81q-21 46 -21 118q0 12 1 26q4 89 23 155zM367 963v-4q0 -14 -13 -21q-7 -5 -16 -5t-20 6q-22 9 -124 130.5t-109 147.5q-3 8 -3 15q0 17 11 30q15 20 32 25q11 3 23 3h12q17 -3 38.5 -17.5t148.5 -273.5q18 -20 20 -36z
" />
    <glyph glyph-name="iacute" unicode="&#xed;" horiz-adv-x="451" 
d="M24 404q19 66 49 166l44 143q26 96 49 105q13 4 26 4q9 0 19 -2q21 -7 22 -45v-1q0 -40 -49 -222q-49 -184 -64 -263q-10 -55 -10 -83q0 -13 2 -20q6 -24 25 -41t43 -17q23 0 65 27t95 119t72 107.5t37 15.5t28 -17q7 -15 7 -30v-6q-2 -19 -8 -39t-72 -131.5t-124 -139
t-102 -32.5q-8 -1 -15 -1q-37 0 -74 23q-45 27 -68 81q-21 46 -21 118q0 12 1 26q4 89 23 155zM164 1000q227 259 248.5 273t38.5 17h11q12 0 24 -3q17 -5 33 -25q10 -13 10 -29q0 -8 -3 -17q-8 -26 -160 -147.5t-173 -130.5q-11 -5 -20 -5t-16 5q-13 7 -13 21v4q2 16 20 37
z" />
    <glyph glyph-name="icircumflex" unicode="&#xee;" horiz-adv-x="451" 
d="M24 404q19 66 49 166l44 143q26 96 49 105q13 4 26 4q9 0 19 -2q21 -7 22 -45v-1q0 -40 -49 -222q-49 -184 -64 -263q-10 -55 -10 -83q0 -13 2 -20q6 -24 25 -41t43 -17q23 0 65 27t95 119t72 107.5t37 15.5t28 -17q7 -15 7 -30v-6q-2 -19 -8 -39t-72 -131.5t-124 -139
t-102 -32.5q-8 -1 -15 -1q-37 0 -74 23q-45 27 -68 81q-21 46 -21 118q0 12 1 26q4 89 23 155zM356.5 1278.5q14.5 -7.5 101.5 -156.5q84 -146 84 -165v-1q-3 -17 -17 -20q-3 -1 -7 -1q-12 0 -26 10q-19 12 -188 187q-250 -203 -269 -205q-3 -1 -5 -1q-16 0 -23 16
q-3 7 -3 14q0 10 6 20q11 16 124 144.5t131.5 146t52.5 21.5q24 -2 38.5 -9.5z" />
    <glyph glyph-name="idieresis" unicode="&#xef;" horiz-adv-x="451" 
d="M28 404q19 66 49 166l44 143q26 96 49 105q13 4 26 4q9 0 19 -2q21 -7 22 -45v-1q0 -40 -49 -222q-49 -184 -64 -263q-10 -55 -10 -83q0 -13 2 -20q6 -24 25 -41t43 -17q23 0 65 27t95 119t72 107.5t37 15.5t28 -17q7 -15 7 -30v-6q-2 -19 -8 -39t-72 -131.5t-124 -139
t-102 -32.5q-8 -1 -15 -1q-37 0 -74 23q-45 27 -68 81q-21 46 -21 118q0 12 1 26q4 89 23 155zM149 1137.5q30 -30.5 30 -72.5q0 -43 -30 -73t-73 -30t-73 30t-30 73q0 42 30 72.5t73 30.5t73 -30.5zM549 1137.5q30 -30.5 30 -72.5q0 -43 -30 -73t-73 -30t-73 30t-30 73
q0 42 30 72.5t73 30.5t73 -30.5z" />
    <glyph glyph-name="eth" unicode="&#xf0;" horiz-adv-x="800" 
d="M494 570q-7 66 -37 95t-67 36q-8 1 -17 1q-33 0 -81 -21q-60 -28 -108.5 -101.5t-63 -142.5t-16.5 -138v-13q0 -59 17 -90q18 -35 45 -49q9 -5 22 -5q24 0 59 16q54 24 116.5 102t81.5 144t49 166zM745 1536q21 38 50 38q5 0 12 -2q32 -8 32 -43v-9q-5 -44 -131.5 -573
t-153.5 -633q-23 -84 -23 -116q0 -7 2 -12q6 -24 25 -41t43 -17q23 0 65 27t95 119t72 108q15 12 25 12q2 0 4 -1q10 -4 21.5 -20t15.5 -32q2 -6 2 -13q0 -11 -4 -23q-6 -20 -72 -131.5t-124 -139t-102 -32.5q-8 -1 -15 -1q-37 0 -74 23q-45 27 -92 135q-49 -67 -91 -103
t-112 -43q-15 -2 -29 -2q-51 0 -85 21q-44 27 -68.5 80t-31.5 139q-2 24 -2 50q0 66 13 143q17 107 66 182.5t97 123.5t104 67q42 14 95 14q17 0 35 -1q74 -6 129 -117q181 778 207 823zM998 1200q72 -6 73 -52v-4q0 -44 -25 -57q-25 -14 -93 -14h-9q-525 2 -555 12t-34 39
q-1 6 -1 11q0 22 12 38q14 21 37 28q11 3 141 3q149 0 454 -4z" />
    <glyph glyph-name="ntilde" unicode="&#xf1;" horiz-adv-x="791" 
d="M133.5 787.5q14.5 27.5 50.5 28.5h1q35 0 38 -37v-7q0 -40 -29 -150q152 161 205.5 177t95.5 16t76 -22.5t46 -91.5q1 -11 1 -24q0 -72 -51 -218q-56 -160 -56 -218v-9q5 -54 22.5 -79.5t56.5 -26.5h1q38 0 90 44q52 45 81.5 106t42 84.5t35.5 31.5q11 4 21 4q11 0 21 -4
q19 -8 25 -35q1 -4 1 -10q0 -28 -26 -86q-32 -69 -85 -129.5t-120 -98.5q-57 -33 -109 -33q-10 0 -19 1q-61 7 -92.5 37.5t-45.5 77t-15 110.5v3q0 64 45 205q45 143 56 176q5 18 5 33q0 13 -4 24q-9 24 -47 27h-6q-36 0 -82 -31q-50 -35 -199 -199q-108 -412 -116 -438.5
t-40 -26.5q-33 0 -45 16q-9 12 -9 34q0 6 1 14q3 31 83.5 364t95 360.5zM657 1071q20 7 30 30.5t16.5 49.5t23.5 29q3 1 6 1q13 0 23 -9q7 -6 7 -23q0 -11 -4 -28q-9 -40 -30 -81t-47.5 -62.5t-58.5 -23.5q-10 -1 -19 -1q-24 0 -50 4q-37 5 -65 17.5t-60.5 29.5t-68.5 34
t-75 22q-14 2 -26 2q-23 0 -39 -6q-25 -10 -35.5 -25t-16 -36.5t-23.5 -34.5q-13 -9 -22 -9q-4 0 -7 2q-11 5 -15 17q-2 5 -2 13q0 10 3 24q5 24 15.5 58.5t39.5 64.5t55 41t61 12h4q33 0 66 -8q35 -8 76 -39t162 -73q56 1 76 8z" />
    <glyph glyph-name="ograve" unicode="&#xf2;" horiz-adv-x="707" 
d="M454 690q-13 -15 -16 -42v-3q0 -24 39 -24q0 -1 1 -1q40 0 42 25q-12 44 -66 45zM283 -1q-103 0 -160 29t-88.5 87.5t-36.5 146.5q-2 30 -2 57q0 52 7 94q9 64 36.5 136.5t107 148.5t127.5 100q38 18 62 18q6 0 11 -1q24 -6 25 -42q67 35 98 39q14 2 27 2q16 0 30 -2
q27 -5 56.5 -38.5t60.5 -127.5q67 37 108.5 82.5t58.5 51.5q9 3 18 3q7 0 15 -2q16 -5 22 -20t6 -34t-44.5 -69.5t-170.5 -127.5q-15 -148 -34 -226t-57.5 -139t-109.5 -113.5t-173 -52.5zM336 705q-107 -33 -158.5 -132.5t-60.5 -189.5q-5 -40 -5 -73q0 -42 7 -72
q12 -56 65 -95q39 -30 89 -30q16 0 34 3q70 13 131.5 73.5t82.5 162.5q16 82 16 135q0 13 -1 24q-19 -1 -37 -1q-77 0 -111 12q-41 13 -53.5 44.5t-13.5 62.5v4q0 30 15 72zM484 963v-4q0 -14 -13 -21q-7 -5 -16 -5t-20 6q-22 9 -124 130.5t-109 147.5q-3 8 -3 15
q0 17 11 30q15 20 32 25q11 3 23 3h12q17 -3 38.5 -17.5t148.5 -273.5q18 -20 20 -36z" />
    <glyph glyph-name="oacute" unicode="&#xf3;" horiz-adv-x="707" 
d="M454 690q-13 -15 -16 -42v-3q0 -24 39 -24q0 -1 1 -1q40 0 42 25q-12 44 -66 45zM283 -1q-103 0 -160 29t-88.5 87.5t-36.5 146.5q-2 30 -2 57q0 52 7 94q9 64 36.5 136.5t107 148.5t127.5 100q38 18 62 18q6 0 11 -1q24 -6 25 -42q67 35 98 39q14 2 27 2q16 0 30 -2
q27 -5 56.5 -38.5t60.5 -127.5q67 37 108.5 82.5t58.5 51.5q9 3 18 3q7 0 15 -2q16 -5 22 -20t6 -34t-44.5 -69.5t-170.5 -127.5q-15 -148 -34 -226t-57.5 -139t-109.5 -113.5t-173 -52.5zM336 705q-107 -33 -158.5 -132.5t-60.5 -189.5q-5 -40 -5 -73q0 -42 7 -72
q12 -56 65 -95q39 -30 89 -30q16 0 34 3q70 13 131.5 73.5t82.5 162.5q16 82 16 135q0 13 -1 24q-19 -1 -37 -1q-77 0 -111 12q-41 13 -53.5 44.5t-13.5 62.5v4q0 30 15 72zM381 1000q227 259 248.5 273t38.5 17h11q12 0 24 -3q17 -5 33 -25q10 -13 10 -29q0 -8 -3 -17
q-8 -26 -160 -147.5t-173 -130.5q-11 -5 -20 -5t-16 5q-13 7 -13 21v4q2 16 20 37z" />
    <glyph glyph-name="ocircumflex" unicode="&#xf4;" horiz-adv-x="707" 
d="M454 690q-13 -15 -16 -42v-3q0 -24 39 -24q0 -1 1 -1q40 0 42 25q-12 44 -66 45zM283 -1q-103 0 -160 29t-88.5 87.5t-36.5 146.5q-2 30 -2 57q0 52 7 94q9 64 36.5 136.5t107 148.5t127.5 100q38 18 62 18q6 0 11 -1q24 -6 25 -42q67 35 98 39q14 2 27 2q16 0 30 -2
q27 -5 56.5 -38.5t60.5 -127.5q67 37 108.5 82.5t58.5 51.5q9 3 18 3q7 0 15 -2q16 -5 22 -20t6 -34t-44.5 -69.5t-170.5 -127.5q-15 -148 -34 -226t-57.5 -139t-109.5 -113.5t-173 -52.5zM336 705q-107 -33 -158.5 -132.5t-60.5 -189.5q-5 -40 -5 -73q0 -42 7 -72
q12 -56 65 -95q39 -30 89 -30q16 0 34 3q70 13 131.5 73.5t82.5 162.5q16 82 16 135q0 13 -1 24q-19 -1 -37 -1q-77 0 -111 12q-41 13 -53.5 44.5t-13.5 62.5v4q0 30 15 72zM473.5 1278.5q14.5 -7.5 101.5 -156.5q84 -146 84 -165v-1q-3 -17 -17 -20q-3 -1 -7 -1
q-12 0 -26 10q-19 12 -188 187q-250 -203 -269 -205q-3 -1 -5 -1q-16 0 -23 16q-3 7 -3 14q0 10 6 20q11 16 124 144.5t131.5 146t52.5 21.5q24 -2 38.5 -9.5z" />
    <glyph glyph-name="otilde" unicode="&#xf5;" horiz-adv-x="707" 
d="M454 690q-13 -15 -16 -42v-3q0 -24 39 -24q0 -1 1 -1q40 0 42 25q-12 44 -66 45zM283 -1q-103 0 -160 29t-88.5 87.5t-36.5 146.5q-2 30 -2 57q0 52 7 94q9 64 36.5 136.5t107 148.5t127.5 100q38 18 62 18q6 0 11 -1q24 -6 25 -42q67 35 98 39q14 2 27 2q16 0 30 -2
q27 -5 56.5 -38.5t60.5 -127.5q67 37 108.5 82.5t58.5 51.5q9 3 18 3q7 0 15 -2q16 -5 22 -20t6 -34t-44.5 -69.5t-170.5 -127.5q-15 -148 -34 -226t-57.5 -139t-109.5 -113.5t-173 -52.5zM336 705q-107 -33 -158.5 -132.5t-60.5 -189.5q-5 -40 -5 -73q0 -42 7 -72
q12 -56 65 -95q39 -30 89 -30q16 0 34 3q70 13 131.5 73.5t82.5 162.5q16 82 16 135q0 13 -1 24q-19 -1 -37 -1q-77 0 -111 12q-41 13 -53.5 44.5t-13.5 62.5v4q0 30 15 72zM615 1071q20 7 30 30.5t16.5 49.5t23.5 29q3 1 6 1q13 0 23 -9q7 -6 7 -23q0 -11 -4 -28
q-9 -40 -30 -81t-47.5 -62.5t-58.5 -23.5q-10 -1 -19 -1q-24 0 -50 4q-37 5 -65 17.5t-60.5 29.5t-68.5 34t-75 22q-14 2 -26 2q-23 0 -39 -6q-25 -10 -35.5 -25t-16 -36.5t-23.5 -34.5q-13 -9 -22 -9q-4 0 -7 2q-11 5 -15 17q-2 5 -2 13q0 10 3 24q5 24 15.5 58.5
t39.5 64.5t55 41t61 12h4q33 0 66 -8q35 -8 76 -39t162 -73q56 1 76 8z" />
    <glyph glyph-name="odieresis" unicode="&#xf6;" horiz-adv-x="707" 
d="M454 690q-13 -15 -16 -42v-3q0 -24 39 -24q0 -1 1 -1q40 0 42 25q-12 44 -66 45zM283 -1q-103 0 -160 29t-88.5 87.5t-36.5 146.5q-2 30 -2 57q0 52 7 94q9 64 36.5 136.5t107 148.5t127.5 100q38 18 62 18q6 0 11 -1q24 -6 25 -42q67 35 98 39q14 2 27 2q16 0 30 -2
q27 -5 56.5 -38.5t60.5 -127.5q67 37 108.5 82.5t58.5 51.5q9 3 18 3q7 0 15 -2q16 -5 22 -20t6 -34t-44.5 -69.5t-170.5 -127.5q-15 -148 -34 -226t-57.5 -139t-109.5 -113.5t-173 -52.5zM336 705q-107 -33 -158.5 -132.5t-60.5 -189.5q-5 -40 -5 -73q0 -42 7 -72
q12 -56 65 -95q39 -30 89 -30q16 0 34 3q70 13 131.5 73.5t82.5 162.5q16 82 16 135q0 13 -1 24q-19 -1 -37 -1q-77 0 -111 12q-41 13 -53.5 44.5t-13.5 62.5v4q0 30 15 72zM262 1137.5q30 -30.5 30 -72.5q0 -43 -30 -73t-73 -30t-73 30t-30 73q0 42 30 72.5t73 30.5
t73 -30.5zM662 1137.5q30 -30.5 30 -72.5q0 -43 -30 -73t-73 -30t-73 30t-30 73q0 42 30 72.5t73 30.5t73 -30.5z" />
    <glyph glyph-name="divide" unicode="&#xf7;" horiz-adv-x="1003" 
d="M897 824q72 -6 73 -52v-4q0 -44 -25 -57q-25 -14 -93 -14h-9q-525 2 -555 12t-34 39q-1 6 -1 11q0 22 12 38q14 21 37 28q10 3 140 3q149 0 455 -4zM566 424q30 -30 30 -72q0 -43 -30 -72.5t-72 -29.5t-72 29.5t-30 72.5q0 42 30 72t72 30t72 -30zM816 1224
q30 -30 30 -72q0 -43 -30 -72.5t-72 -29.5t-72 29.5t-30 72.5q0 42 30 72t72 30t72 -30z" />
    <glyph glyph-name="oslash" unicode="&#xf8;" horiz-adv-x="707" 
d="M454 690q-13 -15 -16 -42v-3q0 -24 39 -24q0 -1 1 -1q40 0 42 25q-12 44 -66 45zM283 -1q-103 0 -160 29t-88.5 87.5t-36.5 146.5q-2 30 -2 57q0 52 7 94q9 64 36.5 136.5t107 148.5t127.5 100q38 18 62 18q6 0 11 -1q24 -6 25 -42q67 35 98 39q14 2 27 2q16 0 30 -2
q27 -5 56.5 -38.5t60.5 -127.5q67 37 108.5 82.5t58.5 51.5q9 3 18 3q7 0 15 -2q16 -5 22 -20t6 -34t-44.5 -69.5t-170.5 -127.5q-15 -148 -34 -226t-57.5 -139t-109.5 -113.5t-173 -52.5zM336 705q-107 -33 -158.5 -132.5t-60.5 -189.5q-5 -40 -5 -73q0 -42 7 -72
q12 -56 65 -95q39 -30 89 -30q16 0 34 3q70 13 131.5 73.5t82.5 162.5q16 82 16 135q0 13 -1 24q-19 -1 -37 -1q-77 0 -111 12q-41 13 -53.5 44.5t-13.5 62.5v4q0 30 15 72zM258 430.5q207 515.5 226 570.5t69 59h4q43 0 43 -62v-9q-4 -74 -196 -561t-212.5 -549t-45.5 -92
q-21 -25 -53 -25q-8 0 -16 1q-36 6 -36 57q0 11 2 23q8 72 215 587.5z" />
    <glyph glyph-name="ugrave" unicode="&#xf9;" 
d="M421 379q102 334 114 381t37 58q15 6 28 6q8 0 16 -2q19 -7 21 -45v-4q0 -42 -47 -217q-49 -183 -65 -265q-12 -56 -12 -86q0 -15 3 -23q8 -27 27 -41t41 -15h1q22 0 63 26q42 26 92.5 118t75 111.5t40.5 21.5h3q14 0 26 -19q8 -16 8 -35q0 -7 -1 -15q-5 -29 -66 -133
t-122 -151.5t-114 -54.5q-11 -1 -21 -1q-44 0 -89 24q-57 30 -72 160q-68 -113 -125 -145t-104 -36h-10q-42 0 -84 29q-47 33 -66 86q-16 45 -16 115v24q3 86 19.5 152t34.5 118.5t38 118.5t37 119.5t40 59.5q10 2 20 2q12 0 24 -3q21 -7 21 -44q0 -38 -52.5 -219.5
t-67.5 -265.5q-9 -51 -9 -80q0 -20 4 -29q10 -25 31 -41q17 -13 36 -13q5 0 10 1q25 4 62 25.5t170 226.5zM443 963v-4q0 -14 -13 -21q-7 -5 -16 -5t-20 6q-22 9 -124 130.5t-109 147.5q-3 8 -3 15q0 17 11 30q15 20 32 25q11 3 23 3h12q17 -3 38.5 -17.5t148.5 -273.5
q18 -20 20 -36z" />
    <glyph glyph-name="uacute" unicode="&#xfa;" 
d="M421 379q102 334 114 381t37 58q15 6 28 6q8 0 16 -2q19 -7 21 -45v-4q0 -42 -47 -217q-49 -183 -65 -265q-12 -56 -12 -86q0 -15 3 -23q8 -27 27 -41t41 -15h1q22 0 63 26q42 26 92.5 118t75 111.5t40.5 21.5h3q14 0 26 -19q8 -16 8 -35q0 -7 -1 -15q-5 -29 -66 -133
t-122 -151.5t-114 -54.5q-11 -1 -21 -1q-44 0 -89 24q-57 30 -72 160q-68 -113 -125 -145t-104 -36h-10q-42 0 -84 29q-47 33 -66 86q-16 45 -16 115v24q3 86 19.5 152t34.5 118.5t38 118.5t37 119.5t40 59.5q10 2 20 2q12 0 24 -3q21 -7 21 -44q0 -38 -52.5 -219.5
t-67.5 -265.5q-9 -51 -9 -80q0 -20 4 -29q10 -25 31 -41q17 -13 36 -13q5 0 10 1q25 4 62 25.5t170 226.5zM440 1000q227 259 248.5 273t38.5 17h11q12 0 24 -3q17 -5 33 -25q10 -13 10 -29q0 -8 -3 -17q-8 -26 -160 -147.5t-173 -130.5q-11 -5 -20 -5t-16 5q-13 7 -13 21v4
q2 16 20 37z" />
    <glyph glyph-name="ucircumflex" unicode="&#xfb;" 
d="M421 379q102 334 114 381t37 58q15 6 28 6q8 0 16 -2q19 -7 21 -45v-4q0 -42 -47 -217q-49 -183 -65 -265q-12 -56 -12 -86q0 -15 3 -23q8 -27 27 -41t41 -15h1q22 0 63 26q42 26 92.5 118t75 111.5t40.5 21.5h3q14 0 26 -19q8 -16 8 -35q0 -7 -1 -15q-5 -29 -66 -133
t-122 -151.5t-114 -54.5q-11 -1 -21 -1q-44 0 -89 24q-57 30 -72 160q-68 -113 -125 -145t-104 -36h-10q-42 0 -84 29q-47 33 -66 86q-16 45 -16 115v24q3 86 19.5 152t34.5 118.5t38 118.5t37 119.5t40 59.5q10 2 20 2q12 0 24 -3q21 -7 21 -44q0 -38 -52.5 -219.5
t-67.5 -265.5q-9 -51 -9 -80q0 -20 4 -29q10 -25 31 -41q17 -13 36 -13q5 0 10 1q25 4 62 25.5t170 226.5zM531.5 1378.5q14.5 -7.5 101.5 -156.5q84 -146 84 -165v-1q-3 -17 -17 -20q-3 -1 -7 -1q-12 0 -26 10q-19 12 -188 187q-250 -203 -269 -205q-3 -1 -5 -1
q-16 0 -23 16q-3 7 -3 14q0 10 6 20q11 16 124 144.5t131.5 146t52.5 21.5q24 -2 38.5 -9.5z" />
    <glyph glyph-name="udieresis" unicode="&#xfc;" 
d="M421 379q102 334 114 381t37 58q15 6 28 6q8 0 16 -2q19 -7 21 -45v-4q0 -42 -47 -217q-49 -183 -65 -265q-12 -56 -12 -86q0 -15 3 -23q8 -27 27 -41t41 -15h1q22 0 63 26q42 26 92.5 118t75 111.5t40.5 21.5h3q14 0 26 -19q8 -16 8 -35q0 -7 -1 -15q-5 -29 -66 -133
t-122 -151.5t-114 -54.5q-11 -1 -21 -1q-44 0 -89 24q-57 30 -72 160q-68 -113 -125 -145t-104 -36h-10q-42 0 -84 29q-47 33 -66 86q-16 45 -16 115v24q3 86 19.5 152t34.5 118.5t38 118.5t37 119.5t40 59.5q10 2 20 2q12 0 24 -3q21 -7 21 -44q0 -38 -52.5 -219.5
t-67.5 -265.5q-9 -51 -9 -80q0 -20 4 -29q10 -25 31 -41q17 -13 36 -13q5 0 10 1q25 4 62 25.5t170 226.5zM321 1137.5q30 -30.5 30 -72.5q0 -43 -30 -73t-73 -30t-73 30t-30 73q0 42 30 72.5t73 30.5t73 -30.5zM721 1137.5q30 -30.5 30 -72.5q0 -43 -30 -73t-73 -30t-73 30
t-30 73q0 42 30 72.5t73 30.5t73 -30.5z" />
    <glyph glyph-name="yacute" unicode="&#xfd;" horiz-adv-x="717" 
d="M341 -126q-457 -504 -484 -663q-9 -49 -9 -85q0 -81 44 -95q21 -7 43 -7q43 0 90 27q69 41 128.5 158.5t187.5 664.5zM368 113q-31 -51 -86 -83.5t-102 -33.5q-2 -1 -4 -1q-45 0 -91 31q-48 31 -67 85q-15 41 -15 103q0 19 1 40q6 89 21 150t35 117t37.5 121.5t35 117
t41.5 59.5q11 4 23 4t23 -4q21 -7 21 -41v-5q-2 -39 -55 -218t-69 -264q-9 -48 -9 -77q0 -23 6 -35q13 -26 35 -43q17 -14 35 -14q5 0 10 1q23 5 61 28t103.5 123.5t117 268t61 217t37.5 57.5q13 4 25 4q14 0 27 -4q21 -8 21 -40v-8q-3 -40 -135 -550q207 166 227 176
q14 6 29 6h12q21 -4 24 -25v-7q0 -19 -13 -44q-16 -31 -307 -286q-74 -410 -130.5 -601t-100 -274t-98 -140t-125.5 -91q-58 -28 -109 -28q-12 0 -24 2q-61 8 -98.5 39.5t-53.5 84.5q-14 43 -14 97q0 13 1 27q4 71 35.5 147t93.5 178t492 573zM360 1000q227 259 248.5 273
t38.5 17h11q12 0 24 -3q17 -5 33 -25q10 -13 10 -29q0 -8 -3 -17q-8 -26 -160 -147.5t-173 -130.5q-11 -5 -20 -5t-16 5q-13 7 -13 21v4q2 16 20 37z" />
    <glyph glyph-name="thorn" unicode="&#xfe;" horiz-adv-x="748" 
d="M251 1572q27 39 47.5 37.5t30 -11t9.5 -34t-142 -840.5q99 96 180 105q20 2 39 2q56 0 99 -19q57 -25 87 -110q17 -48 17 -122q0 -56 -10 -128q-23 -165 -97 -270q132 71 177 149q41 70 73 70h7q33 -9 33 -44v-4q-2 -40 -80.5 -144t-189 -152t-239.5 -51q-4 -1 -8 -1
q-125 0 -228 100q-157 -748 -183 -777q-20 -23 -42 -23q-6 0 -13 2q-29 9 -30 44q-1 0 -1 1q0 41 153 751q284 1430 311 1469zM467 343q31 141 36 210q1 16 1 29q0 49 -12 79q-16 39 -60 47q-17 3 -35 3q-29 0 -60 -8q-50 -13 -111 -60.5t-100 -209.5q-26 -104 -26 -159
q0 -32 9 -47q22 -44 58.5 -62.5t89.5 -25.5q9 -2 19 -2q45 0 97 30q63 35 94 176z" />
    <glyph glyph-name="ydieresis" unicode="&#xff;" horiz-adv-x="717" 
d="M341 -126q-457 -504 -484 -663q-9 -49 -9 -85q0 -81 44 -95q21 -7 43 -7q43 0 90 27q69 41 128.5 158.5t187.5 664.5zM368 113q-31 -51 -86 -83.5t-102 -33.5q-2 -1 -4 -1q-45 0 -91 31q-48 31 -67 85q-15 41 -15 103q0 19 1 40q6 89 21 150t35 117t37.5 121.5t35 117
t41.5 59.5q11 4 23 4t23 -4q21 -7 21 -41v-5q-2 -39 -55 -218t-69 -264q-9 -48 -9 -77q0 -23 6 -35q13 -26 35 -43q17 -14 35 -14q5 0 10 1q23 5 61 28t103.5 123.5t117 268t61 217t37.5 57.5q13 4 25 4q14 0 27 -4q21 -8 21 -40v-8q-3 -40 -135 -550q207 166 227 176
q14 6 29 6h12q21 -4 24 -25v-7q0 -19 -13 -44q-16 -31 -307 -286q-74 -410 -130.5 -601t-100 -274t-98 -140t-125.5 -91q-58 -28 -109 -28q-12 0 -24 2q-61 8 -98.5 39.5t-53.5 84.5q-14 43 -14 97q0 13 1 27q4 71 35.5 147t93.5 178t492 573zM341 1137.5q30 -30.5 30 -72.5
q0 -43 -30 -73t-73 -30t-73 30t-30 73q0 42 30 72.5t73 30.5t73 -30.5zM741 1137.5q30 -30.5 30 -72.5q0 -43 -30 -73t-73 -30t-73 30t-30 73q0 42 30 72.5t73 30.5t73 -30.5z" />
    <glyph glyph-name="OE" unicode="&#x152;" horiz-adv-x="1947" 
d="M1088 1116v25q0 142 -21 200q-23 62 -45 74q-13 7 -26 7q-10 0 -20 -4q-25 -9 -53.5 -46.5t-29.5 -81.5q-1 -4 -1 -7q0 -40 16 -76q17 -39 52 -64.5t128 -26.5zM1311.5 1246q17.5 38 39.5 62q20 22 37 22h2q18 -2 28 -21q5 -10 5 -29q0 -15 -3 -36q-9 -47 -50 -112.5
t-176 -145.5q-30 -205 -47.5 -292.5t-42 -168t-70 -180t-138.5 -195.5t-223 -135q-89 -28 -167 -28q-35 0 -68 6q-105 18 -174.5 75.5t-114 173.5t-46.5 230v24q0 106 16 242q17 151 80 319t155.5 279t199.5 162t164 63q48 10 68 10h6q18 -2 33 -24q10 -15 10 -31
q0 -7 -2 -15q-8 -23 -19.5 -31t-47.5 -13.5t-82.5 -24.5t-103.5 -57t-111 -98.5t-105.5 -168.5t-82.5 -218t-44 -224q-10 -84 -10 -155q0 -26 1 -51q5 -91 47.5 -176.5t110.5 -124.5q52 -30 130 -30q24 0 51 3q112 12 206.5 82t167 225.5t136.5 533.5q-108 5 -174 48
t-94.5 95t-31.5 115q-1 15 -1 29q0 49 9 98q11 64 51 119t91 78q29 13 65 13q27 0 59 -7q73 -17 107 -130t41 -299q43 12 69 44t43.5 70zM1640 1163q351 59 450 143q61 51 61 90q0 25 -24 46q-30 24 -79 24q-55 0 -134 -31q-150 -59 -274 -272zM1724 857q55 -42 106 -47
q10 -2 18 -2q37 0 56 20q10 11 10 25t-12 31q-9 11 -34 11q-45 0 -144 -38zM1571.5 1258.5q38.5 57.5 81 109.5t123 106t154.5 75q63 18 115 18h17q57 -4 99.5 -24t68 -56t29.5 -79v-19q0 -33 -9 -63q-13 -39 -70 -92t-207 -99.5t-331 -74.5q2 -60 26 -115q82 34 144 44
q29 4 55 4q29 0 53 -5q46 -11 69 -32.5t32 -70.5q3 -19 3 -36q0 -29 -9 -55q-15 -42 -56 -66t-109 -29q-13 -1 -26 -1q-53 0 -99 17q-58 21 -121 89q-93 -58 -145.5 -102.5t-87 -102.5t-44.5 -98.5t-10 -92.5t20.5 -105t66 -90.5t131 -60t153.5 -26.5q8 -1 16 -1
q61 0 134 29q82 33 132 98t66 101.5t35 46.5q11 6 23 6q8 0 17 -2q22 -7 28 -32q1 -8 1 -18q0 -22 -9 -55q-13 -47 -50 -105t-101.5 -103.5t-191.5 -69.5q-81 -15 -146 -15q-37 0 -68 5q-88 13 -194.5 79t-148.5 147.5t-43 189.5v2q0 107 76 242q77 137 295 238
q-32 91 -32 174q0 12 1 25q5 93 43.5 150.5z" />
    <glyph glyph-name="oe" unicode="&#x153;" horiz-adv-x="1168" 
d="M461 690q-13 -15 -16 -42v-3q0 -24 39 -24q0 -1 1 -1q40 0 42 25q-12 44 -66 45zM290 -1q-103 0 -160 29t-88.5 87.5t-36.5 146.5q-2 30 -2 57q0 52 7 94q9 64 36.5 136.5t107 148.5t127.5 100q38 18 62 18q6 0 11 -1q24 -6 25 -42q67 35 98 39q14 2 27 2q16 0 30 -2
q27 -5 56.5 -38.5t60.5 -127.5l13 -116q-15 -148 -34 -226t-57.5 -139t-109.5 -113.5t-173 -52.5zM343 705q-107 -33 -158.5 -132.5t-60.5 -189.5q-5 -40 -5 -73q0 -42 7 -72q12 -56 65 -95q39 -30 89 -30q16 0 34 3q70 13 131.5 73.5t82.5 162.5q16 82 16 135q0 13 -1 24
q-19 -1 -37 -1q-77 0 -111 12q-41 13 -53.5 44.5t-13.5 62.5v4q0 30 15 72zM655 299v-17q0 -80 18 -106q20 -29 65 -39q18 -4 42 -4q34 0 79 9q76 14 137.5 59t109 98.5t72.5 77.5q23 22 56 22h3q34 -1 41 -37q2 -9 2 -17q0 -27 -17 -51q-23 -33 -108.5 -115.5
t-188.5 -127.5t-180 -47q-9 -1 -17 -1q-66 0 -113 18q-53 20 -87.5 77.5t-35.5 156.5v9q0 94 19 189q54 201 153.5 277t133 84t80.5 9h6q44 0 83 -14q41 -16 62.5 -56.5t27.5 -80.5q1 -12 1 -26q0 -35 -9 -85q-14 -71 -94.5 -152t-340.5 -110zM851 454q55 18 85.5 47.5
t44.5 63.5q10 26 10 48v11q-4 25 -23 48.5t-51 28.5h-14q-28 0 -63 -14q-44 -18 -80 -57t-92 -201q128 7 183 25z" />
    <glyph glyph-name="Scaron" unicode="&#x160;" horiz-adv-x="1125" 
d="M827.5 1685q-14.5 7 -100.5 157q-85 145 -85 165q0 1 1 1q2 17 17 20q3 1 6 1q13 0 28 -10q18 -12 186 -188q250 203 270 206h5q16 0 23 -15q3 -7 3 -14q0 -10 -7 -20q-11 -17 -124 -145t-131.5 -145.5t-52.5 -21.5q-24 2 -38.5 9zM339 617h-8q-34 0 -64 -15
q-34 -17 -58 -52t-36 -87q-10 -45 -10 -88v-14q2 -50 31 -101t68 -77t88 -34q30 -5 60 -5q19 0 38 2q49 5 111 36t109 70t78 107t43 141q8 46 8 89q0 26 -3 50q-7 66 -75 302q-74 -13 -129 -13q-13 0 -26 1q-63 4 -126 28t-129 80t-85 130q-12 48 -12 94q0 25 3 48
q10 68 56 140t107 98q55 23 101 23h10q50 -3 106 -10t72 -28q12 -15 12 -31q0 -5 -2 -11q-6 -21 -30 -28q-13 -4 -27 -4q-12 0 -24 3q-23 5 -56 5h-11q-40 -1 -75 -11t-65 -40t-47 -68t-18 -81v-5q0 -40 16 -74q17 -36 49 -65t81 -48t91 -25q8 -1 19 -1q42 0 119 19
q-8 58 -11 133q-1 13 -1 27q0 61 12 123q14 75 61 144t124 82q36 6 68 6q38 0 72 -8q63 -15 102 -41t61 -93q16 -48 16 -90q0 -17 -3 -34q-9 -57 -35 -112t-95 -113t-225 -122q58 -232 69 -313q5 -36 5 -71q0 -45 -8 -90q-14 -80 -30 -136t-58 -121t-119 -120t-137 -76
t-144 -25h-16q-76 0 -151 34q-83 38 -135 100t-63 129q-9 53 -9 109q0 15 1 31q3 73 35 140t84 107t105 53q34 8 75 8q22 0 45 -2q67 -7 110 -44t64 -85t23 -118v-12q0 -61 -19 -93q-20 -34 -46 -34h-1q-26 1 -42 12t-19 26q-1 5 -1 13q0 19 5 60q3 25 3 45q0 24 -5 39
q-9 26 -32 48t-95 34zM1032 1211q51 58 56 102q3 22 3 43t-3 40q-5 39 -48 58q-31 14 -72 14q-16 0 -32 -2q-61 -7 -104 -83q-28 -50 -28 -157q0 -55 7 -125q170 52 221 110z" />
    <glyph glyph-name="scaron" unicode="&#x161;" horiz-adv-x="663" 
d="M290.5 1036q-14.5 7 -100.5 157q-85 145 -85 165q0 1 1 1q2 17 17 20q3 1 6 1q13 0 28 -10q18 -12 186 -188q250 203 270 206h5q16 0 23 -15q3 -7 3 -14q0 -10 -7 -20q-11 -17 -124 -145t-131.5 -145.5t-52.5 -21.5q-24 2 -38.5 9zM316 838q16 10 33 10q8 0 16 -1
q25 -7 32 -34v-7q0 -29 -45 -100l75 -134q105 -216 105 -331q0 -25 -5 -45q91 103 117 156q25 51 54 51h2q30 -2 42 -29q5 -13 5 -27q0 -15 -6 -30q-12 -31 -45 -88t-120 -139.5t-203 -94.5q-24 -3 -46 -3q-83 0 -132 37q-62 45 -70 91q-3 14 -3 26q0 26 13 40q13 15 34 15
q6 0 14 -1q31 -7 43 -41t29.5 -43.5t46.5 -13.5q4 -1 8 -1q27 0 70 22q45 22 45 110v18q-5 104 -136 341q-165 -234 -193 -266q-22 -25 -45 -25q-7 0 -13 3q-31 9 -35 47q-1 3 -1 5q0 38 57 109q60 76 146.5 217t110.5 156z" />
    <glyph glyph-name="Ydieresis" unicode="&#x178;" horiz-adv-x="1342" 
d="M366 -70q-2 -9 -2 -18q0 -83 152 -83q233 21 314 276q-53 3 -100 3q-147 0 -233 -33q-114 -44 -131 -145zM453 1076q11 -14 11 -32q0 -6 -1 -12q-5 -27 -32 -30q-6 -1 -12 -1q-23 0 -51 9q-37 10 -73 32t-59 60t-27 108q-2 16 -2 31q0 51 13 94q15 54 45.5 101.5t80.5 79
t105 46.5q50 14 92 14h9q45 -2 84 -20t71 -63q25 -37 25 -110q0 -17 -1 -36q-8 -101 -27.5 -180.5t-61.5 -239t-42 -209.5q-1 -2 -1 -4q0 -47 11 -70q11 -24 39 -35q21 -8 53 -8q10 0 22 1q46 3 90.5 17.5t96.5 62t90.5 113t120.5 401.5t101 359.5t44 30.5q9 2 16 2
q15 0 28 -8q18 -13 20 -33v-1q0 -27 -68 -305q-71 -286 -275 -1015q53 5 94.5 21.5t92 38.5t104 74t74.5 65q15 9 31 9q6 0 12 -1q22 -5 31 -20q7 -12 7 -30v-9q-2 -24 -44.5 -63.5t-129.5 -106.5t-299 -101q-49 -132 -87.5 -192.5t-88 -108.5t-143.5 -79q-69 -22 -134 -22
q-26 0 -51 3q-90 12 -142 49t-66 90q-11 40 -11 79q0 11 1 22q4 48 38 104.5t99 100.5t162 67q53 13 146 13q76 0 180 -9l118 376q-17 -23 -80 -69.5t-164 -56.5q-22 -3 -43 -3q-71 0 -117 29q-59 37 -75.5 69t-17.5 97q-1 1 -1 2q0 68 65 321q66 259 76 318q6 39 6 69
q0 16 -2 29q-5 39 -59 52q-23 5 -46 5q-33 0 -68 -11q-60 -18 -97 -64.5t-46 -107.5q-4 -20 -4 -37q0 -38 15 -65q20 -40 67.5 -59.5t61.5 -37.5zM894 1895.5q30 -30.5 30 -72.5q0 -43 -30 -73t-73 -30t-73 30t-30 73q0 42 30 72.5t73 30.5t73 -30.5zM1294 1895.5
q30 -30.5 30 -72.5q0 -43 -30 -73t-73 -30t-73 30t-30 73q0 42 30 72.5t73 30.5t73 -30.5z" />
    <glyph glyph-name="Zcaron" unicode="&#x17d;" horiz-adv-x="1602" 
d="M973.5 1694q-14.5 7 -100.5 157q-85 145 -85 165q0 1 1 1q2 17 17 20q3 1 6 1q13 0 28 -10q18 -12 186 -188q250 203 270 206h5q16 0 23 -15q3 -7 3 -14q0 -10 -7 -20q-11 -17 -124 -145t-131.5 -145.5t-52.5 -21.5q-24 2 -38.5 9zM1584 1555q6 -10 6 -25q0 -7 -1 -14
q-4 -26 -20 -51.5t-914 -1217.5q212 -101 301 -117q78 -14 128 -14h12q51 2 107.5 13.5t87 39t48.5 78.5t25 121q1 19 1 36q0 45 -12 76q-17 43 -40 58.5t-55 18.5q-6 1 -12 1q-25 0 -43 -10q-23 -12 -29.5 -33t-16 -65.5t-34.5 -60.5q-13 -8 -26 -8q-11 0 -23 7
q-24 15 -25 44v5q0 28 9 77q9 53 48 103t95 60q24 4 48 4q30 0 58 -7q50 -13 90.5 -53t63 -102t24.5 -117v-23q0 -44 -5 -87q-8 -56 -31.5 -107t-82.5 -106.5t-144 -71.5q-79 -15 -154 -15q-7 0 -14 1q-82 1 -196 36.5t-259 102.5q-36 -58 -90 -95t-117 -50q-33 -7 -66 -7
q-31 0 -61 6q-65 12 -97.5 48.5t-39.5 89.5q-2 9 -2 18q0 44 30 91q36 57 89.5 74t104.5 19h5q52 0 173 -39q448 589 853 1124q-160 6 -322 24.5t-222 25t-120 11.5q-21 1 -38 1q-32 0 -52 -5q-30 -9 -62 -48t-36 -88q-1 -14 -1 -26q0 -32 8 -54q10 -32 45 -64t60 -47
q17 -12 17 -33q0 -8 -2 -17q-9 -34 -37 -45q-7 -3 -16 -3q-29 0 -78 27q-65 35 -102 134q-23 60 -23 119q0 37 10 75q23 95 99 146t173 54h30q86 0 195 -14q127 -17 254 -35q41 -6 96 -6q115 0 291 26q28 0 36 -14zM482 182q-93 23 -122 27q-10 1 -20 1q-18 0 -35 -4
q-27 -8 -41 -24q-8 -10 -8 -21q0 -8 5 -18q11 -22 47 -32q15 -4 32 -4q22 0 47 7q43 13 95 68z" />
    <glyph glyph-name="zcaron" unicode="&#x17e;" horiz-adv-x="814" 
d="M362.5 1036q-14.5 7 -100.5 157q-85 145 -85 165q0 1 1 1q2 17 17 20q3 1 6 1q13 0 28 -10q18 -12 186 -188q250 203 270 206h5q16 0 23 -15q3 -7 3 -14q0 -10 -7 -20q-11 -17 -124 -145t-131.5 -145.5t-52.5 -21.5q-24 2 -38.5 9zM603 772.5q59 -52.5 74 -108.5
q13 -50 13 -109v-15q-2 -68 -22 -140t-93 -181l30 -121q40 28 100 90.5t79 114t34 69t33 20.5h6q14 0 26 -10q13 -12 17 -43q1 -6 1 -11q0 -28 -17 -64q-21 -43 -59.5 -100.5t-209.5 -208.5q1 -38 1 -71q0 -79 -8 -132q-12 -76 -41 -176.5t-67 -176.5t-94 -112
q-51 -33 -105 -33q-7 0 -13 1q-62 4 -101.5 45t-52.5 97q-7 28 -7 66q0 36 6 79q12 90 82.5 219.5t285.5 301.5l-20 107q-56 -22 -105 -26q-16 -2 -31 -2q-34 0 -66 7q-47 10 -70.5 34t-26.5 63q-1 6 -1 13q0 31 13 62q14 37 72 61q50 20 98 20h12q53 -3 141 -64
q30 67 36.5 120t8.5 105v10q0 44 -15 71q-17 30 -53 46t-78 18h-11q-36 0 -68 -10q-37 -11 -83 -46t-89 -115.5t-54.5 -136t-24 -74t-34.5 -20.5h-9q-17 0 -31 6q-18 7 -20 34v5q0 28 17 96q19 74 69.5 166t127.5 155q73 60 195 60h12q131 -3 190 -55.5zM292 -316.5
q-44 -86.5 -55 -158.5q-4 -28 -4 -52q0 -36 11 -60q17 -39 48 -46q7 -2 14 -2q25 0 54 20q36 25 93 178q54 147 54 353v15q-171 -161 -215 -247.5zM435 278q-40 29 -76 29q-10 0 -20 -3q-43 -10 -43 -29q0 -1 1 -2q2 -20 43 -20q1 -1 2 -1q40 0 93 26z" />
    <glyph glyph-name="circumflex" unicode="&#x2c6;" horiz-adv-x="776" 
d="M618.5 1578.5q14.5 -7.5 101.5 -156.5q84 -146 84 -165v-1q-3 -17 -17 -20q-3 -1 -7 -1q-12 0 -26 10q-19 12 -188 187q-250 -203 -269 -205q-3 -1 -5 -1q-16 0 -23 16q-3 7 -3 14q0 10 6 20q11 16 124 144.5t131.5 146t52.5 21.5q24 -2 38.5 -9.5z" />
    <glyph glyph-name="tilde" unicode="&#x2dc;" horiz-adv-x="950" 
d="M841 1471q20 7 30 30.5t16.5 49.5t23.5 29q3 1 6 1q13 0 23 -9q7 -6 7 -23q0 -11 -4 -28q-9 -40 -30 -81t-47.5 -62.5t-58.5 -23.5q-10 -1 -19 -1q-24 0 -50 4q-37 5 -65 17.5t-60.5 29.5t-68.5 34t-75 22q-14 2 -26 2q-23 0 -39 -6q-25 -10 -35.5 -25t-16 -36.5
t-23.5 -34.5q-13 -9 -22 -9q-4 0 -7 2q-11 5 -15 17q-2 5 -2 13q0 10 3 24q5 24 15.5 58.5t39.5 64.5t55 41t61 12h4q33 0 66 -8q35 -8 76 -39t162 -73q56 1 76 8z" />
    <glyph glyph-name="endash" unicode="&#x2013;" horiz-adv-x="898" 
d="M897 824q72 -6 73 -52v-4q0 -44 -25 -57q-25 -14 -93 -14h-9q-525 2 -555 12t-34 39q-1 6 -1 11q0 22 12 38q14 21 37 28q11 3 141 3q149 0 454 -4z" />
    <glyph glyph-name="emdash" unicode="&#x2014;" horiz-adv-x="1109" 
d="M1097 824q72 -6 73 -52v-4q0 -44 -25 -57q-25 -14 -93 -14h-9q-725 2 -755 12t-34 39q-1 6 -1 11q0 22 12 38q14 21 37 28q11 3 184 3q199 0 611 -4z" />
    <glyph glyph-name="quoteleft" unicode="&#x2018;" horiz-adv-x="397" 
d="M521 1594l6 -50q-57 -18 -72 -52q47 -23 53 -67q1 -10 1 -20q0 -30 -14 -49q-20 -26 -43 -35q-21 -8 -49 -8q-5 0 -10 1q-35 1 -57.5 28t-27.5 76q-1 10 -1 19q0 36 15 65q19 35 63 64q42 28 130 28h6z" />
    <glyph glyph-name="quoteright" unicode="&#x2019;" horiz-adv-x="397" 
d="M313 1313l-6 50q57 18 72 52q-47 23 -53 67q-1 10 -1 20q0 30 15 50q19 25 43 34q20 8 48 8h10q35 -2 57.5 -29t27.5 -75q1 -11 1 -20q0 -36 -15 -64q-19 -36 -62 -65q-43 -28 -131 -28h-6z" />
    <glyph glyph-name="quotesinglbase" unicode="&#x201a;" horiz-adv-x="359" 
d="M113 -87l-6 50q57 18 72 52q-47 23 -53 67q-1 10 -1 20q0 30 15 50q19 25 43 34q20 8 48 8h10q35 -2 57.5 -29t27.5 -75q1 -11 1 -20q0 -36 -15 -64q-19 -36 -62 -65q-43 -28 -131 -28h-6z" />
    <glyph glyph-name="quotedblleft" unicode="&#x201c;" horiz-adv-x="603" 
d="M821 1594l6 -50q-57 -18 -72 -52q47 -23 53 -67q1 -10 1 -20q0 -30 -14 -49q-20 -26 -43 -35q-21 -8 -49 -8q-5 0 -10 1q-35 1 -57.5 28t-27.5 76q-1 10 -1 19q0 36 15 65q19 35 63 64q42 28 130 28h6zM521 1594l6 -50q-57 -18 -72 -52q47 -23 53 -67q1 -10 1 -20
q0 -30 -14 -49q-20 -26 -43 -35q-21 -8 -49 -8q-5 0 -10 1q-35 1 -57.5 28t-27.5 76q-1 10 -1 19q0 36 15 65q19 35 63 64q42 28 130 28h6z" />
    <glyph glyph-name="quotedblright" unicode="&#x201d;" horiz-adv-x="603" 
d="M313 1313l-6 50q57 18 72 52q-47 23 -53 67q-1 10 -1 20q0 30 15 50q19 25 43 34q20 8 48 8h10q35 -2 57.5 -29t27.5 -75q1 -11 1 -20q0 -36 -15 -64q-19 -36 -62 -65q-43 -28 -131 -28h-6zM613 1313l-6 50q57 18 72 52q-47 23 -53 67q-1 10 -1 20q0 30 15 50
q19 25 43 34q20 8 48 8h10q35 -2 57.5 -29t27.5 -75q1 -11 1 -20q0 -36 -15 -64q-19 -36 -62 -65q-43 -28 -131 -28h-6z" />
    <glyph glyph-name="quotedblbase" unicode="&#x201e;" horiz-adv-x="602" 
d="M113 -87l-6 50q57 18 72 52q-47 23 -53 67q-1 10 -1 20q0 30 15 50q19 25 43 34q20 8 48 8h10q35 -2 57.5 -29t27.5 -75q1 -11 1 -20q0 -36 -15 -64q-19 -36 -62 -65q-43 -28 -131 -28h-6zM413 -87l-6 50q57 18 72 52q-47 23 -53 67q-1 10 -1 20q0 30 15 50q19 25 43 34
q20 8 48 8h10q35 -2 57.5 -29t27.5 -75q1 -11 1 -20q0 -36 -15 -64q-19 -36 -62 -65q-43 -28 -131 -28h-6z" />
    <glyph glyph-name="dagger" unicode="&#x2020;" horiz-adv-x="994" 
d="M570 1070q-380 1 -390 25q-7 16 -7 37q0 10 2 22q5 34 37 42q17 4 383 1q71 328 91 373q15 35 50 35q9 0 20 -3q49 -11 49 -45v-3q-3 -37 -64 -347q311 0 331 -29q9 -14 9 -30q0 -15 -9 -31q-20 -32 -42 -39q-13 -5 -314 -3q-217 -1009 -244 -1050.5t-63 -43.5
q-4 -1 -6 -1q-32 0 -40 25q-1 1 -1 3q0 67 208 1062z" />
    <glyph glyph-name="daggerdbl" unicode="&#x2021;" horiz-adv-x="988" 
d="M577 1060q-380 11 -390 35q-7 16 -7 37q0 10 2 22q5 34 37 42q16 3 383 0q81 329 101 374q15 35 50 35q9 0 20 -3q49 -11 49 -45v-3q-3 -37 -74 -347q311 0 331 -29q9 -14 9 -31q0 -16 -9 -35q-20 -37 -42 -44q-13 -5 -314 -3l-136 -618q365 0 387 -24q16 -19 16 -45
q0 -9 -1 -19q-8 -40 -35 -42q-9 -1 -402 2q-56 -253 -83 -294.5t-63 -43.5q-4 -1 -6 -1q-32 0 -40 25q-1 2 -1 6q0 63 47 303q-295 -2 -308 17q-15 21 -15 49v7q2 31 28.5 45.5t333.5 17.5z" />
    <glyph glyph-name="bullet" unicode="&#x2022;" horiz-adv-x="401" 
d="M542.5 942.5q58.5 -58.5 58.5 -141.5q0 -82 -58.5 -140.5t-140.5 -58.5q-83 0 -141.5 58.5t-58.5 140.5q0 83 58.5 141.5t141.5 58.5q82 0 140.5 -58.5z" />
    <glyph glyph-name="ellipsis" unicode="&#x2026;" horiz-adv-x="1065" 
d="M174 164q30 -30 30 -72q0 -43 -30 -72.5t-72 -29.5t-72 29.5t-30 72.5q0 42 30 72t72 30t72 -30zM657 164q30 -30 30 -72q0 -43 -30 -72.5t-72 -29.5t-72 29.5t-30 72.5q0 42 30 72t72 30t72 -30zM1140 164q30 -30 30 -72q0 -43 -30 -72.5t-72 -29.5t-72 29.5t-30 72.5
q0 42 30 72t72 30t72 -30z" />
    <glyph glyph-name="perthousand" unicode="&#x2030;" horiz-adv-x="2702" 
d="M988 818q461 722 485 746.5t45 28.5q5 1 11 1q15 0 30 -7q17 -9 17 -43v-16q-5 -48 -467 -763.5t-484 -741.5t-49 -29h-8q-23 0 -43 15q-15 11 -15 30q0 10 5 22q12 35 473 757zM656 1576h13q178 0 233 -104q49 -95 49 -251v-42q-8 -185 -76.5 -355.5t-188.5 -235.5
q-83 -46 -183 -46q-45 0 -93 10q-156 29 -189 202q-13 66 -13 137q0 112 32 235q52 199 171.5 324.5t244.5 125.5zM369 1060q-24 -105 -24 -182q0 -194 154 -204q219 17 290 387q20 102 20 177q0 194 -133 199q-222 -5 -307 -377zM1576 1037h13q178 0 233 -104
q49 -95 49 -251v-42q-8 -185 -76.5 -355.5t-188.5 -235.5q-83 -46 -183 -46q-45 0 -93 10q-156 29 -189 202q-13 66 -13 137q0 112 32 235q52 199 171.5 324.5t244.5 125.5zM1289 521q-24 -105 -24 -182q0 -194 154 -204q219 17 290 387q20 102 20 177q0 194 -133 199
q-222 -5 -307 -377zM2376 1037h13q178 0 233 -104q49 -95 49 -251v-42q-8 -185 -76.5 -355.5t-188.5 -235.5q-83 -46 -183 -46q-45 0 -93 10q-156 29 -189 202q-13 66 -13 137q0 112 32 235q52 199 171.5 324.5t244.5 125.5zM2089 521q-24 -105 -24 -182q0 -194 154 -204
q219 17 290 387q20 102 20 177q0 194 -133 199q-222 -5 -307 -377z" />
    <glyph glyph-name="guilsinglleft" unicode="&#x2039;" horiz-adv-x="606" 
d="M122 774q-10 20 -10 38v6q2 19 24.5 42.5t203.5 162t211 160.5q25 19 49 19h6q26 -3 37 -13t12 -31v-3q0 -19 -13 -39q-14 -22 -201 -165t-187 -150t97 -156.5t101 -173.5q1 -7 1 -14q0 -16 -6 -29q-9 -20 -30 -27q-9 -4 -18 -4q-14 0 -28 7q-26 10 -131.5 177.5
t-117.5 192.5z" />
    <glyph glyph-name="guilsinglright" unicode="&#x203a;" horiz-adv-x="593" 
d="M645 826q10 -21 10 -39v-5q-2 -20 -24.5 -43.5t-203.5 -162t-210 -160.5q-26 -19 -50 -19h-6q-26 3 -37 13t-12 31v3q0 19 13 40q14 21 201 164t187 150t-97 156.5t-101 173.5q-1 7 -1 14q0 16 6 30q9 19 30 27q9 3 18 3q14 0 29 -6q25 -11 130.5 -178.5t117.5 -191.5z
" />
    <glyph glyph-name="trademark" unicode="&#x2122;" horiz-adv-x="1400" 
d="M720 1600v-100h-150v-500h-100v500h-150v100h400zM940 1600l100 -500l100 500h170v-600h-100v500l-100 -500h-140l-100 500v-500h-100v600h170z" />
  </font>
</defs>
</svg>
